<?xml version="1.0" encoding="UTF-8"?>
<svg id="Capa_2" data-name="Capa 2" xmlns="http://www.w3.org/2000/svg" viewBox="0 0 112.21 109.38">
  <defs>
    <style>
      .cls-1 {
        fill: #fff;
      }
    </style>
  </defs>
  <g id="Capa_1-2" data-name="Capa 1">
    <g>
      <path class="cls-1" d="M77.65,66.81c-.09.13-.34.02-.29.51.04.4.32.61.36.89.39,2.55.58,5,1.07,7.55.73,3.79,3.17,6.91,3.99,10.61.59,2.66.64,5.49,1.11,8.03.09.47.48.84.49,1.24.02.7-.8,5.06-1.09,5.57-.38.65-.98,1.14-1.41,1.93-.74,1.35-1.71,2.89-2.83,4.03-.67.69-2.27,1.91-3.21,2.06-1.69.28-4.55.09-6.27-.15-2.19-.3-2.58-1.78-3.41-3.45-.44-.89-.69-1.91-1.02-2.5-.56-1.02-2.13-2.44-2.75-3.76-.32-.69-.19-1.44-.41-2.05-.45-1.26-1.88-2.5-2.24-3.56-.94-2.78-1.07-6.03-1.93-8.97-.33-1.13-1.03-3.47-1.52-4.46-.33-.66-1.17-.92-1.51-1.66-1.16.41-.8,1.69-1.01,2.51-1.12,4.56-2.77,7.88-4.44,12.09-.27.69-.32,1.62-.54,2.1-.18.41-.95.76-1.21,1.07-.49.59-.64,1.18-1.33,1.84-2.36,2.23-6.78,6.19-10.12,6.24-.84.01-4.3-.46-5-.8-.1-.05-1.56-1.08-1.76-1.23-.93-.71-.67-1.44-1.03-2.31-.3-.72-1.18-2-1.26-2.62-.12-.94,1.1-2.25,1.01-3.12-.03-.27-.35-.61-.44-.95-.78-3.1-.52-5.74.18-8.87s2.24-7.31,1.87-10.41c-.25-2.08-1.88-3.02-3.77-3.45-2.12.21-4.39.72-6.5.85-4.42.27-8.99.1-13.33-.71-.36-.07-1.5-.59-1.83-.8C1.31,68.21.24,61.19.01,57.98c-.12-1.59.77-3.3,1.66-4.63,2.37-3.54,6.61-6.12,10.39-7.9,5.38-2.53,13.56-4.52,19.67-4.6,1.93-.03,3.15.51,4.79,1.01,1.22.37,2.2.02,3.29.04,1.63.03,3.34.55,4.82-.38.26-.71-.75-1.65-.81-2.02-.11-.74.32-2.15.31-2.8,0-.44-.33-.71-.36-1.06-.02-.23.14-3.25.18-3.5.08-.51.49-.95.64-1.47.59-2.01.69-2.92,1.84-4.85,1.74-2.92,4.23-4.14,6.65-6.37.64-.59,4.24-1.55,5.21-1.65,2.02-.2,4.97.07,6.9.63.75.22,4.3,3.31,4.78,4.01.44.65.64,1.81.97,2.37.15.26.55.39.82.76,1,1.37.57,2.87.67,4.44.11,1.79.16,4.04.61,5.72.07.27.4.47.44.8.08.62-.06,1.86.08,2.54.18.89.8,2.52,1.68,2.89.32.14.67.03.93.13.42.16.34.48,1.09.51,2.72.11,6.14-.44,8.97-.55,2.9-.11,6.39-.44,9.16,0,1.95.31,4.77-.72,7.03-.52.47.04.84.3,1.24.34,1.87.18,2.03-.35,3.76.82,1.44.97,3.15,1.86,4.02,3.36.28.48.79,1.36.73,1.89-.03.31-.29.57-.34.9-.22,1.37-.48,2.93-.79,4.31-.82,3.66-5.31,8.56-8.65,10.17-1.45.7-3.14.07-4.63,1-3.42,2.15-6.34,1.45-10.29,1.85-2.73.33-6-.5-8.63-.19-.67.08-.85.29-1.22.81Z"/>
      <path class="cls-1" d="M74.94,21c.08-.13.84-.23.77-.93-.02-.19-.3-1.39-.36-1.56-.19-.47-.97-.93-1.09-1.11-.16-.25-.06-.82-.28-1.13-.91-1.32-2.61-2.88-3.63-4.19-.63-.8-1.09-2.08-1.59-2.64-.38-.42-.96-.5-1.32-.79-.31-.24-.41-.61-.73-.86-1.47-1.14-6.51-2.05-8.43-2.14-1.07-.05-2,.44-2.98.53-.93.08-1.67-.19-2.46-.19-3,0-8.14,1.49-10.45,3.46-.96.82-3.75,4.38-4.14,5.53-.11.32-.47,1.99-.42,2.08.02.03.35.09.48.3.89,1.43.17,2.84.39,4.37s1.27,3.34,1.53,4.98c.26,1.68.22,3.4-1.1,4.62-.25.23-.68.28-.87.53-.28.37-.21,1.08-.41,1.53-.28.64-1.29,1.03-1.3,1.96-.36.24-2.5-.12-3.05-.12-.64,0-1.69.31-2.29.29-.4-.01-1.29-.3-2.1-.36-2.97-.23-6.6-1.53-8.63-3.83-.74-.84-1.01-1.62-.96-2.73.13-2.77.73-3.18,1.91-5.3.43-.78,1.31-3.19,1.88-3.75s2.74-1.92,3.56-2.25c1.37-.55,3.87-1.04,5.06-1.98.44-.35.73-1.28,1.06-1.75.74-1.04.95-1.44,1.58-2.47.55-.89,4.25-5.25,5.02-5.89.53-.44,1.53-.84,2.16-1.18,2.05-1.12,5.09-2.64,7.43-2.94,6.41-.83,12.08-1.97,18.55-.12,1.55.44,6.09,3.04,6.92,4.33.57.88.73,1.74,1.52,2.71,2.03,2.5,4.8,4.37,5.43,7.93.29.4,3.04,1.37,3.71,1.74.71.39,1.32.99,1.98,1.36.44.25,1.82.68,1.97.85.17.2.24.84.41,1.17.69,1.38,2.29,3.76,2.63,5.11.13.5-.14.85-.09,1.16.03.18.29.37.32.73.06.81-2.15,3.75-2.85,4.38-.74.67-4.77,2.59-5.71,2.73-.81.13-3.36.24-4.22.19-1.46-.08-1.97-.28-2.79-1.43-.3-.42-1.58-2.26-1.65-2.58-.16-.76.05-1.65-.04-2.42-.2-1.77-.93-3.59-.44-5.38.09-.31.43-.46.46-.96s-.49-1.39-.34-1.64Z"/>
      <path d="M77.65,66.81c-.09.13-.34.02-.29.51.04.4.32.61.36.89.39,2.55.58,5,1.07,7.55.73,3.79,3.17,6.91,3.99,10.61.59,2.66.64,5.49,1.11,8.03.09.47.48.84.49,1.24.02.7-.8,5.06-1.09,5.57-.38.65-.98,1.14-1.41,1.93-.74,1.35-1.71,2.89-2.83,4.03-.67.69-2.27,1.91-3.21,2.06-1.69.28-4.55.09-6.27-.15-2.19-.3-2.58-1.78-3.41-3.45-.44-.89-.69-1.91-1.02-2.5-.56-1.02-2.13-2.44-2.75-3.76-.32-.69-.19-1.44-.41-2.05-.45-1.26-1.88-2.5-2.24-3.56-.94-2.78-1.07-6.03-1.93-8.97-.33-1.13-1.03-3.47-1.52-4.46-.33-.66-1.17-.92-1.51-1.66-1.16.41-.8,1.69-1.01,2.51-1.12,4.56-2.77,7.88-4.44,12.09-.27.69-.32,1.62-.54,2.1-.18.41-.95.76-1.21,1.07-.49.59-.64,1.18-1.33,1.84-2.36,2.23-6.78,6.19-10.12,6.24-.84.01-4.3-.46-5-.8-.1-.05-1.56-1.08-1.76-1.23-.93-.71-.67-1.44-1.03-2.31-.3-.72-1.18-2-1.26-2.62-.12-.94,1.1-2.25,1.01-3.12-.03-.27-.35-.61-.44-.95-.78-3.1-.52-5.74.18-8.87s2.24-7.31,1.87-10.41c-.25-2.08-1.88-3.02-3.77-3.45-2.12.21-4.39.72-6.5.85-4.42.27-8.99.1-13.33-.71-.36-.07-1.5-.59-1.83-.8C1.31,68.21.24,61.19.01,57.98c-.12-1.59.77-3.3,1.66-4.63,2.37-3.54,6.61-6.12,10.39-7.9,5.38-2.53,13.56-4.52,19.67-4.6,1.93-.03,3.15.51,4.79,1.01,1.22.37,2.2.02,3.29.04,1.63.03,3.34.55,4.82-.38.26-.71-.75-1.65-.81-2.02-.11-.74.32-2.15.31-2.8,0-.44-.33-.71-.36-1.06-.02-.23.14-3.25.18-3.5.08-.51.49-.95.64-1.47.59-2.01.69-2.92,1.84-4.85,1.74-2.92,4.23-4.14,6.65-6.37.64-.59,4.24-1.55,5.21-1.65,2.02-.2,4.97.07,6.9.63.75.22,4.3,3.31,4.78,4.01.44.65.64,1.81.97,2.37.15.26.55.39.82.76,1,1.37.57,2.87.67,4.44.11,1.79.16,4.04.61,5.72.07.27.4.47.44.8.08.62-.06,1.86.08,2.54.18.89.8,2.52,1.68,2.89.32.14.67.03.93.13.42.16.34.48,1.09.51,2.72.11,6.14-.44,8.97-.55,2.9-.11,6.39-.44,9.16,0,1.95.31,4.77-.72,7.03-.52.47.04.84.3,1.24.34,1.87.18,2.03-.35,3.76.82,1.44.97,3.15,1.86,4.02,3.36.28.48.79,1.36.73,1.89-.03.31-.29.57-.34.9-.22,1.37-.48,2.93-.79,4.31-.82,3.66-5.31,8.56-8.65,10.17-1.45.7-3.14.07-4.63,1-3.42,2.15-6.34,1.45-10.29,1.85-2.73.33-6-.5-8.63-.19-.67.08-.85.29-1.22.81Z"/>
      <path d="M74.94,21c.08-.13.84-.23.77-.93-.02-.19-.3-1.39-.36-1.56-.19-.47-.97-.93-1.09-1.11-.16-.25-.06-.82-.28-1.13-.91-1.32-2.61-2.88-3.63-4.19-.63-.8-1.09-2.08-1.59-2.64-.38-.42-.96-.5-1.32-.79-.31-.24-.41-.61-.73-.86-1.47-1.14-6.51-2.05-8.43-2.14-1.07-.05-2,.44-2.98.53-.93.08-1.67-.19-2.46-.19-3,0-8.14,1.49-10.45,3.46-.96.82-3.75,4.38-4.14,5.53-.11.32-.47,1.99-.42,2.08.02.03.35.09.48.3.89,1.43.17,2.84.39,4.37s1.27,3.34,1.53,4.98c.26,1.68.22,3.4-1.1,4.62-.25.23-.68.28-.87.53-.28.37-.21,1.08-.41,1.53-.28.64-1.29,1.03-1.3,1.96-.36.24-2.5-.12-3.05-.12-.64,0-1.69.31-2.29.29-.4-.01-1.29-.3-2.1-.36-2.97-.23-6.6-1.53-8.63-3.83-.74-.84-1.01-1.62-.96-2.73.13-2.77.73-3.18,1.91-5.3.43-.78,1.31-3.19,1.88-3.75s2.74-1.92,3.56-2.25c1.37-.55,3.87-1.04,5.06-1.98.44-.35.73-1.28,1.06-1.75.74-1.04.95-1.44,1.58-2.47.55-.89,4.25-5.25,5.02-5.89.53-.44,1.53-.84,2.16-1.18,2.05-1.12,5.09-2.64,7.43-2.94,6.41-.83,12.08-1.97,18.55-.12,1.55.44,6.09,3.04,6.92,4.33.57.88.73,1.74,1.52,2.71,2.03,2.5,4.8,4.37,5.43,7.93.29.4,3.04,1.37,3.71,1.74.71.39,1.32.99,1.98,1.36.44.25,1.82.68,1.97.85.17.2.24.84.41,1.17.69,1.38,2.29,3.76,2.63,5.11.13.5-.14.85-.09,1.16.03.18.29.37.32.73.06.81-2.15,3.75-2.85,4.38-.74.67-4.77,2.59-5.71,2.73-.81.13-3.36.24-4.22.19-1.46-.08-1.97-.28-2.79-1.43-.3-.42-1.58-2.26-1.65-2.58-.16-.76.05-1.65-.04-2.42-.2-1.77-.93-3.59-.44-5.38.09-.31.43-.46.46-.96s-.49-1.39-.34-1.64Z"/>
    </g>
  </g>
</svg>