<?xml version="1.0" encoding="UTF-8"?>
<svg id="Capa_2" data-name="Capa 2" xmlns="http://www.w3.org/2000/svg" viewBox="0 0 96 98.83">
  <defs>
    <style>
      .cls-1 {
        fill: #fff;
      }
    </style>
  </defs>
  <g id="STICKERS">
    <g id="_04_copia" data-name="04 copia">
      <g>
        <path class="cls-1" d="M95.61,45.97c-.04-.2-.09-.39-.11-.59-.03-2.09-.29-3.23-.77-4.58v-.04c.21-1.9-.28-3.76-1.3-5.29-.06-.3-.14-.61-.24-.91-.03-.38-.08-.76-.16-1.11l.12-.57c.27-1.22.25-2.48-.05-3.67v-.29c0-.35-.04-.7-.08-1.05.03-1.72-.35-3.53-1.18-5.32-.34-.73-.65-1.27-.85-1.63-.17-.3-.2-.35-.3-.59-.3-.72-.65-1.33-1.01-1.83-.55-1.14-1.37-2.16-2.42-2.96-1.08-.82-2.33-1.33-3.63-1.52-.52-.29-1.03-.49-1.49-.64-.3-.1-.6-.18-.91-.24-.04-.06-.08-.12-.12-.17-.35-.5-.72-.93-1.1-1.3-.41-.8-.98-1.7-1.78-2.56-.25-.26-2.48-2.6-4.68-3.44-.96-.36-1.98-.55-3.03-.55-.33,0-.65.02-.95.05-.55-.11-1.17-.18-1.83-.18-.06,0-.14,0-.2,0-.19,0-.37.01-.55.03h-.27c-.17-.15-.35-.3-.54-.44-1.51-1.13-4.19-2.09-6.49-2.39-.98-.34-2.03-.53-3.13-.53-.05,0-.11,0-.16,0-1.31-.6-2.55-.72-3.4-.72-.33,0-.4,0-.78-.04-.28-.03-.59-.06-.99-.08-.18-.01-.42-.02-.7-.02h0c-.96-.38-1.96-.57-2.95-.57-.23,0-.45,0-.67.03-.01,0-.03,0-.04,0-.67-.18-1.36-.26-2.04-.26-.87,0-1.73.14-2.56.42-3.5.68-6.42,3.66-7.66,6.48-.96,1.41-1.67,3.34-1.84,5.99-.07.13-.14.27-.2.41-.26.58-.45,1.15-.57,1.66-.06.14-.12.28-.17.42-.21.56-.36,1.14-.44,1.72-.25.87-.34,1.77-.29,2.66-.02.24-.03.48-.02.72v.48c.02.96.21,1.9.55,2.78.15.52.35,1.04.61,1.53.18.35.4.72.66,1.09,0,0-.01,0-.02,0-2.76-2.71-6.8-2.85-7.59-2.85-.68,0-1.34.07-1.97.21-.16.04-.32.08-.48.12-1.48.22-2.9.85-4.08,1.87-.22.19-.43.39-.63.61-1.12.88-2.2,2.15-3.06,3.98l-.04.1c-.49.87-1.64,2.54-2.46,3.63-.53.32-.97.66-1.32.98-.3.28-.62.6-.92.98-.68.47-1.29,1.05-1.8,1.73-.2.27-.39.55-.55.83-.36.43-.7.92-1.01,1.47-.7.67-1.46,1.59-2.03,2.85-.05.07-.11.14-.16.21-.68.95-1.1,1.92-1.36,2.79-.57.98-.93,2.07-1.04,3.23-.3,1.11-.4,2.18-.48,3.05-.02.24-.04.49-.07.72-.06.19-.13.4-.2.63-.59,1.81-1.38,4.26-1.39,6.77-.3,1.25-.32,2.56-.03,3.84-.02.99.09,1.87.18,2.58.02.15.04.3.05.44-.07,1.57.32,3.1,1.09,4.42.38.81.89,1.56,1.53,2.22.23.36.5.73.83,1.09.45.51.9.91,1.3,1.22.94,1.19,2.19,2.07,3.58,2.57,1.16.61,2.44.92,3.74.92.04,0,.07,0,.11,0,.48.13,1.09.27,1.8.35.04,0,.08,0,.12.01.32.14.76.31,1.33.49.39.13.76.22,1.1.29.64.47,1.32.85,2.05,1.15.22.14.45.27.66.38.3.26.63.52,1.01.77.31.2.62.37.9.52.5.53,1.07.98,1.69,1.35.44.4.95.76,1.5,1.07.2.2.43.42.69.65.48.66,1.07,1.25,1.75,1.74.04.15.08.31.12.45.17,1.21.62,2.38,1.34,3.41.36.51.77.98,1.22,1.39.55.83,1.06,1.43,1.32,1.67.18.17.36.33.53.47,1.03,1.3,2.45,2.27,4.1,2.73.72.2,1.45.3,2.17.3.36,0,.73-.02,1.09-.07.18,0,.36.01.55.01.22,0,.45,0,.68-.02.38.06.77.08,1.15.08.88,0,1.76-.15,2.6-.43.03,0,.06,0,.09-.01.42.04.83.12,1.02.17.72.2,1.45.3,2.16.3.48,0,.95-.04,1.41-.13.35.06.72.1,1.13.12.13,0,.33.01.58.01.02,0,2.08,0,3.07-.12.4-.05.79-.12,1.16-.21,2.29-.15,4.44-1.21,5.96-2.96.96-1.11,1.6-2.47,1.85-3.92v-.07c.75.21,1.53.32,2.32.32.3,0,.58-.01.87-.04.75.2,1.53.31,2.33.31h0c.85,0,1.71-.12,2.55-.36.45-.13,1.12-.36,1.86-.79.11-.04.22-.09.32-.14.03-.01,1.49-.71,2.97-2.12.36-.22.71-.47,1.03-.74.3-.16.59-.33.87-.52.69-.47,1.29-1.04,1.78-1.67.45-.44.85-.94,1.19-1.48.43-.36.91-.77,1.4-1.25,1.1-.86,1.91-1.77,2.5-2.7.08-.09.15-.18.22-.27,1.05-1.01,1.82-2.21,2.27-3.52.83-1.07,1.68-2.18,2.28-3.5.14-.18.28-.37.41-.56.88-1.3,1.22-2.56,1.46-3.71.3-.42.62-.89.9-1.43,1.27-2.44,1.95-5.5,2.58-8.67l.06-.28c.5-1.42.71-2.7.71-3.85.15-.87.16-1.63.12-2.2.02-.07.03-.14.05-.2.11-.47.21-.94.28-1.42.07-.42.1-.85.11-1.27.03-.47.02-.94-.03-1.42-.09-.81-.23-1.5-.34-2.06Z"/>
        <path d="M47.26,8.96l.36-.72c.24.1.3.63.39.68.12.07,2.24-.15,2.68-.11,1.01.07,1.29.15,2.42.15.1,0,.62,1,1.55,1.1.64.07,2.42-1.08,3.02.35.22-.82,3.39.34,3.73.6.25.19-.02.57.11.82.4.76,1.29,1.59,2.18,1.63.8.04,1.34-.94,1.52.31l.48-.17v-.55s1.44,0,1.44,0l-.12.48c.57.13.15-.5.71-.51.69-.01,1,.43,1.39.45.44.02,1.21-.44,1.62-.29.1.04,1.53,1.27,1.68,1.43.52.56.79,1.41,1,1.98.03.07.94.68,1.11.93.16.23.65,1.54.81,1.69.54.49,1.74.54,1.62,1.76.72-.77,1.38-.07,2.04.48l.24-.49.44.05c.6.2.78,1.03.92,1.11.06.04.32-.13.51-.09.67.14.4.4,1.36-.1-.15.74.55.8.82,1.45.52,1.28.85,1.58,1.3,2.54.38.82.76,2.16.05,2.84l.48.26.02,1.39c-.31.28-.63,0-.5.63l.72.12-.68,3.07c1.07,1.07.28,1.46.19,2.68l.73.12c-.3.77.28,1.44.71,2.05l-.47.58c.55.01.39.68.95.24-.08.76-.2,1.5,0,2.26.47,1.79.7,1.5.72,3.4.01,1.13.38,2.2.5,3.32l-.5.15.48.38c-.14.88-.42,1.72-.47,2.62-.03.55.33,1.49-.48,1.57.88.93.1,1.92-.09,2.86-.42,2.06-1.02,5.38-1.97,7.2-.21.39-1.1,1.44-1.28,1.89s-.4,2.14-.61,2.46c-.18.27-.8.21-.99.47-.21.27.11.75-.03,1.14-.33.88-2.01,2.71-2.55,3.66-.18.31.3.68-.63,1.29-.21.14-.61-.45-.48.64l-.48-.25c.2,1.36-.69,1.56-1.36,2.24-.78.79-1.83,1.54-2.42,2.14-.23.24.05,1.05-1.26.9l.24.6c-.29.2-1,0-1.17.15-.2.17.09,1.22-1.23.93.43.26-1.16,1.58-1.26,1.62-.19.08-.48-.2-.67-.07-.16.1-.12.51-.39.59-.88.25-1.09-.41-1.16-.42-.44-.05-2.43.28-2.52.19v-.72c-.81.27-2.11.48-1.92-.72-.37.17-.64.27-1.06.25-.88-.04-2.12-.64-2.69-.68-.12,0-2.2.16-2.32.18-.17.03-.13.44-.32.49-.3.08-.87-.1-1.02.03-.07.07.05.48-.07.62s-.58.1-.8.29c-.23.2-.3.56-.49.73s-1.56.89-1.55,1.1l1.46,2.41-.25.58,1.17.38-.25,1.5c-.54.62-1.33-.23-1.39-.19-.04.03.12.58-.66.68-.31.04-2,.08-2.34.06-.72-.03-2.56-.98-2.89,0-.96-.27-2.3-.45-3.35-.49-.55-.02-1.45.25-1.92.19-.19-.02.03-.67-.59-.43v.72c-.94-.35-2.3.32-3-.48l-.47.48c-.23-.99-.96-.99-1.25-1.27-.08-.07-1.02-1.63-.81-1.83l-.7-.02.21-.61c-.75-.3-.59-1.75-.45-2.51l-.47.24c.04-1.15-1.41-.97-.73-1.92l-1.91-.99.23-.69c-1.33,0-1.94-1.3-2.76-1.93-.53-.4-1.08.08-.84-1.19l-1.18-.03c.13-.95-1.68-1.29-2.35-1.72-.18-.12-.27-.6-.7-.86-.3-.18-.9-.19-1.01-.32-.14-.16.01-.58-.04-.67-.02-.02-.34.17-.55.15-1.56-.12-1.36-1.11-2.34-1.46-.65-.23-1.37-.1-2.06-.33-1.43-.47-1.04-.63-3.04-.85-1.05-.12-1.73-.71-2.79-.39v-.72s-1.04.26-1.04.26c-.32-.85-1.14-1.05-1.61-1.58-.18-.2-.16-.58-.3-.76-.4-.5-1.2-.28-.64-1.52l-.48.24c.11-1.11-.37-2.75-.17-3.78.06-.34.46-.7.41-.78,0-.02-.29.04-.39-.08-.75-.99.27-1.07.31-1.48.03-.27-.35-.68-.36-1.01-.04-1.62.95-4.15,1.33-5.48.31-1.09.28-2.87.55-3.79.06-.21.47-.17.48-.32.03-.32-.28-.68-.26-.91,0-.14.4-.09.47-.29.11-.35.1-1.33.48-1.86.18-.25.62-.08.7-.17s.03-.93.21-1.36c.25-.6.84-.67,1.13-1.03.53-.67.47-2.22,1.81-1.67l-.24-.96c.36-.01,1.45-.31,1.63-.52.04-.04-.15-.88.11-1.12.1-.09.47.02.6-.1,1.44-1.32,4-5.1,4.84-6.61.51-.92.69-2.06,2.17-1.74l-.24-.72.96.48.13-.71c.42-.1,1.87.21,2.19.54.5.51,1.2,1.77,1.98,2.21.2.11.55-.13.78-.05.55.2,1.1.59,1.73.67l.24-.49c1.33,1.2,2.38-.87,3.48.24v-.72c1.12.52,1.14-.43,1.5-.67.12-.08.43.12.65.03,1.75-.68,3.32-1.75,4.71-2.7.34-.23.89-.06,1.12-.24.25-.19.3-1.24.76-.01.58-.56,1.89-1.13,2.69-1.15.3,0,.5.34.67.34.16,0,.36-.33.66-.32,1.23.02,1.91,1.03,3.12.8.3-.06.56-.39,1.02-.41.42-.02.29.41.51.48.88.27,1.93-.02,2.72.15,1.54.33.58.9.72,1.08l.71-.48.72.72-.12-.72c.5.38.7,1.06,1.19,1.45.74.57,1.84.3,1.32,1.42.88-.07.92.48,1.35.96.34.39.86.06.33.97,1.15-.29,1.25,1.77,1.75,2.11.43.3.9-.44.43.98l.7.39-.48.6c1.53-.02.96.99,1.23,1.77.06.17,1.02,1.04,1.15,1.26.55.93.36,2.46.47,3.29.03.25.59.2.69.54.05.17-.15.54-.08.83.61,2.67.87,4.64.97,7.21.03.67.28,1.96-.36,2.02,1.47.88-.6,1.44.47,2.51l-.49.15.2.95c-1.19.53-.31.77-.4,1.39-.03.23-.54.2-.68.5-.06.13.25.97-.11,1.64-.29.53-.81.59-.87.7-.3.55-.34,1.7-1.22,2.5-.3.27-.76.26-.92.4-.22.2-.14.62-.37.83-.4.37-1.49.36-1.62.44-.19.12-.66,1.4-.97.13l-.33-.03c-.39.65-.73.94-1.45,1.2l-.23-.49c-.79.73-1.27.25-1.88.32-.58.07-2.82,2.06-4.35,2.28-1.06.15-.71.22-1,.28-.52.13-1.28-.12-1.86.26l-.37-.49-.36.71-2.47-.9c-.44,0-1.38.06-1.73-.21-.64-.5-.18-1.03-1.19-.56l-.51-1.43-.79.23c-.18-.77-1.03-.54-1.28-.79-.14-.14-.07-.63-.28-.8-.22-.19-.68.16-1.04.1-.46-.09-.98-.83-1.37-1-.35-.15-.82.07-1.42-.29-.4-.23-.64-.76-.99-.94-.3-.15-.74.09-1.04-.13-.41-.3-.3-.79-.44-.9-.26-.23-1.97-.43-2.28-.6-.21-.11-.93-1.15-1.56-1.43-.37-.17-.74-.2-1.14-.18l.24-.72c-.93.45-.6-.09-.9-.23-.85-.39-1.58-.82-2.35-1.45-.51-.42-.03-.97-1.07-.48.37-1.28-.93-1.02-1.4-1.85-.25-.44-.01-1.04-.28-1.5l.96.24-.24-.96.72.24-.48-.72h.72s-.22-1.19-.22-1.19c.63.14,1.54-1.14,1.28-1.71.49-.64,4.04-2.92,4.18-3.15,1.15-1.86,2.89-1.93,4.76-2.76.44-.19.3-1.03,1.5-.32v-.73c1.5.22,3.06-.46,4.67-.35.45.03.92.38,1.19.36.13,0,.11-.44.29-.49.33-.09.95.37,1.3.35.57-.02,1.27-.4,1.77-.35.53.05.88.65,1.32.79,2.26.75,3.23.59,5.37,2.11.25.18,1.1,1.07,1.26,1.13.24.09.55.03.8.04l-.24.72c1.17-.4,1.59,1.37,1.77,2.29.24,1.19-.12,3.31-.79,4.29-.2.28-.66.09-.74.14-.03.02.18.45.17.7-.09,1.77-1.83,1.94-2.31,3.52-1.32-.25-.78.19-1.37.53-.42.24-1.64.73-2.11.69-.67-.06-1.86-.57-1.32-1.36-1.19.26-.45-1.55-1.92-.72l-.02-.7-.7-.15.49-.24c-.01-.45-.65-.62-.23-1.61.28-.66.27-.5.51-1.45.38-1.53,1.14-3.57-1.16-3.93-.55-.09-3.13-.59-3.31-.58-.13,0-.09.39-.31.47-.83.3-1.65.09-1.98.15-.35.07-.99.56-1.33.58-.68.02-1.1-.56-1.79-.47l.19.43c-.58.08-.5.64-.79,1-.18.22-.57.22-.59.25-.07.1.31.44.35.68.07.47.31,1.28.31,1.36,0,.19-.46.39-.55.6-.41.89.96,1.12,1.21,1.68.17.39.03.89.17,1.14.08.15.71.25.98.85.8,1.83,1.26,2.44,2.72,4.1.11.13.05.46.14.55.32.36.79.03.99.09.06.02,1.02.46,1.07.5.11.09,0,.6.42.91s1.14,0,1.68.2c.36.13.35.53.49.54.32.02.64-.25.91-.26.1,0,.09.43.65.56,2.32.54,5.48-.54,7.64-.94.38-.07,1.04.19,1.16.12.1-.06.14-.59.53-.81.58-.34,1.03-.47,1.86-1.01.43-.28,1.11-.3,1.39-.53.55-.47.19-1.92,2.02-1.7-.59-1.1.69-1.27.48-2.4,1.06.48.69-.74.77-1.01.2-.62,1.05-2.04,1.1-2.28.08-.34-.29-2.39-.2-2.47h.72s-.51-1.09-.51-1.09l.51-.47c-.25-.33-.47-.7-.61-1.09-.8-2.23-.83-4.11-2.85-6-.44-.41-.97-1.53-.63-2.14l-.59-.26-.59.48-.02-.69c-.8.22-.93-.41-1.12-.49-1.4-.59-2.11-.89-3.5-1.07-.68-.09-.97-.62-1.03-.63-.37-.05-1.68,0-1.64.48-.6-.96-1.98-.12-2.04-1.2-.85,1.09-1.95-.47-2.08-.49-1.77-.25-2.4-.11-4.31-.62-1.01-.27-1.66.37-2.83.24-.96-.1-1.12-.59-1.19-.57-.23.06-.69.51-1.08.61-.63.16-2.27.58-2.28-.13l-.12.48c-.82.49-1.96-.08-2.48,0-.09.01-1.18.96-1.27.98-.38.08-.7-.14-1.04-.25l-.03.68c-.89-.02-1.46.53-2.12.84-.55.26-2.34.87-2.81,1.2-.69.48-1.41,1.93-2.47,1.85l.25.71c-1.1-.07-.9,1.26-1.92.72.41,1.2-.05.77-.23,1.14-.08.17.08.58-.05.73-.17.21-1.43.28-1.16,1.72l-.47-.24c.29,1.44-.92,2.21-1.24,2.99-.41.99-.36,2.87-.69,3.8-.08.22-.48.16-.48.3,0,.36.44.58.5.97.2,1.49-.35,4.29-.01,5.95.04.18.46.14.49.32.05.31-.18.68-.13.92.18.76.71,2.42,1.32,2.88.18.13,2.14,1.08,2.42,1.18,1.41.51,3.76.49,5.33,1.13.39.16,1.65,1.39,1.77,1.42.74.17,2.45.17,3.18.6.46.27.36,1.23,1.45.93l.23.87.69-.23c.73,1.36,2.4,2.57,3.68,3.36s2.4,1.47,3.64,2.4c1.96,1.46,1.74,1.68,4.38,1.27,1.69-.26,3.47-.91,5.14-1.79.82-.43,1.77-1.45,2.34-1.77.1-.06,1.47-.27,1.91-.48.38-.18.79-.99,1.13-1.05.21-.03.86.47,1.28.58.99.26,1.63.58,2.34.8.4.12.91-.17,1.4,0,.39.12.34.56.45.53.16-.04.38-.35.76-.42.52-.09.63.6,1.14-.48,1.5.75,1.51-.02,2.37-.35.39-.15,1.05-.02,1.37-.3.23-.21.16-.62.31-.78.98-1.02,2.52-2.09,3.24-3.61.3-.63.4-2.15.62-2.82.03-.09.83-1.1.86-1.22.1-.39-.22-1.38.49-1.89l-.48-.23c.54-1.1.7-2.95.87-4.28.1-.74-.49-1.28.34-1.48-.8-.99-.01-.92.13-1.54.1-.43-.8-1.17.1-1.82l-.48-.12v-.47s.49-.15.49-.15c-.62-.89.26-1.81.23-2.36,0-.13-.4-.1-.47-.31-.49-1.42.34-1.38.44-2.09.1-.78-.34-1.65-.41-1.93-.18-.75,1.21-2.39.42-3.57l.48-.25c-.57-.78-.23-1.44-.23-2.17,0-1.38.63-3.72.43-5.23-.12-.85-.78-1.85-.67-2.81l-.24.48h-.48c.27-.99-.68-.7-.91-1.03-.18-.26.22-.85-.77-.66l.14-.73-.85-.25c.12-.51-.06-1.26-.24-1.77-.13-.37-.93-2.6-1.03-2.71s-.46-.07-.63-.21c-.2-.17-.26-.46-.46-.57-.41-.22-1.05.05-1.19-.05-.26-.17-1.21-1.56-1.29-1.61-.16-.11-.6.31-.92.12-.37-.22-.71-1.47-1.81-1.58-.19.38,0,.59-.59.48l-.14-.73c-1.15.31-2.02-.43-2.91-.65-2.22-.55-5.64-1.05-7.81-.76-.6.08-1.63.65-1.72.65-.23,0-.47-.6-.74-.64-.25-.04-.5.34-.73.37-1.96.24-3,.43-4.78.16-.41-.06-.91.56-.81-.31-.4-.1-.1.4-.38.47-1.42.34-1.62-.55-2.25-.83-.7-.32-1.61.08-2.15-.96l.48-.12-.72-.6v-.48s.48-.24.48-.24l-.48-.83.71-.36-.48-.72c.72-.19.2-.84.55-1.62.19-.42.82-.83.83-1.03.01-.34-.13-.24,0-1.14.15-1.05-.13-3.45,1.27-3.3-.71-.86,1.19-2.75,1.84-2.84.39-.06.59.6,1.04.45v-.72c.71.36,2.32-.04,2.4.96Z"/>
      </g>
    </g>
  </g>
</svg>