<?xml version="1.0" encoding="UTF-8"?>
<svg id="Capa_2" data-name="Capa 2" xmlns="http://www.w3.org/2000/svg" viewBox="0 0 80.42 83.49">
  <g id="Capa_1-2" data-name="Capa 1">
    <path d="M37.71.56c-.37-.84.59-.69.3.12.84-1.51.91.34,1.03-.36,1.67.5,6.09-.11,7.69,1.57,2.85-1.7,1,.8,2.5-.45,1.08.24-.67.32-.39.93.45-.05.56-.81,1.02-.24,3.72-.31,3.85.5,4.58,2.62,2.67,1.35,9.6-1.11,9.65,1.19,2,1.11,3.64,7.13,6.17,6.35-.97.71,1.19.91,2.66.6-1.36,1.51,1.79.03.97,1.09.75.25.18.92.67-.36,5.76,7.89,1.47,7.54,3.67,16.42,3.99,8.5,1.93,20.52-1.32,26.94-4.61,9.34-7.42,13.58-16.27,19.53-9.16-.74-6.18-3.36-13-1.32-.25.58-3.32,2.83-2.3,2.78.42.46-1.22,1.85.24.85,7.98,7.95-11.22,2.23-14.76,4.66-1.01-.54-4.42-3.96-4.11-6.72-6.57-6.78-13.11-11.91-21.17-12.7-9.07-.96-4.57-15.81-3.27-21.78,2.66-7.59,9.08-9.93,12.28-17.29,1.5-1.08,1.9-1.25,2.71-1.52,1.26-.87,1.02,1.31,1.71-.06,6.84,9.55,16.51-6.05,24-1.56,17.1-3.54,28,40.67,6.36,40.4-2.84,3.37-12.02,3.72-14.16-.37-4.66-1.49-21.76-11.15-18.63-12.95,5.85-12.27,22.45-16.21,31.95-6.66,4.48,4.55-6.32,17.56-8.84,10.05-5.23.36,3.74-10.29-4.36-7.5,1.77-1.99-5.51.96-6.65,0-1.19,4.02.69,5.99,1.33,6.41,2.39,6.6,8.62,8.57,13.79,7.8,17.59-2.4,14.95-25.84.19-25.58-18.38-6.18-38.02,3.42-32.37,25.64,1.83,2.42,7.64,1.71,10.46,4.35,4.22-.17,7.8,6.21,11.43,6.66,4.15,6.9,12.33-1.43,16.45-2.42,19.58,7.17,15.44-19.77,17.3-30.24-.82-.5,1.49-8.51-.6-10.16-4.54-2.49-1.67-6.66-6.15-7.75-11.22-10.12-31.82,2.67-29.07-9.37,1.22-1.12,1.05-11.65,6.3-9.61Z"/>
  </g>
</svg>