<?xml version="1.0" encoding="UTF-8"?>
<svg id="Capa_2" data-name="Capa 2" xmlns="http://www.w3.org/2000/svg" viewBox="0 0 115.55 124.53">
  <defs>
    <style>
      .cls-1 {
        fill: #fff;
      }
    </style>
  </defs>
  <g id="Capa_1-2" data-name="Capa 1">
    <g>
      <path class="cls-1" d="M113.28,80.26c-.38-.55.15-.9-.18-1.39-1.42-2.18-6.03-2.25-8.37-2.01-1.59.16-3.24,1.52-5.01,1.41.36-.99-.68-1.62-.84-2.24-.15-.58,0-1.18-.21-1.9-.58-2.08-2.36-4.61-2.78-6.54-.43-1.94-.82-4.02-.95-5.95-.11-1.66-2.58-6.79-3.26-8.67-.39-1.09-.39-2.5-.66-3.57-.19-.76-1.58-3.68-1.38-4.16.11-.26.49-.47.53-.69.26-1.31-1.02-3.31-1.46-4.46-.83-2.2-1.59-4.5-2.23-6.74-.08-.28-.74-.97-.93-1.53-.39-1.13-.74-2.61-1.1-3.82-.1-.34.02-.71-.13-1.1-.27-.66-1.35-.83-1.98-.92-.25-.19-.05-.77-.08-.81-.04-.06-.79-.95-.84-1-.39-.36-.87-.21-1.05-1.07-.09-.47.14-.14.3-.13.38.03,1.06.02,1.35.23.34.25.21.65.45.95,1.08,1.3,3.15.81,4.45,1.18.28.08.48.49.77.64.88.48,2.51,1.39,3.48,1.25.41-.28,1.34-.58,1.67-.8.99-.65,2.33-3.12,2.57-4.29.42-2.02-1.12-4.06-3.08-4.5-.69-.15-1.43.04-1.99-.12-.3-.09-.68-.62-1.18-.76-1.57-.45-2.34-.83-3.78-1.32-.71-.24-1.82-.3-2.44-.56-.58-.24-.23-1.11-1.48-.71-.5.17-1.18.84-1.41.9-.38.1-.96-.49-1.46-.33-.09-.32.26-.42.31-.66.45-1.94.75-4.01,1.54-5.85.15-.36,1.3-1.39,1.58-2.12.54-1.45-.49-1.36-1.14-1.84-.71-.53-1.72-1.55-2.5-2.07-1.09-.72-3.99-.66-5.28-.44-1.19.2-2.39,1.05-3.09,2.01-.75,1.04-1.15,2.78-1.81,3.65-.13.17-.18.28-.43.3l-2.28-.9c-.45-.98-.3-2.22-.68-3.2-.11-.28-1.47-2.15-1.7-2.35-.32-.28-2.99-1.2-3.48-1.28-.46-.07-3.01.28-3.52.46-1.55.55-2.26,2.62-3.35,2.99-.3.1-.85-.05-1.02.22-.11.16.09.47.02.71-.21.69-.94,1.53-1.11,2.24-.45,1.82.02,2.86,1.08,4.29,1.51,2.05,3.77,2.83,6.31,2.4.91-.15,1.34-.96,2.31-.83.83.11,1.61.94,2.26,1.27.48.25,1.32.12,1.7.78l-2.09,3.85c-.48.53-2.63,1.66-3.29,1.81-.62.14-1.11.09-1.33.08-1.28-.07-3.42-.07-7.19.19.79-7.99-2.3-14.9-6.79-17.41-2.16-1.21-5.54-1.89-7.87-2.01-1.57-.08-2.6.1-3.48.4-1.21.42-2.01,1.03-2.58,1.47-.24.19-1.82,1.42-2.98,3.36-3.36,5.62-.51,12.79-.15,13.66.38.92.77,1.63,1.02,2.06-2.13-.19-5.39-.72-8.87-2.47-7.8-3.91-9.69-10.42-13.56-9.85C2.45,10.05.35,13.7.04,16.69c-.57,5.56,4.92,10.17,8.97,13.56,6.05,5.08,9.34,4.97,14.46,10.37,2.47,2.6,4.06,5.11,4.98,6.72.16.28.32.57.44.88.87,2.26,2.35,6.73,2.41,9.04,0,.38-.29.53-.31.82-.04.79.29,2.07.31,2.86.02.66-.27,1.25-.17,2.09.26,2.08,1.24,4.72,1.4,7.05.11,1.65.09,1.18.48,2.67.45,1.72.2,2.59.21,4.18,0,2.19.33,5.83.54,8.09.12,1.2.65,2.65.71,3.87.06,1.19-.38,2.4-.38,3.52,0,.83.4,1.4.38,2.29-.05,2.29-1.26,1.9-1.65,3.46-.56,2.25-1,4.47-1.75,6.69-.33.97-.98,1.81-1.27,2.6-.32.88-.3,2.22-.49,3.21-.13.66-.51,1.34-.61,2.03-.31,2.33,1.14,4.59,2.45,6.43,1.16,1.63,2.78,3.4,4.38,4.59.19.14,1.05.68,1.21.73,1.12.34,1.39-.43,2.05-.45.41-.02.6.39,1,.34,1.12-.15,3.52-1.86,4.64-2.42,1.17-.57,2.68-.92,3.74-1.53,2.26-1.3,3.42-2.97,4.94-4.91.29-.37,1.18-1.03,1.31-1.33.26-.59.15-2.07.35-2.82.21-.79,1.28-1.7,1.46-2.59.16-.8-.06-1.67.12-2.52.21-1.01,1.02-1.52,1.34-2.35.76-1.98.19-3.69.59-5.39.17-.73.68-.81.88-1.23.7-1.42-.36-3.12-.27-4.48.02-.39.32-.62.38-1.05.33-2.35-.81-3.37-1.07-5.28-.21-1.57.16-3.57,0-5.19.71.39.84,1.37,1.26,2,.17.26.57.34.65.58.13.37-.04.89.07,1.34.15.61.86.71.66,1.79-.07.34-.45.61-.36,1.03.03.15.39.19.52.39.38.6.09,4.13.02,5.09-.55,6.83-.7,12.06,1.32,18.74.87,2.87,3.65,6.96,6.9,7.35.36.04.72-.17,1.17-.13.57.05,1.05.46,1.77.53,2.62.26,6.41-1.16,7.91-3.36.66-.98,2.23-4.75,2.38-5.88.17-1.25.61-2.92.7-3.89.06-.63-.2-1.48-.17-2.27.12-3.97.51-7.73.36-11.79-.04-.98-.24-2.17-.36-3.16.19-.19.21-.38.44-.09.32.38.6,1.56,1.06,1.94.37.31,2.52.22,3.12.13.77-.11,2.17-1.01,2.51-1.01h3.08v-.88c1.2-.3,2,.6,3.08.7.57.06,2.75-.1,3.3-.22,1.23-.24,3.39-1.92,4.87-2.34.75-.21,1.66-.13,2.34-.3.58-.14,1.16-.68,1.84-.8.72-.12,1.28.01,2.08-.21.95-.26,4.49-2.67,4.75-3.52.53-1.67-1.65-1.95-2.19-2.75ZM88.49,82.95l-4.07,1.56c-.38.32-1.29,2.78-1.44,2.87-.17.1-.47,0-.68.03-.15-.14.13-1.65.11-2-.01-.39-.29-.79-.28-1.24.02-.54.36-1.09.35-1.77-.01-.74-.29-3.26-.49-3.93-1.02-3.47-3.66-5.3-5.75-7.97-2.03-2.58-3.79-5.37-5.91-7.98-3.66-4.5-5.92-7.16-7.82-12.76-1.13-3.33-3.27-9.24-1.23-12.47,1.21-1.92,7.26-4.44,9.39-6.09.97-.75,1.43-1.91,2.4-2.55.53-.05,1.92,1.35,2.17,1.89l-.06.24c-2.83,1.9.63,2.84.88,4.92.06.48-.22.74-.26,1.16-.17,1.67,1.4,4.58,1.93,6.31.38,1.24.67,2.53,1,3.75.34,1.28.07,1.11-.12,2.07-.29,1.47.87,1.02,1.44,1.89.63.96.62,2.03.92,2.95.58,1.77,2.49,3.96,2.54,5.73.01.45-.24.84-.15,1.38.06.38.56.88.75,1.37,1.58,4.17,2.36,8.61,4.48,12.76.21.41.62.62.83,1.1.34.74.21,1.49.53,2.29.2.5.86,1.1.94,1.54.29,1.6-1.55,2.05-2.41,2.98Z"/>
      <path d="M113.28,80.26c-.38-.55.15-.9-.18-1.39-1.42-2.18-6.03-2.25-8.37-2.01-1.59.16-3.24,1.52-5.01,1.41.36-.99-.68-1.62-.84-2.24-.15-.58,0-1.18-.21-1.9-.58-2.08-2.36-4.61-2.78-6.54-.43-1.94-.82-4.02-.95-5.95-.11-1.66-2.58-6.79-3.26-8.67-.39-1.09-.39-2.5-.66-3.57-.19-.76-1.58-3.68-1.38-4.16.11-.26.49-.47.53-.69.26-1.31-1.02-3.31-1.46-4.46-.83-2.2-1.59-4.5-2.23-6.74-.08-.28-.74-.97-.93-1.53-.39-1.13-.74-2.61-1.1-3.82-.1-.34.02-.71-.13-1.1-.27-.66-1.35-.83-1.98-.92-.25-.19-.05-.77-.08-.81-.04-.06-.79-.95-.84-1-.39-.36-.87-.21-1.05-1.07-.09-.47.14-.14.3-.13.38.03,1.06.02,1.35.23.34.25.21.65.45.95,1.08,1.3,3.15.81,4.45,1.18.28.08.48.49.77.64.88.48,2.51,1.39,3.48,1.25.41-.28,1.34-.58,1.67-.8.99-.65,2.33-3.12,2.57-4.29.42-2.02-1.12-4.06-3.08-4.5-.69-.15-1.43.04-1.99-.12-.3-.09-.68-.62-1.18-.76-1.57-.45-2.34-.83-3.78-1.32-.71-.24-1.82-.3-2.44-.56-.58-.24-.23-1.11-1.48-.71-.5.17-1.18.84-1.41.9-.38.1-.96-.49-1.46-.33-.09-.32.26-.42.31-.66.45-1.94.75-4.01,1.54-5.85.15-.36,1.3-1.39,1.58-2.12.54-1.45-.49-1.36-1.14-1.84-.71-.53-1.72-1.55-2.5-2.07-1.09-.72-3.99-.66-5.28-.44-1.19.2-2.39,1.05-3.09,2.01-.75,1.04-1.15,2.78-1.81,3.65-.13.17-.18.28-.43.3l-2.28-.9c-.45-.98-.3-2.22-.68-3.2-.11-.28-1.47-2.15-1.7-2.35-.32-.28-2.99-1.2-3.48-1.28-.46-.07-3.01.28-3.52.46-1.55.55-2.26,2.62-3.35,2.99-.3.1-.85-.05-1.02.22-.11.16.09.47.02.71-.21.69-.94,1.53-1.11,2.24-.45,1.82.02,2.86,1.08,4.29,1.51,2.05,3.77,2.83,6.31,2.4.91-.15,1.34-.96,2.31-.83.83.11,1.61.94,2.26,1.27.48.25,1.32.12,1.7.78l-2.09,3.85c-.48.53-2.63,1.66-3.29,1.81-.62.14-1.11.09-1.33.08-1.28-.07-3.42-.07-7.19.19.79-7.99-2.3-14.9-6.79-17.41-2.16-1.21-5.54-1.89-7.87-2.01-1.57-.08-2.6.1-3.48.4-1.21.42-2.01,1.03-2.58,1.47-.24.19-1.82,1.42-2.98,3.36-3.36,5.62-.51,12.79-.15,13.66.38.92.77,1.63,1.02,2.06-2.13-.19-5.39-.72-8.87-2.47-7.8-3.91-9.69-10.42-13.56-9.85C2.45,10.05.35,13.7.04,16.69c-.57,5.56,4.92,10.17,8.97,13.56,6.05,5.08,9.34,4.97,14.46,10.37,2.47,2.6,4.06,5.11,4.98,6.72.16.28.32.57.44.88.87,2.26,2.35,6.73,2.41,9.04,0,.38-.29.53-.31.82-.04.79.29,2.07.31,2.86.02.66-.27,1.25-.17,2.09.26,2.08,1.24,4.72,1.4,7.05.11,1.65.09,1.18.48,2.67.45,1.72.2,2.59.21,4.18,0,2.19.33,5.83.54,8.09.12,1.2.65,2.65.71,3.87.06,1.19-.38,2.4-.38,3.52,0,.83.4,1.4.38,2.29-.05,2.29-1.26,1.9-1.65,3.46-.56,2.25-1,4.47-1.75,6.69-.33.97-.98,1.81-1.27,2.6-.32.88-.3,2.22-.49,3.21-.13.66-.51,1.34-.61,2.03-.31,2.33,1.14,4.59,2.45,6.43,1.16,1.63,2.78,3.4,4.38,4.59.19.14,1.05.68,1.21.73,1.12.34,1.39-.43,2.05-.45.41-.02.6.39,1,.34,1.12-.15,3.52-1.86,4.64-2.42,1.17-.57,2.68-.92,3.74-1.53,2.26-1.3,3.42-2.97,4.94-4.91.29-.37,1.18-1.03,1.31-1.33.26-.59.15-2.07.35-2.82.21-.79,1.28-1.7,1.46-2.59.16-.8-.06-1.67.12-2.52.21-1.01,1.02-1.52,1.34-2.35.76-1.98.19-3.69.59-5.39.17-.73.68-.81.88-1.23.7-1.42-.36-3.12-.27-4.48.02-.39.32-.62.38-1.05.33-2.35-.81-3.37-1.07-5.28-.21-1.57.16-3.57,0-5.19.71.39.84,1.37,1.26,2,.17.26.57.34.65.58.13.37-.04.89.07,1.34.15.61.86.71.66,1.79-.07.34-.45.61-.36,1.03.03.15.39.19.52.39.38.6.09,4.13.02,5.09-.55,6.83-.7,12.06,1.32,18.74.87,2.87,3.65,6.96,6.9,7.35.36.04.72-.17,1.17-.13.57.05,1.05.46,1.77.53,2.62.26,6.41-1.16,7.91-3.36.66-.98,2.23-4.75,2.38-5.88.17-1.25.61-2.92.7-3.89.06-.63-.2-1.48-.17-2.27.12-3.97.51-7.73.36-11.79-.04-.98-.24-2.17-.36-3.16.19-.19.21-.38.44-.09.32.38.6,1.56,1.06,1.94.37.31,2.52.22,3.12.13.77-.11,2.17-1.01,2.51-1.01h3.08v-.88c1.2-.3,2,.6,3.08.7.57.06,2.75-.1,3.3-.22,1.23-.24,3.39-1.92,4.87-2.34.75-.21,1.66-.13,2.34-.3.58-.14,1.16-.68,1.84-.8.72-.12,1.28.01,2.08-.21.95-.26,4.49-2.67,4.75-3.52.53-1.67-1.65-1.95-2.19-2.75ZM88.49,82.95l-4.07,1.56c-.38.32-1.29,2.78-1.44,2.87-.17.1-.47,0-.68.03-.15-.14.13-1.65.11-2-.01-.39-.29-.79-.28-1.24.02-.54.36-1.09.35-1.77-.01-.74-.29-3.26-.49-3.93-1.02-3.47-3.66-5.3-5.75-7.97-2.03-2.58-3.79-5.37-5.91-7.98-3.66-4.5-5.92-7.16-7.82-12.76-1.13-3.33-3.27-9.24-1.23-12.47,1.21-1.92,7.26-4.44,9.39-6.09.97-.75,1.43-1.91,2.4-2.55.53-.05,1.92,1.35,2.17,1.89l-.06.24c-2.83,1.9.63,2.84.88,4.92.06.48-.22.74-.26,1.16-.17,1.67,1.4,4.58,1.93,6.31.38,1.24.67,2.53,1,3.75.34,1.28.07,1.11-.12,2.07-.29,1.47.87,1.02,1.44,1.89.63.96.62,2.03.92,2.95.58,1.77,2.49,3.96,2.54,5.73.01.45-.24.84-.15,1.38.06.38.56.88.75,1.37,1.58,4.17,2.36,8.61,4.48,12.76.21.41.62.62.83,1.1.34.74.21,1.49.53,2.29.2.5.86,1.1.94,1.54.29,1.6-1.55,2.05-2.41,2.98Z"/>
    </g>
  </g>
</svg>