<?xml version="1.0" encoding="UTF-8"?>
<svg id="Capa_2" data-name="Capa 2" xmlns="http://www.w3.org/2000/svg" viewBox="0 0 123.31 126.13">
  <g id="Capa_1-2" data-name="Capa 1">
    <path d="M65.16,29.33c.26.3,2.25.93,2.68.94.77.02.85-.36,1.36-.57,2.85-1.17,6.19-3.16,8.45-5.18.88-.79,2.21-2.04,3.28-2.44,1.63-.59,3.34-.7,4.91-1.77.34-.23.67-.81,1.02-.92.29-.09,2.25-.38,2.55-.35,2.31.19,2.64,1.8,2.77,3.75.34,4.85-1.85,11.63-3.47,16.22-1.19,3.37-2.58,7.25-4.46,10.31-.77,1.25-2.02,2.47-2.59,3.92-.25.64.01,1.02-.37,1.58-.02.19.62,1.45.76,1.61.27.3,2.56,1.41,3.02,1.46,1.5.17,4.17-.44,5.72-.78.82-.18,1.83-.74,2.57-.79.62-.04,1.01.29,1.6.04,1.77-.77,2.1-3.38,3.01-4.91.38-.65,3-3.38,3.55-3.66.21-.1,1.08-.28,1.3-.27.53.04.99.78,1.46-.09-.2-.36-.32-.61-.31-1.05.03-1.21,1-5.13.62-5.9-.23-.46-2.64-1.6-3.24-2.03-2.93-2.1-6.4-7.34-6.16-11.05.06-.92,2.05-4.74,2.66-5.62,3.49-5.02,8.01-6.59,14.13-6.1,2.78.22,7.39,2.38,8.95,4.76.36.55,2.27,5.46,2.37,6.07.21,1.29-.69,5.04-1.16,6.38-.61,1.71-2.48,4.38-4.09,5.23-1.58.83-3.66.84-4.04,3-.24,1.41-.39,3.52.15,4.81-1.06.21-.52,1.83-1.57,1.95v.26c.6.44,1.18.93,1.67,1.49.23.26,1.69,2.14,1.75,2.3.48,1.43-.3,4.51-1.01,5.84-.4.74-1.58,1.96-2.25,2.5-.63.51-2.42,1.36-2.78,1.79-.6.74-.04,1.04-.01,1.74.06,1.97-.47,2.29-1.49,3.61-.22.29-.33.84-.49,1-.42.41-1.46.21-2.14,1.11-1.61,2.11-2.95,6.75-.72,8.79.15.14,2.23,1.46,2.37,1.5.9.26,1.36-.02,2.35.64,2.39,1.59,4.42,4.31,4.51,7.28.05,1.56-.86,4.74-.08,6.05.06.11,1.34,1,1.43,1.03.66.19,2.69-.2,2.87.83.13.72-.96,2.87-1.71,3.04-.56.13-2.87.12-3.47.03-1.66-.26-3.25-2.03-3.54-3.67-.29-1.63.35-3.66.27-5.37-.12-2.6-1.79-5.56-4.34-6.38-.31-.1-.73,0-1.11-.12-2.09-.63-4.87-3.39-5.09-5.63-.15-1.49.74-4.14,1.27-5.59.31-.84.81-1.68,1.18-2.5-.31-.86-1.02-1.37-1.18-2.33-.22-1.32.42-2.47-.04-3.74-.19-.14-1.21.85-1.57.97-2.32.78-4.53.7-6.91,1-4.14.52-6.23,1.14-10.54.26-.86-.18-4.36-1.35-4.95-1.17-.43.13-.34,1.77-.29,2.19.51,4.68,3.31,10.41,5.01,14.86,1.17,3.06,3.61,8.14,4.08,11.22.32,2.07.48,3.07-1.48,4.23-.9.53-1.88.85-2.94.72-1.32-.16-4.96-2.01-6.2-2.76-.27-.17-2.19-1.79-2.34-1.62-.14,1.7.54,3.29.83,4.89.46,2.55.84,7.3,2.26,9.35.57.82.99.76,1.93.72,1.84-.07,2.97-1.11,5.07-.87.96.11,3.08,1.02,3.54,1.91,1.39,2.7-.47,5.19-2.67,6.66-.59.39-3.86,2.16-4.4,2.28-1.88.41-6.19.65-8.06.4-1.55-.21-3.32-3.17-3.65-4.62-.31-1.37-.41-2.93-.77-4.33-.31-1.21-.94-2.42-1.21-3.54-.65-2.64-.44-5.96-1-8.68-.15-.72-.61-1.74-.8-2.55-.61-2.75-1.19-5.53-1.94-8.26-.52-1.08-6.21-4.15-7.58-5.08-1.27-.86-4.03-3.66-5.54-3.42-.92.15-3.49,3.52-4.67,3.96-1.56,2.02-4.39,3.75-5.31,6.12-1.07,2.75-1.3,5.44-2.11,8.09-1.13,3.7-2.98,7.56-3.45,11.5-.09.74.06,1.49-.06,2.23-.11.68-.61,1.39-.79,2.2-.32,1.52-.81,3.34,1.09,3.56,2.31.26,5.32-.59,7.04,1.57,1.73,2.17.33,5.05-1.24,6.87-.43.5-1.87,1.64-2.47,1.75-1.91.36-5.01.11-6.99-.22-.55-.09-1.09-.5-1.66-.62-1.58-.34-2.67.18-3.47-1.8-.73-1.79-.14-4.09-.09-6.07.07-2.51.37-4.31.96-6.78.71-2.95,1.4-6.09,1.98-9.1.24-1.27.26-2.64.57-3.91-1.73,1.66-3.26,3.18-5.88,3-.26-.02-2.05-.47-2.25-.57-.47-.24-.93-1.39-1.09-1.89-1.67-5.05-.77-10.48-.09-15.57.44-3.27.8-7.14,1.63-10.33.24-.93,1.11-1.82.84-2.94-.81.62-1.07,1.67-1.68,2.45-.97,1.23-2.08,2.25-3.03,3.66-2.11,3.13-3.34,5.28-2.63,9.25.18,1.04,1.22,1.74,1.2,3.03-.06,3.81-2.53,8.13-6.79,8.01-3.41-.09-5.22-2.18-5.14-5.55.04-1.63,1.09-2.39,1.33-3.56.41-2,1.05-3.85,1.49-5.9.86-4.03,1.54-7.48,3.8-11.15,2.27-3.7,5.45-5.77,8.47-8.58,1.07-1,1.77-2.41,3.33-3l-4.91-3.18c-4.11-3.3-8.64-5.49-12.67-8.96-1.35-1.16-2.52-3.01-3.77-4.32-.79-2.77,1.54-4.23,3.25-5.88,4.6-.47,8.34-3.62,12.92-3.96,1.47-.11,3.06.14,4.52-.05,3.06-.39,7-1.95,10.18-2.65,1.91-.42,3.84-.72,5.74-1.03.04-.34.03-.64.16-.98,1.03-2.6,2.82-5.36,4.03-7.93,1.87-3.98,3.4-8.52,5.4-12.36.58-1.12,2.68-4.65,3.43-5.49,1.16-1.3,3.05-1.41,4.19-.02,2.45,2.99,2.58,7.21,5.26,10.04,1.28,4.37,3.19,8.56,4.49,12.92.29.98.95,4.84,1.41,5.37Z"/>
  </g>
</svg>