<?xml version="1.0" encoding="UTF-8"?>
<svg id="Capa_2" data-name="Capa 2" xmlns="http://www.w3.org/2000/svg" viewBox="0 0 138.62 141.64">
  <defs>
    <style>
      .cls-1 {
        fill: #fff;
      }
    </style>
  </defs>
  <g id="STICKERS">
    <g id="_04_copia" data-name="04 copia">
      <g>
        <path class="cls-1" d="M137.83,29.88c-.14-.55-.33-1.04-.54-1.47-.07-.25-.13-.47-.19-.64-.33-.98-1.58-3.43-1.6-3.46-.23-.43-.49-.82-.75-1.16-.39-.73-.91-1.4-1.53-2-.45-.42-.94-.79-1.46-1.1-.75-.64-1.61-1.14-2.53-1.47-1.57-1.01-3.08-1.41-4.07-1.62-1.01-.64-2.69-1.47-4.92-1.47-.27,0-.58.02-.93.06-.7-.19-1.52-.34-2.45-.34-.21,0-.49.01-.69.03-.83.06-1.57.24-2.21.46-1.08.01-2.11.18-3.08.5-1.41.15-2.94.68-4.26,1.74-.13.07-.26.14-.39.22-.74.3-1.43.71-2.06,1.23-.55.46-1,.92-1.37,1.33-.69-.41-1.5-.77-2.44-1.02-1.41-.72-2.75-.91-3.81-.91-.59,0-1.3.08-2.08.3-1.29.09-2.52.43-3.65,1.03-.52.28-.98.59-1.38.91-.3.12-.59.27-.87.43-1.11.12-2.17.47-3.11,1-.76.24-1.48.57-2.15,1.01-1.23.79-3.05,2.56-4.01,3.53-.11.06-.21.12-.32.18-.29.11-.58.24-.86.39-.13-.9-.44-2.15-1.22-3.5-.1-.3-.2-.58-.32-.85-.08-.52-.21-1.04-.4-1.55-.23-.62-.5-1.14-.8-1.64-.12-.54-.27-1.01-.42-1.41-.08-1.01-.36-2.01-.83-2.95-.24-.47-.52-.91-.84-1.31-.07-.2-.14-.37-.21-.52-.28-.62-.63-1.2-1.05-1.72-.1-.36-.24-.72-.4-1.08-.1-.22-.21-.44-.33-.65-.21-.68-.5-1.33-.87-1.93-.21-.55-.45-1.04-.72-1.5-.03-.07-.84-1.73-.84-1.73-.62-1.26-1.54-2.31-2.65-3.07-1.49-1.4-3.45-2.16-5.47-2.16-.41,0-.82.03-1.23.09-.14,0-.29-.01-.42-.01-3.65,0-5.94,1.89-7.08,3.09-.76.54-1.42,1.21-1.96,2.01-.33.48-.6.98-.81,1.51-.2.38-.38.8-.53,1.24-.26.28-.48.56-.67.84-.53.6-.97,1.29-1.3,2.05-.05.11-.09.21-.13.32-.08.09-.15.18-.22.28-.82,1.11-1.33,2.4-1.5,3.73-.2.41-.4.88-.57,1.41-.22.7-.44,1.44-.63,2.18-.08.13-.15.26-.22.39-.49.68-.87,1.42-1.13,2.21-.22.38-.42.82-.59,1.31-.04.09-.07.18-.09.27-.15.2-.3.41-.44.63-.44.71-1.56,2.92-2.39,4.7-.66.22-1.28.52-1.85.9-.42.1-1.2.27-1.2.27-.13.03-.27.06-.39.1h-.19c-1.06,0-2.09.18-3.06.55-.29.11-.57.23-.83.36-.06.02-.11.03-.16.05h-.17c-1.15,0-2.29.24-3.34.73-.19.01-.37.03-.55.05-.59.01-1.16.09-1.72.22-.07,0-.14-.01-.21-.01-.1,0-.27-.01-.37-.01-1.59,0-5.38.51-7.08,1.04-.02,0-1.76.54-3.44,1.36-.57.15-1.13.36-1.66.63-.3.15-.57.31-.82.48-.43.1-.89.21-1.18.27-1.62.37-2.79.64-4.12,1.57-.71.49-1.53,1.23-2.22,2.29-1.59,1.27-3.27,3.23-4.01,6.83-.82,3.94.23,7.23,3.13,9.77.89,1.12,3.89,4.71,6.76,6.36.7.78,1.54,1.41,2.46,1.85.67.59,1.43,1.06,2.25,1.4.28.29.57.56.89.81.12.1.24.19.37.27-.29.3-.56.61-.82.92-.24.17-.48.34-.71.53-.5.42-.94.88-1.31,1.39-.52.41-.98.89-1.38,1.43-.39.52-.8,1.19-1.11,2.02-.22.33-.44.69-.65,1.11-.14.29-.26.58-.38.89-1.23,1.46-1.74,3.07-2,4.48-.31.63-.55,1.3-.7,2-.06.3-.1.59-.13.87-.43.92-.68,1.92-.74,2.95-.04.13-.08.26-.12.39-.25.86-.34,1.64-.44,2.54-.02.19-.04.39-.06.56-.41,1.66-.78,2.74-1.03,3.39-.09.21-.23.47-.34.69-.39.77-.73,1.45-.94,2.46-.2.89-.24,1.69-.23,2.28-.35,1.53-.25,3.14.32,4.63.23.6.52,1.16.88,1.68.66,1.88,1.97,3.98,4.64,5.58.46.27.94.5,1.44.68,1.07.57,2.27.89,3.49.93.59.14,1.2.23,1.82.24h.6c1.06,0,2.09-.2,3.04-.59.23-.05.46-.11.69-.18,1.43,2.38,3.44,4.03,5.84,4.85-.02.06-.03.12-.05.18-.13.56-.27,1.12-.38,1.68-.05.2-.08.36-.1.5-.24.77-.33,1.42-.39,1.82-.03.11-.05.21-.07.32-.56,1.53-.64,3.16-.26,4.88h0c-.11.89-.25,1.97-.29,3.18-.1,3.21-.16,4.99,1.21,7.17,1.38,3.31,4.35,5.42,7.77,5.48.12.03.25.05.37.07.82.47,1.86.86,3.11,1,.29.03.58.05.87.05.73,0,1.37-.1,1.89-.22.24.01.46.03.68.04.7.21,1.58.38,2.61.38,1.23,0,2.45-.26,3.58-.75,1.78-.41,3.44-1.25,4.8-2.48.61-.56,1.09-1.14,1.46-1.67.45-.38.86-.81,1.22-1.29.37-.49.68-1.01.92-1.56.12-.19.23-.37.34-.57.77-1.43,1-2.8,1.11-3.69.84-2.33.55-4.92-.77-7.01-.84-2.18-2.09-3.57-3.4-4.47-.38-.36-.8-.7-1.25-.99-.69-.44-1.43-.76-2.2-.98-.02-.24-.05-.48-.09-.7.02-.08.03-.16.05-.24.39-.65.77-1.48,1.02-2.47.08-.32.14-.65.18-.97.61-1.6,1.19-3.53,1.58-5.28.92-1.38,1.39-3.01,1.35-4.66.07-.35.15-.75.19-1.2.01-.07.02-.15.02-.22.03-.07.06-.15.08-.22.34-.45.6-.86.82-1.19.21-.33.33-.52.41-.61.09-.1.17-.19.25-.29.52-.35,1-.76,1.42-1.22.34-.32.65-.65.92-1.01.21-.2.42-.41.61-.63.75.77,1.53,1.34,2.3,1.75.41.29.84.54,1.28.75.36.28.71.52,1.07.73.11.1.22.2.33.29.14.51.31.95.47,1.34.02,1.06.27,2.12.71,3.09,0,.77.12,1.52.34,2.24.11.74.33,1.46.64,2.14.02.62.1,1.32.3,2.06.05.32.12.65.21.97,0,.17,0,.34,0,.51.01.67.03,1.52.16,2.48.31,2.23.99,3.9,1.49,5.12-.1,1.24.1,2.47.55,3.6.06.64.19,1.34.43,2.08.79,2.35,3.5,6,5.16,7.34,1.88,1.51,3.88,1.92,4.98,2.08.88.32,1.8.48,2.73.48.62,0,1.25-.07,1.86-.22h.33c1.55,0,2.81-.28,3.73-.52.11.01.22.01.33.01,1.11,0,2.24-.24,3.26-.69.74-.16,1.46-.43,2.13-.8.97-.38,1.84-.93,2.57-1.61,1.63-.81,2.85-1.69,3.63-2.59.61-.7,1.02-1.41,1.3-2.01,1.41-1.67,2.14-3.57,2.33-6.03.25-3.09-1.43-7.58-4.37-10.01.42-.33.85-.72,1.26-1.2,2.59-3.01,2.28-7.56,2.19-8.46-.1-.99-.36-1.85-.66-2.57-.06-.7-.19-1.47-.45-2.29-.58-1.87-1.44-3.6-2.13-4.99-.34-.69-.72-1.46-.86-1.86l-.03-.07c-.23-1-.53-1.78-.94-2.55-.21-1.02-.43-1.91-.8-2.77-.11-.54-.28-1.07-.5-1.59.75-.02,1.48-.11,2.19-.25h.1c.42,0,.88-.04,1.3-.1.49-.08.95-.2,1.36-.34-.03.11-.05.21-.08.32-.11.51-.21,1.19-.19,1.98-.32,1.07-.42,2.22-.26,3.38.17,1.24.63,2.4,1.31,3.4.21.47.45.87.68,1.21.14.2.28.39.42.57.23.46.5.9.82,1.32.32.43.69.82,1.09,1.18.06.06.12.12.17.19.56.59,1.2,1.08,1.88,1.47.07.06.14.11.21.17,1.28.95,2.61,1.64,3.97,2.06.03.11.07.22.11.34-.1.73-.18,1.66-.11,2.7-.08.54-.09,1.1-.06,1.65-.1,1.95.52,3.85,1.71,5.35.19.41.41.81.68,1.18.47.68,1.04,1.27,1.67,1.76.67.79,1.46,1.45,2.37,1.96.96.55,2.01.88,3.07,1,.57.18,1.16.29,1.77.36.27.02.53.04.8.04.91,0,1.8-.16,2.64-.45,2.42-.23,4.61-1.15,6.25-2.67,1.37-1.26,2.27-2.86,2.68-4.78,1.07-2.79.5-6.02-1.61-8.29-.67-.72-1.38-1.28-2.08-1.71.18-5.44-1.98-10.24-6.16-13.59-.34-.39-.72-.75-1.14-1.08-.32-.25-.66-.47-1.02-.67.52-.59.93-1.25,1.25-1.95.1-.13.2-.25.3-.39.99-1.37,1.46-2.7,1.71-3.41.25-.41.45-.85.61-1.3.86-.52,1.62-1.2,2.24-2.02.25-.32.46-.66.65-1.02,1.12-1.25,1.9-2.64,2.25-3.81.02-.05,1.63-5.56.87-8.97-.21-.94-.54-1.7-.84-2.27-.21-.66-.49-1.28-.86-1.87.03-.43.04-.95-.03-1.54.45-.23.89-.51,1.34-.85.38-.3.85-.72,1.32-1.28.57-.37,1.11-.78,1.65-1.34,2.32-2.42,3.4-6.57,3.84-8.91.28-.5.51-1.04.69-1.61.31-1.05.52-2.45.21-4.07.1-1.71-.41-3.83-.64-4.67Z"/>
        <path d="M60.76,8l-.24.72,1.17.03.75,1.53-.48.36c1.34-.13.84,1.38,1.68,2.04l-.48.24.5,1.31.7.14c-.52.91.86,1.48.59,2.76h.84c.27.61.6,2.14,1.21,2.16l-.48.71c.81,0,.62.68.86,1.19.64,1.37.15.51.18,1.33,0,.18.99,1.55,1.13,1.93l-.48.23c.26.41.96,1.43,1.08,1.82.26.87-.33.2.45,1.21s.36,1.41.69,2.44c.53,1.65,1.12,3.35,1.49,5.12.03.17-.18.53-.11.58h.72s-.48.96-.48.96l.67.05c-.29,1.03,3.25,1.83,3.41,1.63v-.72s.6.48.6.48c.47-1.34,1.36-.84,1.89-1.21.77-.54,1.51-1.08,2.57-1.52.31-.13.61-.16.94-.14l-.24-.72.7.23c.1-1.24,1.28-.75,1.66-.99.1-.06.18-.62.42-.9.51-.58,2.49-2.46,2.98-2.77.44-.28,1.17-.07,1.68-.12l.12-.66,1.69.14.22-.41.58.2.63-.95.24.48c.48-.3,1.39-1.48,1.75-1.67.52-.27,1.03-.04,1.55-.07.18-.01.4-.34.54-.34.2,0,.44.39.67.46.53.15,1.29,0,1.7.66.1.16.72,3.35.75,3.72.02.24-.6.46.11,1.08h-.72s.48.6.48.6l-.72.36.46.34c-.43.66-.09,1.49-.22,2.14-.03.16-.39.17-.39.21-.4,1.72-.13,2.98-1.07,4.8-.69,1.34-1.35,4.13-2.07,5.76-.04.09.15,1.52-.07,1.87l-.72-.24.21,1.3-.92.39v1.99s-.7.18-.7.18c-.12.94-.25,2.72-1.48,2.62l.45.6-3.31,4.83c-.46,2.04-.73,4.15,1.92,4.28l.23.86.57-.24c1.01,1.27,3.34-.04,4.95.47l-.24-.72c.51.12,1.46.27,1.93.14s.42-.5.52-.56c.07-.05.32.17.38.13.16-.11.3-.99.76-.66.04.03-.07.39.12.43.88.2,2.21-1.09,3.23-.44l.58-1.62c1.39-.99.97-3.07,2.41-4.06.2-.14.58-.04.63-.09.07-.07-.2-.49-.11-.72.18-.47,1.63-1.81,2.27-1.19l-.24-.96,2.88.24c-.39-.87.31-2.04.36-2.89.02-.43-.31-.99-.23-1.47.07-.44.53-.4.55-.56.04-.29-.09-1.3-.43-1.45l.49-.24-.06-.42c-.29-.27-.79-1.44-.98-1.55-.8-.49-2.28-1.2-3.07-1.85-.42-.34-.64-.97-.96-1.2s-.96-.23-1.13-.43c-.08-.09-1.27-1.82-1.33-1.93-.32-.56-.15-1.38-.28-1.61-.47-.8-.36,0-.88-1.53-.13-.37-.66-.31-.68-.54-.02-.14.22-.43.17-.65-.08-.35-.38-.61-.39-.99-.02-.65.52-2.77.94-2.89l-.49-.84.72.24c-.44-.94.06-.56.23-.91.32-.67.8-1.82,1.22-2.52.16-.27.89-.64.91-.69.05-.16-.28-.52-.19-.66.03-.05.75-.28,1-.51.74-.66,1.18-1.51,1.91-2.12,1.43.48.67-.15.95-.46.14-.16.71-.1,1-.28.5-.32.12-1.15,1.12-.26l.04-.44c.91.38.51-.15,1.02-.32.74-.25,1.81.14,2.36,0,.36-.09.6-.54,1.01-.58.58-.04,1.2.43,1.73.55.37.08.88-.55.81.31,1.07-1.32,1.71-.02,2.66.34,1.06.41,2.23.28,3.23,1.1.52.43.06.97,1.32.59l.47,1.09.71-.25c-.22.75.6.88.74,1.13.13.23,1.03,2.12,1.07,2.24.09.26-.31.41-.25.71.1.43.78.73.83.9.06.22.4,1.99.39,2.1-.03.24-.42.42-.35.91.05.39.62.83.45,1.38h-.72c.76.74.08.75.01,1.33-.14,1.27-1,4.98-1.92,5.95-.21.21-1.74,1.05-1.87,1.19-.11.12.04.44-.23.65-.42.33-1.99.47-2.63.81-.07.04-1.13.89-1.2.96-1.23,1.24-.82,2.73-.94,4.26-.03.35-.35.74-.35,1.03,0,.07.81.54.73,1.1l-.94.27.22,1.17-.72.12c.14,1.11.76,1.03,1.13,1.39.2.19.92,1.71.79,2.09l.72-.24c-.07.61.58,1.2.68,1.63.17.75-.46,4.08-.72,4.92-.1.34-1.33,1.84-1.88,1.61l.25.72c-.24-.01-.5,0-.71.14-.24.17-.73.72-1,.91-.96.68-3.73,1.96-1.66,3.04-.62.89-.66,1.89-1.3,2.78-.43.6-1.36.72-1.1,1.78l-.43-.19c-.2,1.04-1.67.97-2.07,1.39-.16.16-.95,2.7-1.12,3.17-.29.83-.27.49-.36,1.66-.04.46-.36,1.32-.34,1.52.02.21.5.18.65.48.08.17-.13.74-.05.97.13.4.72.71.62,1.31h1.18c-.22.41-.28.69.12.97l.23-.48c.87.28,1.19.7,1.69,1.42l.48-.45.52.74,1.04-.26v.73s.43-.18.43-.18c3.15,2.16,4.24,5.32,3.61,9.11-.1.59-.68,1.17-.68,1.5,0,.19.38.08.44.23s-.09.73.07,1.13c.14.35,1.14,1.28,1.21,1.86.89-.43.58.16.86.24.76.24,1.78.11,2.48.87-.46.63-.13,1.29-.64,1.75-.76.7-2.58.77-3.46.27v.72c-.92-.09-.7-1.01-1.68-.34-.78-.45-.43-1.58-1.44-1.34l.48-.71-1.44-.84.48-.12-.49-.84.5-.24c-1.1-1.57.17-3.7-.19-5.33-.14-.63-.48-.56-.53-.73-.24-.88.1-2.88-1.22-2.71l.24-1.06-.23-.26c-1.05.25-1.03-.32-1.53-.76-.23-.19-.85.15-.63-.8-1.3.53-2.44.08-3.49-.71-.35-.27-.26-.95-1.07-.73l.24-.72h-.96c.32-1.15-.59-.97-.99-1.55-.34-.5.36-.83-.69-1.21l.65-.46c-.26-.5,0-.96-.02-1.42,0-.19-.36-.37-.3-.65.15-.68,1.45-2.13,1.1-3.35l.48.24c-.28-1.12.83-1.57.52-2.6l.44-.28c-1.14-.06-.36-.85-.59-1.21-.11-.17-.51-.12-.61-.41-.3-.89.19-2.89.22-3.88-1.15-1.05-1.72.35-2.07.44-.4.11-5.2.75-5.47.69-.17-.04.01-.83-.9-.19-.15.11-.16.45-.34.48-.49.07-1.53-.3-2.08-.16-.49.12-.82.57-1.04.61-.32.05-.52-.44-.92-.46-.14,0-.07.4-.29.48-1.72.61-3.72-.1-5.47-.18-.34-.02-.71.26-1.08.19l.24-.72c-.97.27-1.53-.27-2.27-.45-.16-.04-.48.19-.7.15-.5-.09-.65-.99-2.13-.42-.32.12-.93,1.89-.91,2.29.02.47.75,2.41.92,3.17.4,1.83.52,2.72,1.39,4.61.37.79,1.27,1.52.83,2.66l.71.12c-.73,1.14.16.98.44,1.48s.58,2.62.66,2.73c.92,1.32.44.83.99,2.34.68,1.86,2.17,4.25,2.87,6.49.3.95-.09,1.48-.03,1.71.1.43.77,1.06.82,1.58.04.36-.11,2.21-.3,2.44-.28.33-.94.4-1.29.63-.2.13-.23.58-.56.76-1.38.74-3.2-.15-4.5-.7-.16-.07-.22-.68-1.27-.24l-.23-.86-.72.48.24-.72c-2.11.09-2.49-2.55-4.8-1.68.67.75.09,1.27.11,1.69.06.9.82,1.5.84,1.6.17.81.19,2.45.31,3.36s.35,1.75.63,2.42c.25.59.19,1.02-.22,1.49.93,0,.43,1.16.61,1.67.33.96,1.8,1.44,1.31,2.9.57-.3.9.23,1.07-.48.64.69,1.46.13,2.28.48l-.24-.72c.81.83,1.4-.09,2.29-.22.62-.09,3.28.38,3.78.69.64.4,1.61,2.41,1.55,3.24-.13,1.62-.54,1.41-1.23,2.35-.24.33-.28.85-.47,1.08-.08.09-1.86,1.01-2.08,1.11-.42.18-1.02-.38-.96.88l-.36-.48-.63.94c-1.39-.61-1.12.25-1.45.47-.13.09-.49-.18-.76-.14-1.53.27-2.62.91-4.3.58-.41-.08-.76-.25-1.14-.42l-.13.73c-.79-.49-1.98-.22-2.69-.8-.61-.49-2.35-2.92-2.59-3.65-.31-.94.72-1.83-.6-2.52l.72-.12c-.76-.57-.48-1.31-.64-1.81-.57-1.76-1.35-3.01-1.62-4.92-.18-1.27.06-2.79-.39-4.07l.49-.37c-.17.02-.37-.03-.47-.17-.76-1,.68-.7.23-1.27-.03-.04-.33.05-.41-.04s-.22-2.02-.07-2.36h-.72s.25-.83.25-.83l-.5-.25v-.48s.49-.23.49-.23c-.76-.75-.65-1.77-.72-2.77l-.48.24c.56-1.32-.52-2.22-.79-3.41-.21-.89.49-2.25-.89-2.11l.48-.36c-.54-.57-.31-1.01-1.21-.7l-.24-.86-.72.14-.46-1.01c-1.61.48-1.21-1.32-2.63-1.08l-.02-.69c-1.11.54-1.13-.26-1.8-.72-.8-.55-1.61-1.39-2.27-1.31l-2.82-2.28c-1.02-.22-1.25.29-1.97.58-.17.07-.51-.13-.73.02-.19.12-.86,1.24-1.22,1.63-.24.26-.38.36-.64.64-.45.49-.8.9-1.52.73.44.86-.35,1.4-1.2.96l.24.96-.72-.24.24.72c-.99-.14-1.17.96-1.67,1.52-.96,1.05-1.33,1.97-2.05,2.82-.18.22-.55-.09-.79.38s-.26.95-.04,1.41l-.72.13c-.09.44.4.15.48.24.07.08-.39.56-.42.86s.21.65.18.93c-.09.83-.55,1.4-.24,2.28l-.72-.24c.3.48-.12.83-.13,1.08-.05,1.39-1.28,5.78-2.04,7.15-.13.23-.77.13-.47.65.03.05.65-.55.48.12-.12.5-.54.63-.67,1.01-.32.9-.72,3.24-.74,4.23,0,.26.22.55.21.74,0,.1-1.26.29,0,.73-.5.66-.32,1.35-1.2,1.69l.48.24c-.28.29-.59.62-.68,1.02-.14.63.13,2.21.67,2.58.28.19.82.07,1.2.24.31.14.55.73.84.76.21.02,1.57-.37,2.18-.36.76,0,1.55.37,2.37.18l.15.71c1.67-.22,1.14,1.48,2.07,2.3-.48.67-.29,1.97-.63,2.61-.25.47-.87-.46-.59,1.13-1.09.12-.96,1.18-1.66,1.82-.78.7-1.82.82-2.8.57l.24.48c-.67.38-1.16-.2-1.54-.21-1.14-.04-1.49-.03-2.7-.18-.62-.08-1.33.32-1.4.31-.23-.03-.62-.64-1.02-.83-.77-.37-1.16.02-1.57-.09-.34-.09-.59-.63-.77-.63-.27,0-.98,1.15-1.45-.29-.34-1.04-.18-.44-.54-1-.08-.12,0-2.29,0-2.73.04-1.4.35-2.93.41-4.07.03-.55-1.06-1.7.49-2.05l-.5-.58c.13-.44.14-.97.28-1.39.23-.71.12-.45.27-1.2.34-1.65.89-3.3.91-4.98l.48.48c-.17-1.11,0-2.31.72-3.24l-.48-.24c.55-.27.2-.74.3-1.01.53-1.45.18-.5.24-1.59.03-.5.94-1.55-.06-1.72l.48-.6h-1.67c.34.45-1.71,1.91-1.86,1.92-.28.02-.62-.22-.88-.17-1.84.32-3.38.69-4.57-1.3l-1.29-5.4.68-.48c-.34-1.51-.76-2.71-.48-4.26.09-.47.77-2.46.83-3.16.08-.95-.17-2.14-.13-3.11l.74-.13c.12-.11-.44-1.31-.43-1.61,0-.51.59-.66.61-.9,0-.11-.33-.38-.35-.67-.09-1.27.6-1.58.87-2.71l-.47-.23c.21-1.44,1.18-3.03.73-4.43l.72.24c-.37-.82.08-1.16.24-1.92l-1.15.05c0,.99-.57,1.02-.97,1.53-1.81,2.31-4.75,5.11-5.81,8.6-.36,1.19-.03,2.31-.67,3.39.88.52.86,1.72,1.44,2.79.11.2.46.21.46.34.02.44-.55,1.02-.49,1.54l.72.12c-1.16.55-.41.52-.46,1.18-1.06.31-.17,1.24-.29,1.69-.03.13-1.43,1.55-1.4,2.19-1.27.47-2.48,2.66-3.85,1.54l-.37.72h-.47c-.34-.59-.61-.81-1.3-.94l-.39.69-.96-.95-.12.48c-1.24-.74-1.39-1.67-1.43-2.99l-.73-.25c.41-.74.09-1.66.24-2.35.02-.1.68-1.33.88-1.85.52-1.32,1.01-2.95,1.45-4.75.13-.56.24-2.13.35-2.52.18-.62.68-1.34.91-1.99l-.48-.23c1.32-.91.54-1.75.71-2.6.04-.17.44-.14.48-.32.1-.45.2-2.35.54-2.68.11-.1.51.03.61-.08.09-.09.6-2.01.8-2.41.11-.23.77-.85.92-1.11.09-.16-.06-.58.05-.72.15-.2,1.63-.01,1.41-1.48l.72.24c.35-1.39,2.54-3.89,4.08-3.6l-.48-.72c.85.22.73-.54,1.2-.82.66-.39.13-.09.62-.6.51-.54,1.1-.63,1.29-1.61l.72.14.74-2.63c-.59-.17-1.42-.05-1.84-.56-.15-.18-.1-.6-.31-.77-.19-.16-.67.13-1.05-.12-.46-.3-1.2-1.33-1.85-1.78-.46-.32-1.44-.51-1.75-.83-.45-.46.33-1.04-1.11-.5.17-1.46-2.37-.93-2.16-2.4l-.59.48c-.45-.96-.61-1.27-1.8-1.2l.21-.44c-.63.02-.82-.85-.98-.94-.25-.14-.75,0-1.14-.18-1.11-.5-3.92-3.61-4.71-4.65-.9-1.17-1.8-.97-1.39-2.94.51-2.45,1.42-2.07,2.66-3.4.14-.15.09-.63.3-.77.2-.14,3.56-.76,4.55-1.21.25-.11.4-.43.65-.56l.81.46c0-.26-.08-.55.15-.74.12-.1,2.54-1.09,2.86-1.19.82-.25,4-.71,4.81-.68.31.01,1.67.61,1.99.4s.02-1.12,1.12-.19l.12-.48c.86.83,1.97-.58,3.12,0l-.24-.72c1.19.59,1.78-.22,2.82-.43,1.32-.27.58-.27,1.17-.5.35-.13,1.46.22,1.85.13.3-.07.51-.41.71-.45.97-.22,2.75-.6,3.59-.93.22-.09.17-.49.29-.47.2.04.43.46.92.42s2.09-.51,2.4-.88.14-.94.32-1.41c.13-.34.21-.39.43-1.01.24-.7,2.16-4.59,2.51-5.16.29-.46,1.03-.69,1.21-1.02.33-.62,0-1.27.07-1.45.03-.08.93-.71.66-1.49l.48.24c-.45-.85.67-1.97.7-2.08.22-.96.5-2,.82-3s1.41-1.61.89-2.83c1.19.13.87-1.3,1.24-2.14l.68-.03c-.55-.89.26-.76.49-1.13.13-.21.66-1.11.77-1.34.3-.6,0-1.75,1.14-1.14l-.48-.72c.93.2.61-.38.81-.62,1.28-1.51,1.43-.71,3.27-1.06Z"/>
      </g>
    </g>
  </g>
</svg>