<?xml version="1.0" encoding="UTF-8"?>
<svg id="Capa_2" data-name="Capa 2" xmlns="http://www.w3.org/2000/svg" viewBox="0 0 116.79 137.05">
  <g id="Capa_1-2" data-name="Capa 1">
    <path d="M108.21,43.41c-1.36.13-4.9,1.75-5.36,1.67-.31-.06-.43-.22-.62-.44-.7-.81-1.45-2.23-2.19-3.08-1.26-.83-2.04-.26-2.54,1-.79,2,.08,3.01,1.19,4.59-.04.14-.12.41-.32.69-.84,1.18-3.04,1.45-3,1.91,0,.06.04.17-.02.24-.02.03-.09.04-.24.01-.62-.79-1.35-1.47-2.02-2.2-.53-.58-.73-1.48-1.72-1.64-1.33-.22-2.27,2.99-1.94,4.07.12.42,1.32,1.34,1.17,2.11-.13.53-1.72,1.04-2.07,1.46-.53.64-.38,1.89-.71,2.63l-6.16,3.52c-1.09,1.81-3.08,2.23-4.88,3.03-.32.14-2.03,1.24-2.16,1.09-.08-.88-.04-2.16-.26-2.99-.15-.55-.92-1.33-1.24-1.93-1.18-2.18-1.09-4.27-1.61-6.64,0-.32.28-1.12.43-1.41.15-.27,1.92-2.26,2.15-2.42.56-.37,1.47-.56,2.11-.88,1.63-.83,3.84-2.78,5.27-4.05,3.8-3.36,6.1-6.31,8.76-10.59,1.55-2.5,2.4-3.64,1.3-6.69-.51-1.44-2.99-1.88-4.36-1.81-4.27.21-8.33,1.37-12.5,2.1-1.59.28-3.3.19-4.91.37-.95.1-5,.94-5.55.62-1.37-3.34-2.93-6.61-4.3-9.94C57.62,12.18,54.36,1.01,47.08.06c-.62-.08-3.05-.11-3.55.1-.06.03-.93.87-1,.95-2.39,2.9-4,8.71-4.89,12.35-.83,3.4-1.25,6.56-2.16,9.98-.23.87-.37,2.49-.64,3.23-.15.39-1.01.52-1.38.9-1.09,1.15-.38,1.82-2.57,2.18-4.37.73-8.85-.3-13.18-.67-3.73-.32-11.76-1.13-15.02.25-1.07.45-2.54,1.97-2.65,3.16-.71,7.5,9.13,11.54,14.72,14.32,1.84.92,3.89,1.46,5.51,2.76.11.43-1.95,1.53-2.27,1.77-.49.36-.98.97-1.54,1.28-1.19.64-1.73.79-2.99,1.59-2.65,1.67-4.24,2.29-6.01,5.07-1.82,2.87-2.46,5.88-2.14,9.29.12,1.26,1.44,4.53,1.36,5.26-.05.43-1.26,1.64-1.54,2.3-.77,1.79-1.81,5.48-1.94,7.39-.26,3.93.98,10.69,2.96,14.12.98,1.69,3.28,4.71,4.78,5.95,3.5,2.89,9.91,3.49,14.01,1.7,2.82-1.23,5.38-4.54,8.09-5.98,1.26-.68,2.09.03,3.31.15,1.35.12,2.62-.45,3.88-.01.37,2.04-.19,4.09-.28,6.07-.11,2.48.21,5.02,0,7.57-.23,2.91-1.01,5.77-1.39,8.64-.2,1.49.28,4.06-2.29,2.44-.81-.51-.92-.65-1.89-1.1-.77-.37-1-.88-2.07-.73-.36.05-2.66,1.22-2.87,1.45-.22.24-.58,1.77-.58,2.15-.02,1,.78,1.73,1.22,2.67,1.83,3.91,2.54,4.97,6.34,7.2,1.69,1,2.97,2.23,4.51.08.34-.48.41-1.05.78-1.5.94-1.15,1.37-.82,1.85-2.72.21-.81.67-2.54.78-3.27.08-.54-.1-1.2.05-1.71.09-.34.56-.5.66-1.1.09-.55-.06-1.17.02-1.74.92-6.66,1.7-13.44,2.82-20.05.23-1.32.58-2.62.71-3.96,1.89.47,3.36.34,4.3.17,1.83-.35,3.62-1.58,7.2-4.05.26-.18.77-.53,1.35-1.1.54-.52.93-1.01,1.19-1.37.92,2.65,2.15,6.63,3.08,11.61.22,1.18.12.8.96,6.51.84,5.68,3.26,11.18,3.22,16.92,0,0-.05,2.72,1.19,3.56,1.11.75,1.2.1,2.13-.13,3.55-.86,4-1.37,6.84-3.36.83-.58,2.88-1.25,3.11-2.16.09-.34-.02-.72.06-1,.12-.45.4-.85.47-1.28.18-1.01.3-2.64-.01-3.61-.15-.47-1.22-1.52-1.7-1.63-.45-.1-1.75-.23-2.2-.23-1.46.03-2.59,1.7-4.2,1.71l-1.74-4.78c-1.22-4.93-1.81-9.33-2.06-13.07-.21-3.18-.02-4.52-.38-7.19-.58-4.41-2-8.56-3.32-12.78,1.16.37,1.84,1.43,2.82,2.01.46.28,1,.36,1.46.65.83.53,3.01,2.29,3.8,2.54.19.06,2.63.41,2.89.41,3.84.02,6.97-2.84,9.34-5.61,3.33-3.89,3.71-9.26,2.68-14.12-.08-.39-1.04-1.69-.84-1.89.63-.12,1.01.55,1.53.67,1.58.36,2.34-1.49,3.44-1.16.47.14.82.98,1.17,1.3,1.15,1.03,3,.75,4.4.69,1.53,1.59,1.18,3.76,3.93,2.18.95-.54,1.77-1.51,1.69-2.68-.07-.93-1.07-1.47-1.03-2.38.87-.79,1.95-1.51,2.84-1.21,1.32.44,1.09,2.71,2.51,3.23,1.05.38,2.68-.32,3.17-1.41.79-1.74-1.64-3.6-.82-5.06.58-1.05,2.03-.43,3-1.41,2.06-2.09-1.17-8.21-1.76-9.35-1.21-2.31-3.56-6.77-6.14-6.53ZM87.81,29.07h.35c.02.34.05.77-.35.88v-.88ZM12.49,66.41c.56-1.58,3.72-5.23,5.2-6.06,1.31-.74,2.4-1.37,3.62-2.36.93-.75,1.15-1.21,1.49-1.12.69.18.66,2.06,1.08,7.13.09,1.05.17,1.9.22,2.43-.19,1.03-1.77-.07-1.98-.07-.6-.17-1.48-.38-2.56-.44-1.52-.09-2.69.15-4.11.45-.8.17-1.86.44-3.1.86-.04-.3.04-.55.14-.83ZM54.74,94.94c-1.97.82-2.71.2-9.76.09-.49,0-1.79-.02-3.52-.17-.89-.08-1.52-.19-1.77-.19-3.05.1-6.68-.44-9.62.41-.58.17-3.72,2.81-4.19,3.38-.47.58-.81,1.72-1.16,2.01-.3.25-2.38.95-2.84,1.03-5.97,1.15-10.73-1.54-13.74-6.59-1.9-3.2-2.83-9.09-2.05-12.72.21-.96,1.08-4.21,1.94-4.57.38-.08.23.15.31.39.98,3.05,2.91,5.84,4.08,8.94.77,2.04.53,4.45,3.34,4.74.89.09,1.6-.13,2.29-.36.23-.08.85-.29,1.49-.69.49-.31,2.52-1.57,2.93-4.04.3-1.83-.46-3.25-.66-3.6-.17-.29-.88-1.47-2.36-2.21-1.71-.85-3.32-.57-3.83-.47-.86-2.8-1.73-5.6-2.6-8.41,1.05-.48,2.47-.98,4.18-1.22,1.45-.21,2.3-.33,3.45-.1,1.15.23,1.69.55,2.85.53.46,0,1.18-.42,1.77-.51,2.16-.34,3.27.13,5.17-1.33,1.34-1.03,2.15-2.84,3.33-4.06,1.86-1.93,4.68-3.73,7.22-4.57,3.87-1.27,7.65.23,10.72,2.65,1.01.8,3.86,4.09,4.05,5.28.07.44.23,2.21,0,2.46-2.54.9-5.02,2.52-7.74,2.63-1.1.38-1.79.24-2.22.04-.33-.15-.23-.28-1.38-1.19-.9-.71-1.4-1.27-2.68-1.54-2.11-.44-4.88.71-6.2,2.34-2.79,3.44-4.45,11.65-.24,14.48,1.66,1.11,4.44,2.63,6.47,2.31.21-.04,3.6-1.87,3.78-2.02.53-.43,2.48-2.6,2.87-2.76,1.06-.46,2.74-.35,4.17-.93,1.09-.44,7.86-4.41,8.27-4.12.23,1.19.57,2.44.66,3.65.37,4.83-2.29,9.15-6.81,11.03ZM83.87,77.29c-1.47,2.4-1.47,4.4-5.11,4.34-1.58-.03-2.8-.65-3.92-1.24-.48-.26-.99-.53-1.58-1.01-.59-.49-.87-.85-1.8-1.86-.53-.57-.96-1.02-1.24-1.31.89-.3,1.53-.66,1.95-.92.7-.45.98-.79,1.64-.98.63-.18,1.1-.07,1.52-.04,1.56.15,2.89-.56,5.16-1.79,1.34-.72,1.07-.78,2.19-1.33.53-.26,1.78-.83,2-1.34.02-.05.11-.26.27-.29.06-.01.13,0,.24.09.28.22.77,2.56.83,3.04.24,2.3-1.1,2.94-2.13,4.63ZM93.73,64.8l.41.42c-.92.89-1.85.2-.41-.42Z"/>
  </g>
</svg>