<?xml version="1.0" encoding="UTF-8"?>
<svg id="Capa_2" data-name="Capa 2" xmlns="http://www.w3.org/2000/svg" viewBox="0 0 99.69 142.77">
  <g id="Capa_1-2" data-name="Capa 1">
    <path d="M99.69,58.33c.05-.57-.45-1.37-.52-2.09-.11-1.19.23-2.31.18-3.53-.15-3.56-2.64-11.99-5.19-14.51-.42-.41-1.6-1.11-1.86-1.48-.37-.5-.26-1.59-.69-2.12-.85-1.05-3.19-1.03-4.35-1.46-1.11-.4-2.86-1.79-3.67-2.67-.43-.47-3.11-3.67-3.23-3.98-.94-2.36.36-2.66.78-4.47.12-.53.02-1,.13-1.46.23-.98,1.29-2.01.98-3-.1-.3-.45-.34-.51-.91-.1-.88.49-2.01.54-2.99.08-1.46-.4-4.88-.8-6.24-.15-.51,0-1.11-.44-1.49-1.42-.73-2.86-1.45-4.2-2.31-1.8-1.16-1.67-1.2-3.76-2.05-3.75-1.52-5.43-2.03-9.5-1.16-.58.13-1.86.81-2.24,1.28-1.24,1.56-3.42,5.61-3.68,7.58-.29,2.12-.53,3.95-1.18,6.03-.4,1.28-1.67,1.77-1.42,3.59.1.77.54.99.63,1.31.19.64-.58.54-.93.79-.3.21-.21.53-.75.64-1.53.31-2.83-.49-4.35-.3-2.86.37-8.73,1.63-11.3,2.94-.32.16-2.83,1.67-2.95,1.8-.75.82-1.4,2.92-2.05,3.75-.31.39-.82.44-.85.48-.09.13.17.62.13.92-.05.42-.64.96-.66,1.45-.02.36.21.77.19,1.22-.03.54-.42,2.4-.28,2.73-1.51.51-2.43.31-3,.02-1.61-.82-1.8-2.33-3.41-4.16-.3-.34-.85-.59-1.23-1.05-1.64-2-.46-2.27.33-4.07.54-1.23.58-2.23.7-3.55-.58-.18-.84-.75-1.32-1.05-1.74-1.12-3.75-.11-5.69-.38-.26-.25,1.09-2.29,1.19-2.76.58-2.85-1.34-3.8-3.25-5.3-.49-.08-1.07.47-1.54.69-.3.13-.67.11-.96.26-.88.47-.83,1.5-2.39,1.32-.23-.02-1.76-.83-2.01-.99-.43-.29-.53-.74-.9-1.03-3.52-2.84-7.2,2.37-6.67,5.61.13.76,1.01,1.1.88,1.94-.09.55-.87.6-1.14.98-.25.36-.21.95-.41,1.35-.87,1.74-1.32,2.13-.91,4.35.11.59.53,1.01,1.09,1.2,1.24.4,3.14.23,4.4-.08.33-.08,1.32-.99,1.53-.4l-1.38,1.96-.23.74-.66.04c-.03.49-.37.91-.47,1.37-.13.59.16,2.04.28,2.73.38,2.13,3.93,2.09,5.45,1.25.7-.39,1.09-1.2,1.84-1.32,1.08-.17,2.25-.02,2.99.86,3.65,4.34,6.38,9.83,9.75,14.35.47.62.76,1.37,1.42,1.79-.28,1.19-.79,2.12-1.01,3.36-.22,1.21-.12,2.3-.25,3.45-.08.78-.52,1.68-.52,2.48,0,2.23,2.44,6.94,4.08,8.42,3.77,3.42,10.27,5.56,13.08,9.61.18.25,1.6,2.77,1.64,2.93.08.3.04.62.04.93-.46.14-.43-.51-.64-.54-.67-.09-1.79.78-2.27,1.24-1.65,1.58-2.67,3.74-4.66,5.01-.37.24-1,.18-1.18.31-.07.05-.56,1.06-.83,1.37-1.27,1.47-3.3,3.03-4.39,4.41-.88,1.11-1.53,2.79-2.32,4.01-1.25,1.96-1.44,1.43-2.09,3.9-.34,1.29-1.95,3.2-2.3,4.38-1.13,3.87-1.91,6.58-2.39,10.63-.09.79-.57,1.45-.67,2.15-.43,3.06.43,4.29,1.17,6.89.57,1.99.76,3.87,1.77,5.79.19.36,2.71,3.1,3.02,3.31.36.25.78.21,1.15.43.61.37,1.06,1.42,1.9,1.97,1.5,1,4.29,1.8,6.05,2.39.33.11.62.45.88.52,1.01.26,4.14.08,5.09-.45.59-.32.94-.96,1.48-1.34.63-.45,1.53-.82,2.08-1.26,1.43-1.16,3.56-7.06,3.71-8.95.3-3.78-2.07-6.46-2.3-10.02-.22-3.52,1.83-7.78,3.8-10.64.28-.41.9-.77,1.11-1.18.21-.41.14-.83.36-1.22.2-.34,1.45-1.14,1.85-1.15.17,0,2.72.6,2.87.66.32.13.31.62.69.73.43.13,1.03-.02,1.53.05,2.27.34,3.62.5,5.87.19.61-.08,1.23.08,1.81-.21,0,2.43.06,4.87-.18,7.29-.03.32-.32.58-.33.88,0,.28.83,2.84.99,3.4,1.43,4.85,3.7,11.64,6.24,15.92,1.32,2.23,2.67,4.43,5.25,5.31,1.54.53,6.62-.02,7.97-.81,2.16-1.27,2.16-2.04,3.56-3.65,1.02-1.18,2.93-2.44,3.46-3.93.8-2.27-.17-4.31-.4-6.56-.07-.66.11-1.5,0-2.11-.08-.43-.64-.79-.82-1.29-.95-2.61-1.09-6.44-2.03-9.05-.56-1.54-2.01-2.87-1.58-4.94-.63-1.43-3.85-5.47-3.85-6.72,0-.55.38-1.08.06-1.63l-1.45-1.01c.65-.92,1.49-1.68,2.18-2.57.31-.4,2.02-2.51,2.09-2.67.15-.32.61-1.99.79-2.55.83-2.61.69-6.28.56-8.94-.02-.32.12-.64.1-.88-.06-.8-1.13-1.26-1.29-1.96-.16-.72.03-1.66-.04-2.43-.19-2.05-1.48-2.98,1.14-3.79.77-.24,1.63-.23,2.39-.43,1.34-.35,4.29-1.94,5.21-2.97.83-.93,2.67-4.21,2.97-5.38.16-.63,0-1.22.12-1.81.26-1.26,1.09-3.07,1.18-4.29ZM82.64,87.38c-.02,1.11-2.14,3.92-2.91,4.83-.93,1.11-.9.94-1.67,2.2-2.18,3.59-6.17,5.07-9.98,6.19-2.83.83-4.77,1.66-7.85,1.26-.71-.09-2.72-.83-3.45-1.13-1.47-.6-5.52-4.41-6.19-5.94-.16-.37-1.27-3.1-1.3-3.28-.07-.49.19-1.06.09-1.67-.09-.58-.63-.89-.7-1.43-.12-.99.19-2.3-.04-3.64-.36-2.07-1.14-4.5-1.77-6.49-.81-2.54-2.37-4.09-4.43-5.77-2.72-2.22-6.05-3.53-8.71-5.89-.58-.52-3.04-2.75-3.35-3.21-1.14-1.69-.76-6.03.39-7.67.68-.96,5.1-4.93,6.08-5.17,2.48.19,5.28-.39,7.7-.23.79.05,1.7.4,2.46.38.62-.02.98-.39,1.58-.38.51.01,2.42.96,2.97,1.27,2.17,1.2,4.34,3.06,6.28,4.63,1.66,1.34,3.28,2.9,4.93,4.21.6.48,1.19.17,1.23,1.24.04,1.09-.79,1.59-1.77,1.84.34-.79-.72-1.11-1.24-1.66-1.31-1.41-2.56-2.65-4.06-3.86-2.07-1.67-2.82-.92-4.85-1.66-.27-.09-.25-.39-.32-.38-.34.07-1.46.92-2.03,1.14-1.15.45-2.74.59-3.67,1.61-.36.41-.45.98-.73,1.38-1.02,1.47-2.17,2.41-2.56,4.3-.14.68.06,4.46.32,4.98.22.45.75.71,1.01,1.09.56.83.98,2.21,1.99,2.77.45.24,1.02.25,1.48.45,1.33.6,3.03,1.82,4.5,1.58.73-.12,1.3-.76,2.06-.66v2.55c2.41,2.35,3.52,5.14,7.16,5.85,1.8.35,6.34.2,7.96-.58.77-.37,1.04-.85,1.64-1.18,1.92-1.07,4.26-2.33,6.24-3.25.59-.28,3.86-1.79,4.26-1.46-.08.39-.19.73-.19,1.14,0,.75.09,2.47.2,3.16.11.73.75.88.86,1.42.24,1.2.38,3.88.36,5.1Z"/>
  </g>
</svg>