<?xml version="1.0" encoding="UTF-8"?>
<svg id="Normal" xmlns="http://www.w3.org/2000/svg" viewBox="0 0 613.38 343.44">
  <defs>
    <style>
      .cls-1 {
        fill: #fff;
      }
    </style>
  </defs>
  <g id="Sin_fondo_copia" data-name="Sin fondo copia">
    <g id="Blanco_transparente_copia" data-name="Blanco transparente copia">
      <g id="Isologo-Versión_Principal" data-name="Isologo-Versión Principal">
        <g id="Logotipo">
          <path class="cls-1" d="M29.4,283.88c-6.23,0-11.6-1.26-16.11-3.77-4.5-2.51-7.9-6-10.2-10.46-2.3-4.46-3.31-9.55-3.05-15.26.26-5.46,1.47-10.52,3.64-15.2,2.16-4.68,5.09-8.81,8.77-12.4,3.68-3.59,7.97-6.41,12.86-8.44,4.89-2.03,10.28-3.05,16.17-3.05,8.83,0,15.89,2.38,21.17,7.14,5.28,4.76,7.97,11.47,8.05,20.13h-23.77c-.09-2.51-.91-4.52-2.47-6.04-1.56-1.51-3.68-2.27-6.37-2.27s-5.31.82-7.6,2.47c-2.3,1.65-4.09,3.83-5.39,6.56s-2.04,5.78-2.21,9.16c-.09,1.82.04,3.49.39,5,.34,1.52.93,2.84,1.75,3.96.82,1.13,1.86,1.99,3.12,2.6,1.25.61,2.71.91,4.35.91,1.9,0,3.61-.34,5.13-1.04,1.51-.69,2.88-1.67,4.09-2.92,1.21-1.25,2.16-2.71,2.86-4.35h23.64c-2.08,5.54-5.02,10.37-8.83,14.48-3.81,4.11-8.29,7.27-13.44,9.48-5.15,2.21-10.67,3.31-16.56,3.31Z"/>
          <path class="cls-1" d="M101.22,283.88c-6.06,0-11.3-1.34-15.72-4.03-4.42-2.68-7.77-6.36-10.07-11.04-2.29-4.68-3.31-9.96-3.05-15.85.26-5.28,1.41-10.22,3.44-14.81,2.03-4.59,4.85-8.57,8.44-11.95,3.59-3.38,7.73-6.04,12.41-7.99,4.68-1.95,9.65-2.92,14.94-2.92,6.15,0,11.45,1.32,15.91,3.96,4.46,2.64,7.88,6.28,10.26,10.91,2.38,4.63,3.4,9.98,3.05,16.04-.17,5.37-1.32,10.33-3.44,14.87-2.12,4.55-4.98,8.53-8.57,11.95-3.59,3.42-7.73,6.08-12.4,7.99-4.68,1.9-9.74,2.86-15.2,2.86ZM104.21,264.65c2.68,0,5-.76,6.95-2.27,1.95-1.51,3.55-3.59,4.81-6.23,1.25-2.64,1.97-5.69,2.14-9.16.17-2.77-.09-5.07-.78-6.88-.69-1.82-1.75-3.2-3.18-4.16-1.43-.95-3.14-1.43-5.13-1.43-2.6,0-4.92.78-6.95,2.34-2.04,1.56-3.66,3.66-4.87,6.3-1.21,2.64-1.91,5.69-2.08,9.16-.09,2.6.22,4.81.91,6.62.69,1.82,1.75,3.23,3.18,4.22,1.43,1,3.1,1.49,5,1.49Z"/>
          <path class="cls-1" d="M139.67,282.32l11.56-65.47h22.21l-11.56,65.47h-22.21ZM165.39,211.92c-3.98,0-7.17-1.15-9.55-3.44-2.38-2.29-3.62-5.09-3.7-8.38,0-3.38,1.21-6.21,3.64-8.51,2.42-2.29,5.63-3.44,9.61-3.44s7.06,1.15,9.48,3.44c2.42,2.3,3.64,5.13,3.64,8.51.08,3.29-1.1,6.08-3.57,8.38-2.47,2.3-5.65,3.44-9.55,3.44Z"/>
          <path class="cls-1" d="M168.38,282.32l11.43-65.47h19.35l.52,9.61c2.51-3.38,5.65-6.08,9.42-8.12,3.77-2.03,8.2-3.05,13.31-3.05,5.8,0,10.37,1.23,13.7,3.7,3.33,2.47,5.54,5.93,6.62,10.39,1.08,4.46,1.1,9.81.07,16.04l-6.5,36.89h-22.08l6.1-34.94c.69-4.16.41-7.45-.84-9.87-1.26-2.42-3.96-3.64-8.12-3.64-2.34,0-4.53.56-6.56,1.69-2.04,1.13-3.77,2.68-5.2,4.68-1.43,1.99-2.4,4.37-2.92,7.14l-6.11,34.94h-22.21Z"/>
          <path class="cls-1" d="M275.28,283.88c-6.23,0-11.6-1.26-16.11-3.77-4.5-2.51-7.9-6-10.2-10.46-2.3-4.46-3.31-9.55-3.05-15.26.26-5.46,1.47-10.52,3.64-15.2,2.16-4.68,5.09-8.81,8.77-12.4,3.68-3.59,7.97-6.41,12.86-8.44,4.89-2.03,10.28-3.05,16.17-3.05,8.83,0,15.89,2.38,21.17,7.14,5.28,4.76,7.97,11.47,8.05,20.13h-23.77c-.09-2.51-.91-4.52-2.47-6.04-1.56-1.51-3.68-2.27-6.37-2.27s-5.31.82-7.6,2.47c-2.3,1.65-4.09,3.83-5.39,6.56s-2.04,5.78-2.21,9.16c-.09,1.82.04,3.49.39,5,.34,1.52.93,2.84,1.75,3.96.82,1.13,1.86,1.99,3.12,2.6,1.25.61,2.71.91,4.35.91,1.9,0,3.61-.34,5.13-1.04,1.51-.69,2.88-1.67,4.09-2.92,1.21-1.25,2.16-2.71,2.86-4.35h23.64c-2.08,5.54-5.02,10.37-8.83,14.48-3.81,4.11-8.29,7.27-13.44,9.48-5.15,2.21-10.67,3.31-16.56,3.31Z"/>
          <path class="cls-1" d="M311.77,282.32l11.56-65.47h22.21l-11.56,65.47h-22.21ZM337.49,211.92c-3.98,0-7.17-1.15-9.55-3.44-2.38-2.29-3.62-5.09-3.7-8.38,0-3.38,1.21-6.21,3.64-8.51,2.42-2.29,5.63-3.44,9.61-3.44s7.06,1.15,9.48,3.44c2.42,2.3,3.64,5.13,3.64,8.51.09,3.29-1.1,6.08-3.57,8.38-2.47,2.3-5.65,3.44-9.55,3.44Z"/>
          <path class="cls-1" d="M366.07,283.88c-5.11,0-9.57-1.3-13.38-3.9-3.81-2.6-6.69-6.17-8.64-10.72-1.95-4.55-2.75-9.68-2.4-15.39.26-5.54,1.36-10.63,3.31-15.26,1.95-4.63,4.59-8.7,7.92-12.21,3.33-3.51,7.16-6.24,11.5-8.18,4.33-1.95,8.96-2.92,13.9-2.92,4.68,0,8.51.8,11.5,2.4,2.99,1.6,5.22,3.53,6.69,5.78l6.11-34.68h22.21l-16.37,93.52h-19.74l-1.3-7.79c-1.47,1.73-3.23,3.31-5.26,4.74-2.04,1.43-4.35,2.55-6.95,3.38-2.6.82-5.63,1.23-9.09,1.23ZM376.2,264.52c3.12,0,5.91-.78,8.38-2.34s4.46-3.62,5.97-6.17c1.51-2.55,2.36-5.39,2.53-8.51.17-2.42-.19-4.63-1.1-6.62-.91-1.99-2.32-3.53-4.22-4.61-1.91-1.08-4.11-1.62-6.62-1.62-3.03,0-5.78.74-8.25,2.21-2.47,1.47-4.42,3.46-5.84,5.97-1.43,2.51-2.23,5.33-2.4,8.44-.17,2.42.17,4.68,1.04,6.75.86,2.08,2.19,3.68,3.96,4.81,1.77,1.13,3.96,1.69,6.56,1.69Z"/>
          <path class="cls-1" d="M482.71,229c-2.25-4.29-5.57-7.64-9.94-10.07-4.37-2.42-9.59-3.64-15.65-3.64s-11.43,1.04-16.37,3.12c-4.93,2.08-9.24,4.92-12.92,8.51-3.68,3.59-6.56,7.75-8.64,12.47-2.08,4.72-3.25,9.76-3.51,15.13-.25,5.8.76,10.93,3.06,15.39,2.29,4.46,5.69,7.91,10.19,10.33,4.51,2.42,9.92,3.64,16.24,3.64,5.2,0,10.13-.98,14.81-2.93,4.67-1.94,8.83-4.63,12.47-8.05,3.64-3.42,6.49-7.25,8.57-11.49h-22.86c-1.21,1.29-2.62,2.38-4.22,3.24-1.6.87-3.57,1.3-5.91,1.3-2.69,0-4.87-.56-6.56-1.69-1.69-1.12-2.84-2.66-3.44-4.61-.44-1.4-.61-2.89-.5-4.48h46.09c.43-1.56.84-3.29,1.23-5.2.39-1.9.63-3.85.72-5.84.34-5.8-.61-10.85-2.86-15.13ZM463.49,242.83h-23.26c.42-.99.89-1.9,1.43-2.73,1.56-2.42,3.42-4.22,5.59-5.39,2.16-1.17,4.5-1.75,7.01-1.75,1.91,0,3.6.41,5.07,1.23,1.47.83,2.6,1.97,3.38,3.45.78,1.47,1.04,3.2.78,5.19Z"/>
          <path class="cls-1" d="M483.36,282.32l11.43-65.47h19.35l.52,9.61c2.51-3.38,5.65-6.08,9.42-8.12,3.77-2.03,8.2-3.05,13.31-3.05,5.8,0,10.37,1.23,13.7,3.7,3.33,2.47,5.54,5.93,6.62,10.39,1.08,4.46,1.1,9.81.06,16.04l-6.49,36.89h-22.08l6.11-34.94c.69-4.16.41-7.45-.84-9.87-1.26-2.42-3.96-3.64-8.12-3.64-2.34,0-4.53.56-6.56,1.69-2.04,1.13-3.77,2.68-5.2,4.68-1.43,1.99-2.4,4.37-2.92,7.14l-6.1,34.94h-22.21Z"/>
          <path class="cls-1" d="M589.35,282.32c-5.71,0-10.31-.91-13.77-2.73-3.46-1.82-5.82-4.59-7.08-8.31-1.26-3.72-1.41-8.44-.45-14.16l4.03-21.82h-11.17l3.25-18.45h11.17l5.72-19.35h19.87l-3.38,19.35h15.85l-3.25,18.45h-15.98l-3.9,22.08c-.35,2.34,0,3.94,1.04,4.81,1.04.87,2.6,1.3,4.68,1.3h9.48l-3.25,18.83h-12.86Z"/>
        </g>
        <g id="Tagline">
          <path class="cls-1" d="M233.01,343.44c-2.96,0-5.44-.48-7.41-1.45-1.98-.97-3.44-2.27-4.39-3.92-.95-1.65-1.32-3.5-1.11-5.56h8.65c-.04.87.13,1.63.53,2.29.39.66.99,1.18,1.79,1.58.8.39,1.78.59,2.93.59s2.04-.16,2.78-.49,1.32-.75,1.73-1.27c.41-.51.66-1.14.74-1.88.04-.7-.15-1.26-.59-1.67-.43-.41-1.05-.76-1.85-1.05-.8-.29-1.74-.51-2.81-.68-1.48-.37-2.88-.77-4.2-1.21-1.32-.43-2.48-.98-3.49-1.64-1.01-.66-1.8-1.48-2.38-2.47-.58-.99-.82-2.16-.74-3.52.12-1.98.79-3.74,2.01-5.28,1.21-1.54,2.88-2.76,5-3.64,2.12-.89,4.54-1.33,7.26-1.33,3.83,0,6.78.86,8.86,2.59,2.08,1.73,3.08,4.08,3,7.04h-8.22c-.08-.99-.53-1.75-1.33-2.29s-1.93-.8-3.37-.8c-1.36,0-2.47.29-3.34.87-.86.58-1.32,1.28-1.36,2.1,0,.58.21,1.06.62,1.45.41.39,1.04.73,1.88,1.02.84.29,1.9.58,3.18.87,1.69.37,3.2.78,4.54,1.24,1.34.45,2.47,1.01,3.4,1.67.93.66,1.62,1.46,2.07,2.41.45.95.64,2.1.56,3.46-.04,2.22-.73,4.17-2.07,5.84-1.34,1.67-3.12,2.94-5.34,3.83-2.22.88-4.74,1.33-7.54,1.33Z"/>
          <path class="cls-1" d="M262.91,342.7c-2.47,0-4.47-.4-5.99-1.21-1.52-.8-2.56-2.02-3.12-3.64-.56-1.63-.61-3.7-.16-6.21l2.35-12.85h-5.19l1.3-7.23h5.13l2.47-8.59h7.72l-1.54,8.59h8.15l-1.3,7.23h-8.16l-2.29,12.91c-.25,1.4-.08,2.36.49,2.87.58.52,1.5.77,2.78.77h4.32l-1.36,7.35h-5.62Z"/>
          <path class="cls-1" d="M282.68,343.44c-2.68,0-4.82-.57-6.42-1.7-1.61-1.13-2.68-2.74-3.21-4.82-.54-2.08-.54-4.54,0-7.38l3.09-17.98h8.65l-3.03,17.17c-.41,2.39-.26,4.22.46,5.5.72,1.28,2.17,1.92,4.35,1.92,1.36,0,2.63-.3,3.8-.9,1.17-.6,2.18-1.48,3.03-2.66.84-1.17,1.41-2.6,1.7-4.29l2.97-16.74h8.65l-5.44,31.14h-7.6v-4.88c-1.19,1.69-2.72,3.05-4.57,4.08-1.85,1.03-4,1.54-6.42,1.54Z"/>
          <path class="cls-1" d="M318.27,343.44c-2.55,0-4.75-.63-6.58-1.88-1.83-1.26-3.21-2.97-4.14-5.16-.93-2.18-1.31-4.61-1.14-7.29.12-2.59.66-5,1.61-7.23.95-2.22,2.21-4.16,3.8-5.81,1.58-1.65,3.41-2.93,5.47-3.86s4.24-1.39,6.55-1.39c2.43,0,4.4.43,5.9,1.3,1.5.87,2.65,1.98,3.43,3.34l3.03-17.24h8.65l-7.85,44.48h-7.72l-.19-4.26c-.78.95-1.68,1.79-2.69,2.53-1.01.74-2.18,1.34-3.52,1.79-1.34.45-2.87.68-4.6.68ZM321.91,335.9c1.77,0,3.36-.45,4.76-1.36,1.4-.91,2.52-2.11,3.37-3.61.84-1.5,1.31-3.2,1.39-5.1.08-1.48-.13-2.78-.65-3.89-.52-1.11-1.28-1.99-2.29-2.63-1.01-.64-2.25-.96-3.74-.96-1.73,0-3.29.43-4.66,1.3-1.38.87-2.49,2.03-3.34,3.49-.84,1.46-1.31,3.14-1.39,5.04-.08,1.48.13,2.82.65,4.02.51,1.19,1.27,2.11,2.25,2.75.99.64,2.2.96,3.64.96Z"/>
          <path class="cls-1" d="M340.69,342.7l5.5-31.14h8.65l-5.5,31.14h-8.65ZM352.06,307.73c-1.52,0-2.78-.47-3.77-1.42s-1.5-2.1-1.54-3.46c.04-1.4.55-2.57,1.51-3.52.97-.95,2.25-1.42,3.86-1.42,1.52,0,2.79.47,3.8,1.42,1.01.95,1.49,2.12,1.45,3.52.04,1.36-.43,2.51-1.42,3.46s-2.29,1.42-3.89,1.42Z"/>
          <path class="cls-1" d="M368.18,343.44c-2.8,0-5.23-.63-7.29-1.88s-3.62-2.99-4.7-5.19-1.54-4.68-1.42-7.44c.12-2.55.67-4.93,1.64-7.14.97-2.2,2.29-4.12,3.98-5.75,1.69-1.63,3.62-2.9,5.81-3.83,2.18-.93,4.55-1.39,7.1-1.39,2.8,0,5.24.62,7.32,1.85,2.08,1.24,3.67,2.94,4.76,5.13,1.09,2.18,1.58,4.7,1.45,7.54-.12,2.59-.68,4.98-1.67,7.17-.99,2.18-2.34,4.1-4.05,5.75-1.71,1.65-3.67,2.92-5.87,3.83-2.2.91-4.56,1.36-7.07,1.36ZM369.36,335.96c1.56,0,2.97-.44,4.23-1.33,1.26-.88,2.28-2.1,3.06-3.64.78-1.54,1.21-3.33,1.3-5.34.08-1.61-.11-2.94-.59-4.02-.47-1.07-1.15-1.89-2.04-2.47-.89-.58-1.91-.87-3.06-.87-1.57,0-2.98.44-4.23,1.33-1.26.89-2.28,2.1-3.06,3.65-.78,1.54-1.21,3.35-1.3,5.41-.12,1.52.05,2.83.53,3.92.47,1.09,1.16,1.93,2.07,2.5.91.58,1.94.86,3.09.86Z"/>
        </g>
        <g id="Isotipo">
          <path id="Isotipo-2" data-name="Isotipo" class="cls-1" d="M400.33,108.82c-15.14,7.13-30.29,14.26-45.44,21.39-.98.46-1.32,1.69-.7,2.59,2.78,4.01,5.67,8.07,8.66,12.17,4.47,6.1,8.94,11.94,13.38,17.54,1.02,1.29-.14,3.15-1.75,2.8-17.95-3.94-35.89-7.88-53.84-11.82-.67-.15-1.36.11-1.77.65-3.77,4.91-7.54,9.82-11.31,14.73-7.75,9.72-15.5,19.43-23.26,29.15-1.13,1.41-3.39.41-3.1-1.37,1.17-7.24,2.33-14.48,3.49-21.71,1.81-9.45,3.63-18.9,5.44-28.35.22-1.17-.75-2.21-1.93-2.08-15.01,1.77-30.02,3.53-45.03,5.29-1.73.2-2.67-1.97-1.33-3.09,8.1-6.8,16.19-13.6,24.29-20.39,1.19-1,.59-2.94-.96-3.09-25.43-2.42-66.68-9.2-71.28-28.45-6.3-26.4,58.76-66.31,92.97-82.87,10.54-5.1,20.13-8.95,28.02-11.79,1.54-.55,2.61,1.54,1.26,2.46-4.85,3.32-10.32,7.2-16.21,11.61-36.26,27.17-67.24,50.37-64.32,66.29,1.89,10.31,18.08,18,42.72,22.57,1.45.27,2.57-1.27,1.87-2.56-6.24-11.55-12.48-23.1-18.73-34.64-.76-1.41.61-3.02,2.12-2.49,8.87,3.09,18,6.5,27.36,10.25,7.17,2.88,14.1,5.81,20.78,8.77.75.33,1.63.1,2.12-.57,8.52-11.65,17.05-23.3,25.57-34.95,1.06-1.44,3.35-.56,3.16,1.22-.8,7.6-1.59,15.21-2.4,22.81-.37,4.43-.75,8.86-1.12,13.28-.08.9.55,1.72,1.44,1.88,24.29,4.29,48.59,8.58,72.89,12.88,1.67.3,1.99,2.56.47,3.3-4.51,2.21-9.02,4.41-13.53,6.62Z"/>
        </g>
      </g>
    </g>
  </g>
</svg>