<?xml version="1.0" encoding="UTF-8"?>
<svg id="Capa_2" data-name="Capa 2" xmlns="http://www.w3.org/2000/svg" viewBox="0 0 127.8 152.72">
  <g id="Capa_1-2" data-name="Capa 1">
    <g>
      <path d="M111.95,66.4c.59-.72.68-2.17,1.26-2.8.15-.16,3.21-2.48,3.49-2.65,1.43-.86,4.98-.44,6.45.36,4.7,2.55,5.33,9.01,4.12,13.71-.95,3.71-3.01,7.49-4.6,10.75s-4.99,10.06-4.26,13.6c.06.27,1.13,2.83,1.26,2.92,1.58-.12,3.18-.45,4.73.08,3.87,1.31,3.34,5.08-.65,5.03-2.06-.03-2.79-1.34-4.18-1.97-.88-.4-2.13,1.53-.65,1.98,1.67.5,3.35.16,5.12,1.24,1.46.89,1.75,3.17.08,3.55-3.06.71-3.84-1.38-6.53-1.73-.55.04-1.17,1.52-.41,1.73.15.04.48-.12.75-.07,1.76.32,5.58,1.47,5.87,3.57.25,1.8-2.45,2.04-3.71,1.67-.94-.28-3.61-1.63-3.71-2.71-.4-.3-1.18,1.01-.78,1.55.13.17,2.17.65,2.65.86,1.29.56,4.36,2.11,2.97,3.86-.7.88-3.21.09-4.02-.39-.69-.41-2.12-2.38-2.97-1.88l-.67,1.12c.56,1.53,1.64.85,2.72,1.23,1.25.44,4.12,2.35,3.84,3.85-.09.46-1.29.89-1.71.95-1.4.2-4.49-1.66-5.13-2.99h-.59s-.59.84-.59.84c-.45.86,2.11,1.22,2.68,1.48,1.46.68,2.07,1.39,2.72,2.72.13.26,1.03.76-.03,1.37-2.14,1.22-4.16-.37-5.59-1.85-.33-.34-.19-.85-.83-.63-.43.15-.58.5-.58.93-.01,1.11.74.64,1.32.89,1.63.69,3.38,2.32,2.82,4.26-2,.76-4.06-.84-5.16-2.4-2.76.54.52,1.69,1.35,2.43s1.37,1.56,1.2,2.69c-.83.84-.78,1.79-2.27,1.01-.22-.12-2.04-1.69-2.23-1.93-.71-.89-.6-2.08-2.07-1.77-.17,1.26,1.23,1.95,1.85,3.08.56,1.02,1.24,2.66.36,3.61-1.68,1.8-3.21-2.35-3.92-3.34-.2-.27-.23-.61-.69-.51-.5,1.31,1.61,4.92,1.05,5.87-.37.63-1.51.72-2.08.2l-1.48-3.66c-.53.48-.67,1.22-1.09,1.76-.35.45-1.31,1.01-1.45,1.24-1.58,2.57-5.14,4.88-8.1,6.09-.98.4-3.39.71-3.94,1.1-1.39,1.01-1.41,3.71-3.14,4.33-1.55.55-5.97-1.99-7.67-2.73-9.09-3.96-18.27-8.15-27.38-12.3-13.29-6.06-27.09-11.95-40.51-18.02-1.65-.75-2.12-.8-3.57-2.02-.26-.21-.63-.21-.91-.51-.73-.79-1.54-4.53-1.92-5.76-.11-.37-.44-.64-.55-.99-.73-2.38.21-3.74,1.38-5.73,3.96-6.71,8.2-13.1,12.21-19.81,2.21-3.7,4.23-7.71,6.51-11.07.34-.49.85-1.97,1.54-1.59-.31-.9.3-1.01.42-1.27,1.65-3.56,4.08-6.66,6.03-9.93s3.69-7,5.87-10.35c1.1-1.7,2.17-3.86,4.43-3.64,4.61.46,8.54,2.63,12.73,4.15,8.54,3.08,17.39,4.4,26.15,6.51,6.58,1.58,13.83,2.9,20.22,4.99,4.28,1.4,6.08,2.46,10.8,3.23,1.05.17,2.22.82,3.41.56ZM42.25,52.6l.44-.96c-.04-.68-3.61-1.44-4.26-1.33-.26.04-.71.71-.73.93-.06.64.89.46,1.3.62.3.12.53.43.81.5.31.08,2.29.33,2.44.24ZM49.95,53.94c.08-.32-.04-.35-.23-.53-.51-.48-4.84-1.59-5.25-1.33-.36.23-.91,1.05-.29,1.39,1.27.7,3.05.69,4.36,1.36l1.4-.89ZM36.05,54.2c-.58.65-1.1,1.19-.18,1.68.17.09,3.07.93,3.24.93.73.02.97-.26,1.41-.78,0-.41-3.81-1.64-4.47-1.83ZM62.19,56.17l-5.98-1.82-.66.24-.74,1.43c0,.8,3.99,1.44,4.72,1.61.62.14,1.75.9,2.21.42.23-.24.86-1.6.45-1.88ZM47.1,57.67c-1.11-.01-5.55-2.85-5.48-.54.49,1.06,1.97,1.11,2.97,1.41,1.32.39,2.05,1.44,2.51-.86ZM69.66,60.5c-.02-.61.87-1.55.24-2.06-.56-.45-5.6-1.78-6.03-1.21l-.31,1.74c.66-.07,1.69.74,2.06.79.26.04.62-.17,1.04-.07.6.14,2.71,1.06,3,.81ZM32.85,60.08c.96.03,5.06,2.1,5.06.11,0-.96-3.55-1.35-4.25-1.66l-.8,1.55ZM78,60.75l-6.22-1.52-.58,1.81,5.83,1.81c.74-.4,1.03-1.31.97-2.11ZM75.36,66.46l-20.7-6.07c-.19.01-1.28.94-1.36,1.07-.89,1.62-1.66,3.75-2.61,5.39-.32.56-2.75,3.92-2.5,4.19l21.55,6.33c1.48-1.88,2.4-4.32,3.46-6.37.51-.99,1.44-2.12,1.9-3.19.18-.42.35-.88.26-1.35ZM44.42,61.89c-.3-.34-4.33-1.5-4.72-1.1-.35.55-.45,1.23.18,1.59.22.13,3.55,1,3.84,1.01.77.02,1.11-1.03.7-1.5ZM88.53,64.04l-5.56-1.56-.77,1.63c.11.69,4.93,1.76,5.78,1.9l.56-1.97ZM123.98,64.09c-.67-.8-3.96-1.6-5.01-1.48-1.13.14-2.67,1.72-3.21,2.67-1.74,3.11.3,2.4,2.27,3.33.33.15,1.52,1.17,1.58,1.47.06.32-.35,1.21-.39,1.73-.13,1.92.01,4.01-.22,5.91-.68,5.48-3.1,10.59-5.5,15.54-2.84,5.85-5.75,11.35-8.59,17.06-5.08,10.21-9.68,19.81-14.87,29.85-.4.78-2.91,5.19-2.61,5.61,2.52-.82,4.69-1.97,6.68-3.73.74-.66,2.07-1.85,2.68-2.47.88-.9,1.9-2.69,2.8-3.45.42-.35.95-.32,1.16-.49.18-.15.63-1.35.99-1.63,1.25-.97,1.25-1.02,2.37-2.12.58-.57,2.21-1.36,2.54-1.73.19-.22.23-.87.57-1.18.3-.28.99-.33,1.19-.56.4-.48,0-1.25.1-1.74.21-.96,1.37-1.83,1.45-2.07.4-1.14-.06-3.3,1.99-3.38-.17-1.88-.6-3.52,1.57-4.28-.13-1.39.06-2.37.87-3.49.15-.21.6-.25.66-.48.17-.64-.26-1.35-.17-1.87.16-.95,1.48-1.73,1.66-2.52.25-1.1-.44-2.01-.03-3.32.23-.75,1.04-1.12,1.14-1.51.06-.24-1.22-3.49-1.29-4.55-.75-10.94,10.59-20.93,9.19-31.12-.06-.45-1.35-3.74-1.58-4.01ZM35.49,64.25l-4.25-1.12-.57,1.22,3.84,1.37c.48-.36,1.09-.79.98-1.47ZM95.51,66.03c-.18-.11-.62,0-.89-.09-.81-.27-3.37-1.27-4.02-1.26-.19,0-.33.03-.42.22l-.53,1.4c.14.89,4.45,1.21,5.37,1.66l.42-.2c.37-.31.4-1.52.07-1.73ZM41.81,66.25c-.34-.56-3.53-.75-4.29-1.08l-.95.94c-.08.49.12.26.32.35.81.37,1.57.46,2.36.71s1.63,1.28,2.36.24c.17-.24.35-.92.21-1.16ZM96.87,68.2v.32s5.6,1.64,5.6,1.64l.42-.21.54-1.43-5.14-2c-1.14.09-.47,1.63-1.42,1.68ZM108.26,77.4c-1.83-.38-3.48-1.29-5.22-1.91-5.05-1.8-10.27-3.68-15.37-5.19-.79-.23-3.88-1.14-4.43-1.12-.9.03-.54.54-.88,1.06-.84,1.29-1.45,2.67-2.32,3.71l-2.46,5.72,25.51,8.26,5.16-10.53ZM111.53,71.06l-6.44-1.99c-.02.66-.97,1.67-.1,2.08l6.02,2.09.53-2.18ZM34.02,78.8c.17-.21.46-.25.64-.57.14-.25.98-2.29.98-2.43,0-.66-1.49-3.51-2.01-3.89-.36-.26-2.59-1.07-3.05-1.07-3.19.01-5.87,3.46-5.03,6.52.81,2.95,4.33,4.44,7.03,2.95.07-.04,1.17-.87,1.23-.93.18-.19.11-.45.22-.58ZM39.65,76.52l2.48.64,1.02-1.41-2.49-.94c-.36.07-1.23,1.45-1.01,1.71ZM49.05,77.42c-1.47-.54-2.82-1.72-3.62.31l.28.57c1.72.41,3.12,1.93,3.34-.87ZM57.3,78.33c-.82.58-2.39,1-1.92,2.3.9,2.5,5.19-.25,1.92-2.3ZM40.48,79.85c-.3-.21-2.21-.66-2.55-.45l-.23,1.48,2.14.66c.06-.55,1.31-1.22.64-1.69ZM46.67,81.56c-1.32-.07-2.93-1.25-3.29.76l2.71,1.01.58-1.77ZM67.43,83.27c.14-.23.11-1.28.02-1.56-.43-1.28-3.82-.42-3,1.91.17.49,1.71.61,2.06.49.06-.02.89-.79.92-.84ZM38.31,99.08l4.16-8.6-.29-.38c-1.02-.31-2.13-1-3.07-1.32-4.8-1.64-9.83-2.92-14.59-4.7-1-.37-3.68-2.29-4.71-1.43l-4.71,8.32,23.21,8.1ZM37.88,84.21l-2.07-.64-.76,1.28,2.63.88.21-1.52ZM75.35,86.57c1.61-2.71-1.32-4.41-2.62-1.62-.76,1.64,1.47,1.82,2.62,1.62ZM82.66,89.4c1.22.69,3.66-1.42,2.27-2.6-.21-.18-1.27-.45-1.55-.42-1.12.11-1.56,2.54-.72,3.02ZM66.96,92.44c.28-.53,1.17-2.43.76-2.87-.68-.72-5.52-1.42-6.68-2.29-.78.74-3.78,6.27-3.61,6.85,1.88,1.53,4.46,1.78,6.63,2.75.71-.14,1.42-2.41,1.74-2.97.14-.24.93-1.05,1.15-1.47ZM90.97,92.29c1.36-.29,2.42,0,2.75-1.73.3-1.55-3.69-1.67-3.36.36.09.57.46.85.62,1.37ZM75.97,92.16c-.86-.32-2.35-.81-3.22-1.07-.71-.21-2.49-.79-3.08-.44-.4.83-.83,1.64-1.25,2.46-.34.66-.44.94-.76,1.66-.45,1.04-1.29,1.95-1.04,3.21,2.54.43,4.66,1.73,7.01,2.54.49-.23,1.72-3.76,2.09-4.49.15-.3.55-.49.72-.82.39-.74.52-1.57,1.13-2.16-.32-.53-.95-.39-1.36-.57-.17-.08-.18-.32-.24-.34ZM17.05,98.2l1.77-4.02-4.57-1.86c-.54.64-.75,1.46-1.11,2.08-.33.58-1.37,1.38-1.01,2.07.28.54,1.51.54,2.09.77.92.38,1.77,1.16,2.83.96ZM101,92.33l-2.39.06c-1.83,3.8,3.8,3.54,2.39-.06ZM86.95,96.08c-2.45-1.21-5.1-1.86-7.7-2.65l-3.75,7-.1.85c1.24.17,7.38,3.12,8.06,2.63.36-1.5,4.22-6.53,3.48-7.82ZM22.7,95.23c-.75-.24-1.58-.35-2.32-.71l-2,4.03c.22.45,4.44,2.2,4.91,2.1.78-1.35,1.75-2.75,2.12-4.25-.65-.81-1.74-.56-2.47-.82-.17-.06-.19-.33-.24-.35ZM62.3,100.92c.07-.12.42-.2.55-.42.28-.47.81-1.34.59-1.83-.35-.77-3.57-1.81-4.51-2.08-.63-.18-1.88-.6-2.45-.33-.76.37-3.14,5.53-3.81,6.56-.09.23-.15.49-.07.73.31.95,5.63,2.2,6.63,2.95.45-.08.61-.34.85-.68.81-1.14,1.48-3.57,2.22-4.91ZM85.26,105l8.62,3.26c1.2-1.59,1.99-3.61,2.89-5.42.13-.27.5-.43.63-.69s.59-1.84.54-2.03l-.48-.41-8.27-2.92c-.72.32-4.28,7.82-3.93,8.22ZM28.39,97.21c-.39-.14-1.38-.44-1.69-.21-.11,1.21-.66,1.71-1.13,2.6-.28.54-.15,1.15-.83,1.36.15.33,4.5,2.06,4.94,2,.88-.11.6-2.65,1.42-2.92l.66-1.49c-.14-.31-2.47-.78-2.99-.95-.28-.1-.32-.37-.38-.39ZM13.53,103.89l2-4.02c0-.25-4.24-1.95-4.6-1.77-.38.61-2.31,3.25-2.17,3.71.19.61,3.88,2.56,4.77,2.08ZM37.44,100.66l-4.34-1.32-2,4.36c1.19-.25,3.18,1.81,4.23,1.12.22-.14,2.23-3.93,2.11-4.15ZM72.72,101.97c-1.02-.71-2.3-.8-3.3-1.19-2.2-.85-4.01-2.67-5.31.31-.27.61-.21,1.27-.41,1.78-.23.6-1.06,1.51-1.25,1.87-.3.59-.94,2.12-.56,2.69.16.23,4.57,1.68,5.28,1.95.62.24,1.15.93,1.93.65.64-.23,1.11-2.46,1.37-3.03.63-1.39,1.53-2.97,2.23-4.35l.02-.69ZM20.74,105.18c.14-.22.09-.75.3-1.13.18-.33.99-1.43,1-1.55.06-.95-1.57-.88-2.12-1.09-.81-.32-1.73-.84-2.56-1.18l-.29.07c-.48.6-2.4,4.29-1.96,4.72,1.03-.21,3.2,1.67,3.86,1.72.78.06.91-.83,1.16-1.18.15-.2.52-.24.61-.38ZM28.25,104.36c-1.04,0-4.07-1.99-4.84-1.44-.42,2.4-3.57,3.91-.4,5.47.3.15,1.85.73,2.11.77.39.06.2-.36.43-.41.28-.07.68.09.91-.04.28-.15.58-1.99.76-2.42.15-.37,1.17-1.74,1.03-1.93ZM82.57,105.5c-.21-.37-7.69-2.78-8.06-2.58l-1.34,2.8-2.39,5.22c2.55,1.17,5.13,2.2,7.77,3.07.79-1.5,1.43-3.1,2.2-4.61.41-.8,2.24-3.18,1.83-3.89ZM124.7,105.24c.66-.59-2.47-1.46-2.8-1.49-.68-.06-1.06.51-.43.89.96.59,2.13.68,3.23.6ZM8.57,109.35c1.09.56,2.87-1.77,3.23-2.69-1.06-.41-3.14-2.12-4.1-1.35-.33.26-1.11,1.77-1.1,2.19.02,1.09.91,1.04,1.64,1.4.25.12.27.42.32.45ZM29.92,105.28c-.47.09-2.41,3.96-2.34,4.45.04.34.14.36.39.51.16.1,2.45,1.12,2.59,1.13,1.26.05,2.84-3.47,3.39-4.46l-4.01-1.63ZM48.22,112.89l6.85,2.63,3.64-7.33c-.04-.54-3.82-1.33-4.38-1.53-1.66-.61-2.31-2.33-3.55-.04-.77,1.41-1.84,3.16-2.31,4.71-.09.31-.41,1.39-.26,1.56ZM89.16,117.92l3.96-8.16c-2.8-1.37-5.82-2.27-8.83-3.18l-4.07,7.73c.12.75,2.78,1.37,3.42,1.63,1.28.52,3.26,1.58,4.44,1.91.27.08.9.23,1.08.07ZM18.61,108.96c-1.11.38-3.26-1.61-4.24-1.29-.64.66-1.27,1.76-1.03,2.68.05.2,3.08,1.85,3.64,1.61l1.63-2.99ZM67.42,111.46l-6.81-2.48c-1.5,2.32-2.77,4.77-3.85,7.31l7.34,3.17c1.2-2.5,3.11-4.67,3.85-7.33.03-.16-.47-.65-.53-.67ZM20.51,110.08c-.37.12-1.56,2.29-1.44,2.68.87,1.07,2.28,1.02,3.38,1.67l1.39-2.93c-.09-.39-2.81-1.59-3.33-1.42ZM30,113.79l-3.72-1.1-1.05,2.31,3.32,1.61,1.45-2.82ZM70.03,112.72l-4.07,7.3,7.56,3.35c.17-.01,1.23-1.29,1.29-1.47.3-.84.51-2.03,1-2.98.72-1.4,2.8-2.85.39-3.87-.43-.18-.89-.13-1.25-.28-.84-.36-4.33-2.19-4.91-2.05ZM120.71,115.14c-.08-.13-2.65-1.64-2.58-.81l2.3,1.42c.43.15.42-.38.27-.61ZM54.11,117.08c-1.37,0-6.13-2.78-7-2.53-.8.23-.66.89-.99,1.43-.86,1.43-1.91,3.13-2.61,4.62-.37.79-1.27,2.05-.19,2.55,1.32.6,3.89,1.4,5.36,1.87.26.08,1.6.47,1.7.37-.01-1.34,4.22-7.73,3.72-8.32ZM88.1,119.71l-8.84-3.27-3.86,7.52c.11.28.34.39.59.51,1.43.72,3.37,1.14,4.87,1.71,1.76.67,2.95,2.27,3.99.25.89-1.74,1.71-3.6,2.55-5.35.24-.49.86-.71.71-1.37ZM63.1,120.81c-2.52-.4-4.7-1.8-7.09-2.63l-4.06,7.99c0,.54,4.28,1.9,5.01,2.19.68.27,1.7,1.27,2.42.88.44-.24,1.34-3.16,1.66-3.82.72-1.48,2.1-2.82,2.05-4.62ZM72.53,124.97c-1.25-.12-6.69-3.14-7.45-2.76-.48.29-.42.91-.65,1.29-.13.22-.54.22-.63.51-.12.37.03.84-.08,1.24s-1.64,2.45-1.97,3.07c-.22.42-.84,1.48-.59,1.88l7.61,3.07c1.45-2.68,2.8-5.4,3.76-8.3ZM76.85,126.58c-.31-.11-2.44-.8-2.55-.73-.62,1.55-1.3,3.16-2.04,4.65-.23.46-.74.83-.91,1.28-.13.34.05.77-.16,1.14-.26.46-.93.44-.84,1.03l8.76,3.73c0-.21.02-.45.13-.63,1.47-2.38,2.9-4.93,3.77-7.57-.08-.41-3.68-1.95-4.34-2.21-.57-.23-1.37-.54-1.82-.7Z"/>
      <path d="M59.76,7.11c18.97,4.46,38.39,9.53,57.66,13.89,1.28.29,7.1,1.29,7.48,2.62.1.35-.32.97-.21,1.46.04.18.52.26.72.64,1.24,2.32-.18,8.2-.41,10.83-.13,1.44.16,5.36-.32,6.48-.06.15-.9.95-1,1.12-.16.25-.05.67-.27.94s-.67.21-.84.37c-.09.08-.84,1.53-1.17,1.96-3.09,3.95-6.51,8.05-9.94,11.59-.61.63-2.67,2.73-3.23,2.9-1.17.37-3.06-.33-4.24-.73-3.94-1.33-6.41-2.36-10.59-3.44-6.31-1.63-13-3.61-19.33-5.01-3.41-.75-6.92-.86-10.35-1.7-3.45-.85-7.9-2.24-11.25-3.44-4.49-1.61-9.31-4.1-14.23-4.4-3.78-.23-3.71,2.01-6.41,3.69-2.52,1.57-3.86.36-6.41-.3-4.43-1.15-8.74-2.27-13.17-3.71-1.81-.59-3.74-1.42-5.54-2.07-.27-.17-.31-.5-.36-.79-.16-1.08-.51-4.7-.37-5.59.08-.48,1.65-3.52,2.01-4.13,1.38-2.35,2.72-3.09,3.06-6.15.23-2.02.23-4.46.32-6.48.09-2.22-.2-4.46.26-6.65,1.23-.52,2.28-1.84,3.37-2.66,2.74-2.07,5.96-3.96,8.49-5.92.69-.54,2.5-1.97,3.24-2.3.17-.08.33-.16.53-.13.8-.02,1.8.5,2.47.62,10.1,1.84,20.1,4.15,30.04,6.48ZM27.16,14.27c-.13-.18-3.96-.88-4.29-.87-.75.02-.39.79-.54,1.14-1.17,2.67-3.28,5-4.99,7.55-1.6,2.38-3.24,4.82-4.72,7.12-.31.48-2.17,3.45-1.9,3.69,1.8-.1,3.42.98,5.24.63.69-2.54,3.33-4.75,4.03-7.28.18-.65-.16-1.08-.02-1.74.17-.8,4.96-8.34,5.65-8.98.51-.47,1.53-.45,1.54-1.26ZM31.62,22.23c.84-1.09,1.74-2.28,2.66-3.37.45-.53,2.24-1.89,2.07-2.49-.19-.65-4.62-1.16-5.35-1.01-.87.17-.69.96-1.11,1.52-.33.45-.88.78-1.2,1.22-1.16,1.59-3.51,6.45-4.89,7.17-.51.26-1.14.25-1.53.44-.66.33-3.06,5.08-3.57,6.07-.14.27-.49.42-.63.69-.23.46-.36,1.22-.56,1.74,2.04.13,4.29,1.25,6.28,1.3,1.62.04,2.3-2.54,3.17-3.79.47-.67,1.37-1.68,1.95-2.44.2-.26,1.06-.96,1.06-1.1,0-.31-.78-.58-.34-2.14.16-.56,1.63-3.36,1.99-3.82ZM43.31,19.89l1.17-2c-.12-.58-2.49-.21-3.08-.45-.18.19-.25.49-.43.67-2.68,2.63-4.04,6.64-6.57,9.43-.11.12-1,.82-1.11.87-.74.32-1.25-.36-1.75.2-1.25,2.25-3.63,4.43-4.78,6.63-1.04,1.98,2.79.73,3.68,1.95l2.62.53,1.02-2.39,4.48-6.27c.1-.44-.57-.57-.88-.55.06-.5.23-.97.43-1.42,1.04-2.28,3.72-5.2,5.19-7.19ZM46.13,29.3c.73-1.31,1.75-2.42,2.6-3.65.32-.46.44-1.06.82-1.6.88-1.26,2.1-2.51,3.03-3.76.05-.24-.15-.44-.36-.51-.36-.11-3.63-.47-3.8-.38-.77.68-1.12,1.54-1.66,2.3-1.12,1.6-2.2,3.23-3.26,4.85-.55.84-1.22,2.41-1.99,3.05-.53.45-.94-.03-1.59.14-1.18.31-1.71,2.35-2.37,3.35-.85,1.28-1.89,2.33-2.68,3.68-.13.21-.59,1.01-.48,1.16,1.28.26,7.01,2.18,7.89,1.65.24-.15.45-.76.66-1.04,1.08-1.44,1.58-2.86,2.45-4.41.52-.94,1.26-2.05,1.94-2.89.17-.72-1.82-.29-1.54-1.71.03-.14.3-.16.34-.24ZM54.02,35.21c.24-.41,1.19-1.65,1.19-1.99,0-.48-.86-.87-.62-1.7.08-.27.51-.55.67-.88,1.28-2.51,2.56-5.16,4.12-7.5.31-.47,1.5-1.02.5-1.61-.56-.33-3-.23-3.79-.48-.07,1.72-1.67,3.3-2.59,4.76-.71,1.12-1.17,1.89-1.89,2.93-.32.46-1.22,2.38-1.44,2.51-.33.19-.8.04-1.16.15-.57.18-1.73,2.8-2.16,3.54-.14.25-.52.31-.63.51-.78,1.39-1.47,3.42-2.18,4.88l6.43,1.51c.52-.15,2.04-4.05,2.43-4.81.33-.62.77-1.24,1.12-1.84ZM63.76,34.87c-1.18.4-1.71.09-1.25-1.14l5.41-10.15c-.09-.42-2.95-.71-3.51-.68-.44,1.05-.95,2.06-1.52,3.03-1.21,2.02-2.58,4.24-3.85,6.29-.81,1.3-1.08.97-2.4,1.32l-4.49,8.44,5.2,1.59,1.82-.05,4.59-8.67ZM77.35,25.67c-1,.43-3.05-1.27-3.74-.78-.17.12-.58,1.44-.81,1.82-.7,1.2-1.36,2.72-2.26,3.66l-2.91,4.44c-.69.57-1.89,0-2.46.5-.1.09-1.08,1.94-1.25,2.26-.74,1.49-1.32,3.13-2.18,4.61-.29.5-.8,1.01-1.14,1.46-.12.16-.32.12-.03.44.42.46,7.21,2.19,7.55,1.95l3.49-7.82c.18-.67-.22-1.01-.81-1.18v-.47s6.55-10.9,6.55-10.9ZM81.25,39.96c-.06-.1-.4-.12-.49-.26-.65-1,1.07-3.26,1.54-4.16.29-.54.4-1.16.71-1.7.5-.88,3.56-5.13,3.56-5.66,0-.5-1.27-.79-1.71-.91-1.09-.3-2.23-.31-3.33-.51,0,.22.02.5-.06.7-1.28,3.03-4,6.1-5.82,8.87-.83,1.26-.15,1.88-2.42,1.63l-3.88,8.31c2.37,1.24,5.04,1.36,7.57,2.08.91-1.25,1.89-2.51,2.37-4,.63-.5.59-1.21.87-1.76.31-.61,1.62-1.81,1.1-2.65ZM94.45,29.17l-4.17-.44c.27,1.64-1.18,2.56-1.94,3.87-1.17,2.03-2.75,6.24-4.29,7.76-.39.38-.92.4-1.2.77-.48.65-1,2.53-1.47,3.35-.31.56-3.04,4.05-2.72,4.41l6.55,1.29c1.27-2.81,2.22-5.8,4.18-8.19,0-.32-1.63-.38-1.27-1.7,1.01-1.41,2.05-2.82,2.95-4.3.98-1.6,1.64-2.88,2.43-4.58.14-.29.43-.26.56-.55.11-.24.45-1.63.38-1.7ZM95.55,43.42c-.79-.78,2.9-5.96,3.47-6.94.62-1.05,1.29-2.13,1.88-3.16,1.56-2.67.4-2.02-1.78-3.03l-.3.07c-.69,1.02-.75,2.64-1.72,3.32-.66,1.19-3.95,8.15-4.78,8.38-.41.11-.84-.02-1.22.05-.5.1-.99,1.71-1.17,2.16l-3.4,5.61c-.32.51.15.97.63,1.15.44.17,3.44.83,3.93.87.18.02.43-.03.58-.14.14-.09,1.64-2.42,1.87-2.8.56-.93.84-2.02,1.48-2.91s1.83-1.35,1.63-2.64h-1.1ZM114.18,34.22l-7.65-1.74c-.9,2.21-2.12,4.32-3.33,6.37-.12.2-.34.22-.41.34-.64,1.07-1.83,4.08-2.8,4.63-.54.31-1.58-.1-1.92.25-.44.47-1.07,2.24-1.45,2.9-.51.88-1.26,1.88-1.72,2.75-.29.55-1.34,1.95-1.01,2.47.2.32,2.23.84,2.73.97.59.15,1.71.38,2.38.51.53.1,3.1.54,3.34.39l11.84-19.84Z"/>
    </g>
  </g>
</svg>