<?xml version="1.0" encoding="UTF-8"?>
<svg id="Capa_2" data-name="Capa 2" xmlns="http://www.w3.org/2000/svg" viewBox="0 0 143.53 168.4">
  <defs>
    <style>
      .cls-1 {
        fill: #fff;
      }
    </style>
  </defs>
  <g id="STICKERS">
    <g id="_04_copia" data-name="04 copia">
      <g>
        <path class="cls-1" d="M141.33,69.19c-.33-1.05-.88-2.03-1.63-2.88-.07-.1-.14-.2-.21-.29-.35-.46-.75-.88-1.19-1.25-.18-.22-.38-.42-.58-.62-.03-.03-.05-.05-.08-.08-1.07-.98-2.28-1.64-3.55-2.11.17-.26.33-.54.48-.85,1.98-2.23,3.19-3.67,3.98-5.08.03-.04.06-.08.09-.12.74-1,1.22-2.12,1.45-3.3.92-1.75,1.16-3.8.64-5.74,0-.11.01-.23.02-.35l.02-.75c.02-.89.04-1.61.11-2.31.27-.78.44-1.57.49-2.35.46-1.13.66-2.38.56-3.64-.01-.16-.03-.31-.05-.46.05-.42.07-.81.07-1.13,0-.95-.19-1.89-.52-2.78-.02-.13-.04-.27-.06-.4-.12-.66-.31-1.3-.57-1.89-.04-.11-.08-.23-.12-.34-.19-1.45-.78-2.83-1.72-3.98-.26-.33-.55-.63-.86-.9-.69-.81-1.54-1.48-2.52-1.96-.52-.26-1.05-.45-1.6-.59-1.53-.66-2.98-.8-3.84-.85-.47-.15-1.09-.33-1.8-.49-.34-.13-.84-.31-1.48-.47-.72-.29-1.48-.48-2.27-.55-.66-.22-1.6-.48-2.75-.55-.18-.04-.36-.07-.54-.1-.81-.36-1.8-.66-2.93-.75-1.32-.85-2.83-1.28-4.33-1.28-.1,0-.19,0-.29,0-.18-.04-.35-.07-.53-.1-1.13-.57-2.37-.87-3.62-.87-.23,0-.47,0-.7.03-.62-.29-1.28-.5-1.96-.62-.51-.21-1.02-.38-1.54-.5-.53-.13-1.07-.21-1.62-.24-1.11-.54-2.35-.84-3.61-.84-.11,0-.21,0-.32,0-.33-.13-.74-.29-1.23-.45-1.76-.57-3.73-.92-5.46-1.23-.66-.34-1.38-.6-2.13-.75-.2-.04-.41-.07-.61-.1-.52-.2-1.07-.34-1.63-.43-.41-.15-.82-.27-1.25-.36-.19-.07-.39-.13-.6-.18-1.27-.34-2.44-.42-3.27-.46-.28-.13-.61-.27-.97-.4-.33-.12-.67-.21-1.01-.28-1.02-.35-1.96-.45-2.66-.45-.96-.31-1.86-.52-2.63-.7-.59-.14-1.4-.33-1.68-.46-1.04-.47-2.16-.7-3.28-.7-.08,0-.17,0-.25,0-1.11-.61-2.38-.96-3.71-.98-.22,0-.41,0-.59-.02-1.06-.56-2.25-.88-3.45-.93-.25-.1-.52-.19-.8-.27-1.01-.28-1.99-.41-2.78-.5-.03,0-.06,0-.09-.01-1.14-.59-2.4-.9-3.68-.9-.18,0-.36,0-.54.02-.14,0-.28,0-.41.01-2.86-.58-5.7-1.15-8.47-1.7-1.1-.58-2.16-.85-3.04-.96-.49-.18-1.01-.32-1.54-.4-.41-.06-.82-.09-1.23-.09-.27,0-.54.01-.81.04-.11-.02-.2-.05-.29-.07-1.27-.78-2.72-1.17-4.17-1.17-1.19,0-2.38.26-3.49.8-.39.19-.76.41-1.11.65-1.74.77-2.83,1.67-3.79,2.54-.2.12-.4.25-.58.38-.94.35-1.82.87-2.57,1.54-.31.13-.61.28-.9.46-.57.33-1.09.73-1.55,1.18-.87.54-1.68,1.22-2.39,2.03-.08.05-.16.11-.25.16-.43.28-.91.6-1.49,1.03-.22.17-.43.34-.62.51-1.46.73-2.43,1.75-3.06,2.64-.34.48-.85,1.33-1.18,2.47-.12.29-.21.57-.28.81-.21.72-.32,1.38-.38,1.95-.34.97-.5,2.01-.44,3.06-.02.4,0,.81.04,1.21.04.38.11.76.21,1.13-.05.5-.06,1.02-.01,1.52-.1.44-.17.88-.19,1.33-.23.85-.32,1.75-.25,2.66.02.21.04.41.07.6-.06.16-.11.32-.16.49-.25.31-.5.66-.73,1.06-.1.17-.21.37-.32.59-.71.86-1.18,1.75-1.51,2.53-.39.5-.72,1.04-.98,1.62-.01.03-.03.06-.04.09-.1.22-.18.44-.25.65-.38.62-.67,1.29-.87,2.01-.45,1.61-.35,3.03-.15,4.03-.06,2.11.02,3.59.27,4.82,1.34,6.71,6.35,7.94,8,8.34.13.03.29.07.46.12.79.26,1.46.4,1.93.49.29.12.72.31,1.03.44,1.54.67,3.13,1.37,4.78,1.7.81.33,1.66.53,2.55.61.11.06.22.11.33.16.79.38,1.63.64,2.49.77.93.39,1.8.56,2.5.63.1.02.19.03.29.05-.11.3-.22.61-.29.92-.04.08-.08.16-.12.25l-.44.94c-.84.8-1.54,1.81-2.04,2.94-.28.39-.54.82-.77,1.28-.13.14-.26.29-.39.46-.71.88-1.42,2.13-2.61,4.37-.16.16-.31.33-.45.51-.06.08-.13.16-.19.24-.33.44-.63.94-.87,1.47-.32.31-.61.65-.88,1.02-.43.58-.76,1.21-1.01,1.86-.81.93-1.39,2.04-1.7,3.23-.56.67-1.24,1.59-1.79,2.78-.3.65-.57,1.31-.85,1.98-.01.02-.02.05-.03.07-.28.28-.51.54-.7.78-.69.87-1.11,1.76-1.38,2.54-.38.44-.76.94-1.11,1.57-.45.82-.84,1.68-1.22,2.51-.1.23-.22.49-.34.74-.03.03-.05.05-.08.08-.21.15-.42.31-.61.49-.81.71-1.45,1.57-1.91,2.5-.12.16-.23.33-.34.51-.46.75-.79,1.56-.98,2.4-.15.21-.3.43-.46.66-.2.18-.4.38-.58.58-.77.86-1.33,1.85-1.66,2.89-.05.08-.11.17-.16.26-.08.13-.49.78-.56.9-.83.78-1.48,1.71-1.91,2.73-.02.04-.05.08-.07.12-.35.61-.61,1.25-.78,1.91-.18.43-.33.87-.44,1.32-.84,1.83-1.38,4.03-1.15,5.89.17,1.35.63,2.39,1.03,3.12.11.65.26,1.4.49,2.25.04.14.08.28.12.41.08.55.21,1.1.4,1.64.14.38.3.74.49,1.08.73,2.23,2.11,4.22,3.78,5.44,1.08,1.18,2.5,2.01,4.06,2.38.95.75,2.07,1.32,3.31,1.64.15.04.3.07.45.1.96.61,2.04,1.02,3.19,1.18.03.01.07.02.1.04.4.31.86.61,1.38.88.34.17.7.33,1.08.47.19.13.38.25.58.37.79.45,1.63.76,2.49.92.49.23.94.39,1.32.51.53.35,1.11.63,1.71.84.25.12.49.23.73.32.23.14.49.28.75.4.22.11.45.2.68.29.48.36,1.09.72,1.82,1,.41.16.84.29,1.28.38.44.22.87.39,1.29.52.42.18.86.33,1.32.44.09.04.18.09.27.13.36.17.78.38,1.28.59.02.01.03.03.05.04.98.75,2.11,1.25,3.3,1.48.47.2.96.37,1.48.5.86.77,1.88,1.35,2.99,1.69.03.02.05.03.08.05.79.51,1.66.87,2.56,1.07.26.09.53.17.8.23.36.31.76.58,1.18.82.68.39,1.41.67,2.15.85.58.31,1.19.54,1.82.7.09.05.18.1.28.15,1.29,1.04,2.84,1.63,4.43,1.75.42.22.91.46,1.47.7,1.6.69,3.16,1.44,4.8,2.23,2,.96,4.06,1.95,6.31,2.89.31.13.62.24.94.33.22.16.44.3.67.44.66.39,1.37.69,2.11.91.26.14.53.26.8.37.56.31,1.16.56,1.78.73.51.29,1,.5,1.44.67.6.44,1.27.81,2,1.07,1.02.67,2.2,1.1,3.46,1.26.93.48,2.11,1.04,3.46,1.42.88.52,1.87.88,2.91,1.05.44.07.88.11,1.31.11,1.75,0,3.45-.57,4.84-1.63,1.01-.56,1.76-1.25,2.28-1.85.14-.16.42-.48,1.33-1.8.08-.12.17-.25.24-.37.05-.06.1-.12.15-.18.48-.14.9-.29,1.26-.42,2.07-.14,3.98-1.07,5.36-2.57.36-.27.67-.54.95-.82.37-.21.71-.43,1.03-.66.51-.23,1-.51,1.46-.85,0,0,.01,0,.02-.01.59.1,1.19.16,1.81.16,2.49,0,4.74-.89,6.38-2.5.72-.19,1.42-.47,2.07-.84,1.21-.69,2.19-1.64,2.92-2.79,1.86-.92,3.75-2.87,4.8-5.11.75-.59,1.39-1.32,1.89-2.15.25-.16.48-.33.72-.52l1.08-.88c1.49-1.21,2.44-2.87,2.79-4.66.24-.24.46-.5.67-.77.97-1.27,1.53-2.8,1.63-4.36.65-.94,1.14-2.05,1.36-3.26,1.45-1.79,2.2-3.98,2.15-6.23.87-1.34,1.39-2.89,1.51-4.48,1.22-1.41,1.96-3.24,1.96-5.25v-1.68c0-2.39-1.07-4.63-2.89-6.15-1.32-1.54-2.92-2.24-4.18-2.59-.27-.17-.55-.32-.84-.45.03-.06.06-.11.08-.16.17-.33.33-.63.46-.88.1-.19.18-.38.26-.57.4-.6.72-1.26.95-1.95.48-1,.87-2,1.22-2.9.28-.71.69-1.78.92-2.17.77-.92,1.3-1.97,1.59-3.07.16-.27.32-.58.48-.92.55-1.21.88-2.36,1.14-3.29.08-.27.18-.63.25-.84.71-1.25,1.07-2.65,1.06-4.05.07-.26.13-.53.18-.81.83-4.73-1.33-10.34-1.78-11.42-.07-.17-.15-.34-.23-.51Z"/>
        <path d="M52.12,56l-.24.72c.57.05,1.42-.04,1.95.14.98.33,2.55,1.59,2.9,1.73,1.09.44,3.6,1.21,4.92,1.63,1.91.6,4.6.85,6.47,1.49,2.08.72,4.93,1.18,7.2,1.88.48.15,1.4-.14,1.66-.09.17.04.03.31,1.09.54.81.17,1.19.45,2.14.11v.72c.82-.62,1.15.09,1.62.19.79.17.49.02,1.37.31.8.27,1.41-.13,1.89-.03.12.02,1.48.57,2.17.73.82.19,1.13.75,2.31.24l-.12.48.59-.25v.72c1.04.08,2.78-.06,3.71.13.46.09,1.05.47,1.67.62.72.17,1.96.03,2.18.68h.35s0-.48,0-.48h.48c-.18.91.56.93,1.32.98,2.31.14,4.14.68,6.41,1.48.6.21.67.94,1.63.41v.72c1.37-.82,3.06,1.9,3.72.48.21.16.37.49.6.59.69.29,1.67.31,2.5.38.18.02.12.42.31.47.3.07,1.69-.3,1.75-.24l-.24.72c.99-.56,1.11.32,1.61.45.14.04,1.87-.49,1.99-.57.44-.3.33-1.43.71-1.93.17-.23.6-.31.73-.48,1.05-1.39,2.36-2.88,4.19-3.18,1.09-.18,1.33.03,2.19.17,1.06.17,3.54.5,4.37,1.26.06.05-.26.76.91.91l-.14.97.72-.24c-.31.82.37.92.46,1.15.71,1.73,1.63,5.06,1.29,6.99-.17.95-.93.94-.3,2.28-.81,1.25-1.03,3.27-1.71,4.76-.27.6-1.26,1.73-.94,2.2-1.53,1.77-2.26,4.92-3.39,7.09l-.69.02.12.44.36.16-1.19.72.45.68c-.41.81-1.26,2.27-1.49,3.08-.38,1.31-.43,2.87-1.12,4.17l.49.24c-.29.34-.02,2.48.1,2.74.22.49,1.33,1.53,1.6,2.13,1.07-.6,1.53-.23,2.45-.23.36,0,.77-.29,1.19-.23.18.03.15.44.45.57.37.16,1.76.27,1.87.42.06.09-.55,1.47.96.94v1.68s-.72,0-.72,0l.14.73-.3.19c-.52-.07-1.23.28-1.65.26-.58-.03-1.1-1.07-1.43.03h-.35s-.14-.5-.14-.5c-1.03.55-.68.03-1.09-.31-1.54-1.29-3.73-2.08-3.05,1,.58.36,1.39.36,1.93.54.38.13.49.19,1.09.36.83.24,1.88.84,2.68.59l.05.67c1.18-.1,1.08,1.62.36,2.13-.33.23-2.04.85-1.95.1-.77.46-1.21.12-1.7-.5l-.24.48c-.79-1.04-1.06-.94-2.12-1.06-.35-.04-1.01-.42-1.58.13-.36.35.68,1.68.46,2.13l2.51-.26.13.74c1.88-.43,4.9,2.16,2.76,3.84l-.24-.49c-.26,0-2.21,1.54-1.56.25-.28-.25-1.36.67-1.44.84-.22.45.94.59.97.96-.07.63,1.32,1.25.94,1.79-.5.71-3.72.16-4.56-.24l.24-.71c-.91.21-1.1-.59-1.5-.8-.47-.24-1.07.09-1.27-.65l-.57.41-.24,1.6c1.08,1.39,3.15.75,4.53,1.96.48.42.43.86.72,1.21.31.36,1.06.62,1.2,1.31l-.69.04-.04.68c-.71-.34-1.37.08-2.05.03-.43-.03-.31-.44-.51-.49-.43-.11-.93.12-1.67-.35-.62-.39-.97-1.65-1.45-1.79-.96-.28-.83.44-1.09.61-.1.07-.5-.2-.67.2l.51,1.29c.68-.34,1.11.3,1.83.45.47.1,1.54-.05,1.72.09.15.11.12.95.76,1.06l-.25.82c1.42-.24.68,1.57,1.44,1.44l-1.08.88c-.28-.31-.53-.18-.78-.23-.66-.12.12-.26-.06-.41-.52-.44-.41.85-.96.48l-.35-.66-1.1.18.24-.83c-.24-.57-.84-.13-.92-.18-.18-.1-.62-1.45-1.55-1.34-.56.26-1.06.57-1.13,1.24.69.83.87,1.07,2.17,1.11l-.24.48,1.17-.22c.08.54.77,1.26.87,1.67.07.3-.53.61.13,1.31-.29.02-1.71.54-1.81.53-.49-.05-.72-1.25-.95-.16l-.6-.25c.03-.48.7.02.48-.71l-.73-.13-.22-.73c-.87-.11-2.31-.34-1.87.97.04.11.65.3.42.85l.96-.24.03.68,1.53.51c-.45.8.55,1.41.55,1.57,0,.08-.9,1.22-.97,1.25-1.44.49-1.9-.83-2.84-1.71-.29-.27-.76-.3-1.06-.63-.36-.4-.35-1.42-1.43-1.19-.31.07-.34,1.1-.31,1.15.06.09.42.13.51.29.61,1.08.68.93,1.22,1.67.4.55.94,3.18.38,3.49-.41.24-1.24-.09-1.58-.37-.11-.09-1.63-2.05-1.69-2.18-.11-.26.06-.48.13-.71h-.96s-.11-.48-.11-.48c-.53.25-.12.77-.2.91-.05.09-.48-.05-.41.4.04.28.31.47.37.73.04.19-.16.47-.13.67.01.08.89.47.48,1.36l.71.12c-.83.37-.21,1.46-.26,1.53-.32.47-1.62.3-1.89.01-.12-.14.21-.65.1-.96-.19-.52-.8-.83-1.21-2.14-.54-1.77-1.25,1.51-1.35,1.63-.12.14-.71.1-.99.27-.24.14-.37.63-.63.87-.66.61-1.48.9-1.46,2.03l-.7-.23c-.24,1.25-1.45,1.31-2.16,1.8-.25.17-.34.6-.64.8s-.89.18-1.01.32,0,.53-.05.65c-.02.04-.47-.16-.85-.04-.78.24-1.48.6-2.32.82-.79.21-2.84.32-3.15.91-.13.25.47.6-.63.48l-.47.48.48.24v.48c-.72-.08-.51.68-.77,1.04-.13.19-.74,1.05-.79,1.11-.37.42-1.19-.01-1.08.73-.43-.07-.4-.41-.24-.72-.57.02-1.13.03-1.69-.11-1.37-.33-3.1-1.51-4.01-1.76-.36-.1-.89.38-1.02-.29l.48-.24-1.56-.72-.35.48c-.07-.87-1.68-.83-2.24-1.18-.49-.31-.46-1.09-1.83-.76v-.7s-.97.24-.97.24v-.72c-.51.16-1.29.29-1.77,0-.28-.17-.08-.6-.18-.69-.09-.09-1.89-.36-2.43-.59-3.81-1.59-7.23-3.44-11.01-5.07-1.06-.46-1.71-.91-2.57-1.33-.36-.18-1.09-.2-1.49,0l.24-.96c-1.21,1.16-2.26-.96-3.6-.72l.24-.72c-.63.27-1.31.2-1.56-.48l-.59.48c.03-.19,0-.37-.18-.47-.91-.5-2.16-1.08-3.18-1.21l.48-.47-1.06-.26-.25.49c-.45-.29-.2-.55-.12-.96h-1.92s.24-.72.24-.72c-1.08.38-1.75-.59-2.26-.77-.8-.28-1.96-.13-2.43-1.13l-.83.22v-.7c-1.67.13-2.97-1.18-4.56-1.47l.24-.72c-1.28,1.04-1.45-.11-1.98-.33s-.98.09-1.1.04c-.08-.03-.58-.72-1.24-1.03-.2-.09-.54.06-.72-.03-.29-.14-.46-.59-.71-.69-.49-.2-.54.63-1.09-.85l-.48.48c-.62-.76-1.72-.69-2.62-1.23-.51-.31-.27-1.19-1.58-.45v-.72c-.46.16-1.59-.09-1.99-.3-.49-.25-.51-.8-.9-1.03-.35-.2-1.79.07-2.02-.81l-1.11.11-.23-.86c-.92.58-1.04-.89-2.01-.24l-.14-.48-.35.48c-.76-.2-.54-.81-.64-.91s-2.44-.76-2.84-.77c.6-1.42-.86-.87-1.2-1.06-.43-.25-1.3-2.13-1-2.74l-.44-.04.48-.47c-.44.09-.72-.63-.81-.99-.26-.95-.36-1.75-.52-2.64-.09-.51-.74-1.29-.78-1.58-.02-.18.57-2.37,1.12-2.37-.67-1.19.91-.68.27-1.78h.73s-.24-.96-.24-.96l.72.24c.13-.42.14-.99.32-1.37.12-.24.71-1.16.96-1.57.35-.6,1.37-1.13.88-1.87l.48.24c-.02-.21-.03-.43.09-.62.59-.95,1.09-1.66,1.6-2.37.31-.43.51-1.58,1.19-1.09l-.48-.96h.96s-.24-1.2-.24-1.2l.72.24c.01-.26-.05-.57.05-.8.07-.18,1.15-1.18,1.26-1.37.61-1.08,1.33-2.89,1.96-4.06.12-.22,1.16-1.17,1.29-1.4.2-.38.23-1.28.47-1.59.19-.24.61-.03.75-.3.68-1.32,1.19-2.78,1.81-4.14.68-1.49,2.49-2.28,2.26-4.11l.47.24c.13-.46.25-1.16.51-1.54.35-.51,1.02-.15.45-1.1,1.24.29.7-2.12,2.16-1.44.19-.41-.59-.81-.48-.95.01-.02.33.05.4-.07.51-.96,2.14-4.14,2.71-4.86.23-.29.72-.38.94-.74.41-.66,0-1.67,1.23-1.54-.34-.42.02-1.34.3-1.61,1.24-1.18,1.31-1.55,2.13-3.27.28-.59.83-.87.69-1.84l.72.24-.24-1.2c1.38.32,1.06-2.16,1.5-2.6.11-.11.52.07.67-.2.72-1.25,1.48-3.71,2.46-4.58.12-.1.47,0,.59-.12.12-.12.01-.49.11-.6.06-.07,1.7-.73,1.8-.74.28-.03.54.36.91.4.64.06,1.44-.09,2.11.09.46.13.84.6,1.05.63.28.04.49-.34.68-.35.27-.03.88.52,1.32.39ZM50.42,58.67l-4.78-.99-.22,1.65c1.71,1,5.23,2.61,4.99-.66ZM55.93,60.28c-.17.12-.36.05-.53,0-1.19-1.5-4.42-1.05-3.47,1.19l3.06.77-.48.47c.96-.08,1.43-.42,2.27.26l1.32-2.06c-.02-.31-1.47-.8-1.79-.36l-.12-.71c-.4-.1-.16.35-.26.43ZM45.82,61.82c-.69-.31-1.47,1.09-2.23-.29-.83.75-.34,1.53-.12,2.4.85-.58.63.17.89.24.65.18.98-.32,1.39.72l.23-.48c.66.72,1.26.17,2.03-.02-.48-.56.76-.52.14-1.43-.99-.74-1.81.25-2.34-1.13ZM68.83,63.3c-.61-.35-2.23-.95-2.92-1.18s-1.58.58-1.92-.59c-2.67,1.62-.97,3.88,1.56,3.6l-.24.48,4.42.48.77-1.45-.87-1.43-.6.48c-.19.08-.05-.29-.2-.38ZM50.84,63.75c-.25-.1-1.39.14-1.61.29l.02,1.29c.84.06,1.21.89,1.84,1.17.9.4,2.22.05,3.06.72l1.08-1.86c-.61.21-.66-.35-.88-.45-.14-.07-.68.48-.83-.49l-.57.19c-.46-.42-1.45-.6-2.11-.86ZM76.31,64.92c-.35-.2-.87.18-1.25.14-.42-.05-.76-.58-.99-.58-.15,0-.37.36-.68.35-.37,0-.89-.49-1.23-.4-.06.01-.85.8-.86.86-.11.58.25,1.18,0,1.75.96-.34,1.33.49,1.86.67.46.16,1.78.46,2.33.58.27.06,1.7.24,1.79.18.15-.11.19-1.28.99-1.19v-.47s-.48-.24-.48-.24l.48-.12-1.08-1.08-.24.48c-.34-.12-.53-.85-.64-.92ZM41.79,66.09h-.47s-.71,1.89-.71,1.89c.55-.02,2.13,1.17,2.26,1.17.34,0,.86-1.03,1.69.29l.39-.7.69.23.24-2.16-.6.72-1.32-.72.25-.47-2.3.21-.11-.45ZM82.54,67.1c-.38-.18-1.68.08-1.99.08-.22,0-.39-.52-.93-.13-.68.49-.55,1.39-.33,2.08.12.18,1.74.76,2.08.86.64.19.67.11,1.4.38.8.3,1.54-.07,2.33.74.64-.79,1.11-1.6,1.08-2.62-1.02-.09-1.99-.78-2.9-1.09-.61-.21-.44-.17-.75-.31ZM62.95,68.17c-.1-.08.06-.48-.16-.41-.61.65-1.64.95-2.15,1.69-.95,1.38-1.4,3.62-2.2,5.01-.45.79-1.91,2.22-2.46,2.93.61,1.15-.31.61-.27,1.41,1.41-.49.88.67.96.72.09.05,1.5.17,1.98.31.94.26.72.85,1.98.18l.38.95c1.17-.12,2.73.44,3.73,1.19l.45-.47c.42.4.8.53,1.32.24v.72c.52-.46.79-.38,1.44-.24l-.48.47c.52-.07,1.83-.09,2.29.1.32.13.28.52.39.59.14.09,1.71-.49,1.64.51l.36-.48c.53,1,1.26.42,1.87.57.89.22,1.81.96,2.97.99,1.55.04.92-.73,1.34-1.03.15-.11.5,0,.62-.07.07-.04.1-1.38.33-1.61.11-.12.53.07.68-.19.19-.34-.04-.92.01-1.12.28-1.03,2.27-3.3,2.55-4.05.05-.13-.21-.39-.06-.67.05-.09.84-.74,1.08-.73l-.48-.36.48-.48-.48-.24.48-.24c-.27-.31-.56-.58-.95-.73-1.53-.57-3.92-.67-5.47-1.24-.33-.12-.28-.58-.76-.68-2.47-.54-6.77-1.57-8.86-2.49-.83-.36-2-.59-3.11-.92-.52-.15-1.4-.08-1.46-.13ZM51.39,68.48c-1.05,1.13-1.51-.21-2.39-.37-.22-.04-.9.44-1.42.15l-.48,1.87c1.89.56,3.57,1.77,5.49.75l-.45-.26.23-1.02-.98-1.12ZM131.97,71.41c-2.03-1.03-4.15-1.93-6.32-.78-.43.22-.48.52-.78.72-.27.19-1,.28-1.18.56-.08.13-.69,1.89-.87,2.34-.13.32.4.82-.39.72v.23c1.19.41,1.77,1.57,3.11.97-.2.95.44.61.64.79,1.13,1.05.47,2.04.46,3.41s.22,2.97.11,4.32c-.1,1.22-.79,2.78-.96,3.86-.05.29.26.72.21.8-.05.08-.47.09-.58.26-.06.08-.14,1.49-.28,1.92-.21.6-1.48,2.88-1.51,3.05-.12.62.52,1.3-.23,1.52l-.48-.48c.19.82.06,1.94-.29,2.72-.15.34-.53.35-.59.47-.95,1.79-1.61,3.69-2.45,5.4-.29.59-1.44,2.2-1.45,2.35-.02.25.39.65.02.95-.43.72-.95.3-.98.35-.07.11.19.45.1.73-.63,1.78-2.22,3.06-2.26,5.04l-.72-.24c.23.69.02,1.15-.27,1.77-.24.51-.95,1.76-1.41,1.83,1.1,1.16-.46.96-.71,1.21-.02.02.17.34.13.54-.21.88-.94,2.56-1.82,2.81v.23c1.24.06-.55,1.5-.49,2.16l-.47-.24c.5.82-.53,1.46-.65,1.76-.11.26-.06.8-.33,1.41-.14.31-.74.06-.21.92l-.69.02-.31,2.11-.68.03c.52.86-.04.59-.21.91-1.35,2.53-2.44,5.03-3.52,7.46-.25.55-1.51,2.19-1.53,2.34-.07.71.45,1.14-.96,1.55.09.77-.66,2.3-1.14,3.34-.06.14-.44.18-.51.29-.21.34.31,2.07-1.01,1.39.41.61-.12.39-.22.66-.17.47-.27,1.43-.5,1.81-.19.32-.63.09-.72.17-.04.03.16.6.08.91-.19.76-1,1.38-.77,2.28.01.04.58.62.63.64.97.25.77-.44,1.01-.59.44-.27,1.88-.61,2.83-1.25.38-.26.75-.94,1.08-1.11s.92-.07,1.09-.22c.13-.11.07-.69.38-.94.33-.26.9-.12,1.06-.26.12-.11.02-.57.29-.79.39-.3.96.22.72-1.08l.44.21c.46-1.29,1.65-2.11,2.51-3.09.73-.83,2.04-1.76,2.9-2.9.14-.19.15-.47.14-.7l.7.23c.15-.6.65-1.04,1.1-1.43s1.79-1.08,2.16-1.44c.71-.71.53-1.9,2.28-1.44.13-.64-.15-.35-.48-.6.9-.96.71-2.65,1.43-3.79.15-.24.64-.27.69-.54.08-.36-.4-1.09.04-1.85l1.68-1.02c-.92-.17-.06-1.37-.02-2.19.02-.32-.26-.79-.23-.81.13-.05.48.1.67-.06.1-.09.04-.44.15-.56.16-.19.76-.58.79-.65.21-.46.09-1.23.57-1.74l-.49-.6h.72s-.48-.6-.48-.6l.95.12c.22-.21.21-2.7.34-3.12.21-.65,1.46-2.2,1.53-2.56.31-1.83-.34-3,1.02-4.7.11-.14.3-.2.48-.18v-.23c-1.39-.06-.33-1.69-.48-1.92l-.66-.12c.41-1.06-.32-1.61-.47-2.46-.19-1.1.42-4.88.68-5.91.05-.2.42-.16.54-.45.26-.6.15-1.83.42-2.2.55-.76.66-1,1.05-2.09.28-.78.28-1.86,1.35-2.05l.26-2.23.69-.02-.48-.72c1.24.05,1.28-1.97,1.75-2.94.94-1.95,1.3-1.75,1.67-4.07.23-1.46.94-.96,1.15-1.16.08-.08-.31-.89-.25-1.28.03-.18.54-.17.63-.62.13-.7-.32-2.67-.28-3.02.03-.22.35-.43.37-.72.02-.41-.48-.79-.47-1.21.01-.37.48-.68.47-.72,0-.2-.62-.28-.69-.4-.09-.14.23-.53.1-.91-.03-.1-.84-1.73-.92-1.86-.12-.21-.71-.15-.47-.74ZM93.2,70.84c-.11-.07-.13-.45-.28-.56-.62-.42-1.85.19-2.61.15-.94,2.21-.14,1.34.4,1.95.12.14,0,.54.07.62.13.14,1.46-.04,1.96.09s1.03.91,1.5.9c.08,0,1.51-.51,1.57-.56.31-.28.84-1.22.6-1.59-.44-.23-.84-.73-1.28-.9-.58-.22-1.82-.04-1.92-.1ZM43.43,73.23c.09-.16,0-1.42-.18-1.51-1.09,0-2.59-.98-3.54-1.02-.45-.02-.91.54-1.51.18l.96,2.4.37-.49c.98,0,3.36,1.39,3.9.44ZM102.17,73.39c-2.1-1.01-3.89-2.35-5.42.37h.7s.02.96.02.96c.93-.03,1.76-.23,1.68.96.4.11.11-.46.38-.5.83-.11,3.72,1.14,4.18.74l-.22-.83c.26-.44.89-.18.7-.85-.61.22-.67-.37-.9-.47-.36-.15-.54-.11-1.12-.38ZM46.07,72.99c-.24.1-1.15-.77-1.52-.19-.4,1.99.42,1.3.86,1.57.21.13.27.58.48.72.23.15.71-.13,1.13.03.26.1.25.45.49.55.22.09,1.71.25,1.85.03l.53-1.58c-.54-.96-1.57-1.18-2.57-.84l.24-.72c-1.05-.41-1.41.39-1.49.43ZM111.15,75.71c-.97-.2-2.14-.97-3.06-1.17-.45-.1-.77.16-1.1.12s-.57-.39-.95-.36c-.96.06-.82,1.27-1.36,1.86l.59.23-.11.49.74-.13c.28,1.07.67.36,1.27.45,1.2.18,2.58,1.16,3.75.4l.24.48v-2.37ZM93.31,76.98c-1.06-.5-2.38-.83-3.15.39-.14.23.14.54-.11.82s-1.05.48-1.15.66c-.16.27-.09,1.07-.26,1.54-.27.75-1.57,2.38-2,3.3s-.07,1.57-1.36,2.21l.92,2.5c.41.11.11-.5.37-.5.42,0,2.85.77,2.75,1.46l.24-.48c.67-.2.37.43.86.66.11.05.39-.08.57,0,.92.36,1.8.86,2.87.55-.27,1.13,1.19.62,1.94.81.92.23,2.74,1.42,3.27,1.52.3.05.62-.19.88-.18.18.01.15.45.44.57.68.28,1.35.24,2.18.54,1.1.4,2.36.43,2.9.61.32.11.32.57.44.64.56.34,3.82.25,4.03,1.49l.6-.71.84.47-.13-.48c1.16.06.43-.96.78-1.61.25-.47.72-.5.77-.59.1-.16-.22-.45-.16-.63.04-.11,1.02-1.42,1.12-1.67.33-.77.78-1.94.85-2.71h.59c-.12-.81,1.43-2.62.67-3.29-.3-.26-1.82-.73-2.32-.92-1.55-.58-4.41-1.32-5.82-2.05-.24-.12-.62-.73-1.03-.94-.64-.32.17.82-.47.47-.72-.39-1-1.25-2.04-.72l.24-.72c-1.43.62-2.39-.43-3.6-.24v-.72s-1.68,0-1.68,0l.24-.48c-.66.31-1-.12-1.58-.22-1.22-.21-.83-.26-1.37-.44-.31-.11-1.54-.05-1.72-.11-.35-.1-.32-.58-.41-.64-.08-.06-.51.25-.78.23-.15-.01-.16-.35-.24-.39ZM119.55,80.24l-.95-2.02c-.98.12-2.2-.98-3.01-1.23-.23-.07-.71.12-1,.07-.55-.09-1.64-.99-2.12.07-.03.07-.22,1.55-.21,1.63.21,1.38,1.37.66,1.84.8.41.12,1.58.56,2.14.75,1.01.35,1.63,1.17,2.83.89l-.24-.83.72-.12ZM41.73,79.35c-.22-.14-.61-.07-.86-.21-.33-.18-.95-.76-1.15-.79-.28-.03-.48.34-.68.35-.16,0-.59-.43-1.25-.31-.6.1-1.3.63-1.88.77-.22.05-.72-.22-.83-.12-.05.04-.08.76-.37,1.19-.3.45-.93.62-1.08.92-.15.31,0,.79-.05.89-.07.15-.42.14-.51.42-.35,1.11-.06,2.74.49,3.77.12.22,1.64,1.96,1.82,2.09.11.08,2.33.78,2.46.79.71.05,1.86-.57,2.75-.34v-.85s.96.24.96.24l-.24-.72c1.34.37.52-2.3,1.9-1.96-.04-.68.06-.79.75-.69l-.73-3.6c-1.09.48-.66-1.31-1.51-1.85ZM48.54,84.84l.93.34c1.14-.74,1.79-2.24.25-2.9-.08-.03-1.64.17-1.7.23-.34.28,0,1.06-.67,1.2l.69,1.57.46-.02.05-.41ZM57.16,86.72c-.45-.6.18-1.16.13-1.45-.17-1.08-.99-.4-1.41-.51-.3-.07-.44-.51-.96-.63-1-.24-1.39.9-1.49.9l-.6-.48.77,1.87c.86-.25,1.45.65,1.78.72.42.09,1.27-.43,1.77-.43ZM66.03,86c-.52.37-1.09-.18-1.32-.17-.08,0-1.26.9-1.33,1-.6.81-.23,1.44-.21,2.27.88-.08,2.07.8,2.79.19.12-.1.79-1.59.8-1.72,0-.1-1.21-.52-.73-1.57ZM47.98,89.3c.73-.8.39-2.32-.78-2.37-.6-.03-1.19.33-1.81.27.21,1.97.8,1.49,2.04,2.33.17-.05.44-.11.55-.23ZM75.5,89.51c-.37-.6-.47-.95-1.19-1.35-.1.9-1.35.29-1.55.49-.09.09.12,1.46-.96,1.46l.19.67-.44.15c.68.86,1.77,1.06,2.28,1.8.27-.94,1.02-.7,1.06-.76.07-.12-.05-.47.08-.62.18-.21,1.36-.21,1.15-1.02l-.72.48.49-1.08c0-.12-.32-.11-.38-.22ZM53.8,91.28c1.12-.8.87-2.08,0-2.88v.72s-2.37-.21-2.37-.21l-.28,1.03c.51.26.69.49.73,1.1l.83-.26.25.5.6-.37.24.36ZM29.7,90.18c-1.08-.57-2.09-.26-2.58.83l-.69-.21c.56,1.36-.39,1.92-.93,2.79-.58.94-.88,1.77-1.35,2.73-.65,1.32-1.55,1.82-.45,3.13,1.28.05,2.46.91,3.68,1.32.68.23,3.24.21,2.3,1.57-.51.74-1.5-.3-1.57-.25-.3.8-.71,1.6-1.15,2.33-.16.27.12.31-.37.27-1.51-.1.03-1.49.08-2.02.17-1.94-1.67-1.49-2.48-2.01-.24-.16-.33-.69-.53-.73-.26-.05-.52.38-.75.41-.29.04-.59-.19-.88-.13-.51.11-.55.77-.8,1.14-.51.77-.32.76-.46.99-.04.07-.99.93-1.05,1.12-.08.27.06,1.1.32,1.3.35.28,1.7.22,1.78.27.11.08.12.45.28.55.12.08,1.69.28,2,.35.23.05.02.9.96.21.48-.35.84-1.09,1.35-1.4v1.2s-.72-.24-.72-.24c.27,1.29,2.05,1.64,3.06,2.09.79.35.3.27,1.57.55.13.03.31.82,1.12.47l-.24-.72.69-.02c.16-.42.42-1.43.63-1.89.16-.35.71-.81.74-1.09.02-.19-.38-1.41-.55-1.58-.08-.08-1.55-.86-1.64-.86-.22,0-.44.54-.83.4-.17-.58-.24-1.42.6-1.44.17,0,.06.41.42.57.6.26,2.22-.07,2.34,1.12l.26-.45h.29c.61,0,1.16.77,1.53.88,1.45.41,2.41.72,3.84,1.2.59.2.95.31,1.47.5,1.03.38,2.9.45,3.17,1.47l.24-.48c1.18,1.21,1.54.15,2.88.24.04-.55-.84.13-.71-.59.15-.83.9-.55.96-.61.03-.03-.23-.4-.19-.58.06-.27.48-.28.66-.58.45-.77.18-1.22.35-1.72.34-.99,1.61-2.26,1.81-3.74s-.42-1.1-1.18-1.67c-.25-.19-.3-.66-.64-.77-.24-.07-1.08.13-1.42.12l-.12-.66c-.93.72-2.17-.72-2.3-.72-2.51,0-6-1.67-8.74-2.53-.33-.1-.72.08-1.14-.03-.75-.2-1.34-1.02-1.43-1.04-2.1-.44-1.76-.42-3.52-1.35ZM82.67,91.19c-.14-.09.06-.49-.31-.38-.03.64-1.09.59-1.76,1.19-.26.23-.06.8-.63.74v.46s.47.13.47.13l-.49.84c1.25-.56,1.47.74,2.74.72l1.58-1.8c-.94-.48-.63-.4-.58-1.33-.31-.27-.7-.34-1.03-.57ZM43.87,93.06c.15.13.15.41.43.52,1.27.51,1.79-.72,1.47-1.82-.83-.58-1.86-.6-2.76-.22.08,1.08.17.93.86,1.52ZM92.86,94.01c-.06-.03-1.2-.24-1.26-.24-.1,0-1.68.84-1.75.92-.16.19-.35,1.71-.22,2.05.03.07,1.13.93,1.29.95.98.14,1.33-.9,1.42-.9l.82.25c-.52-.89.62-.97.39-2-.06-.27-.52-.95-.69-1.02ZM70.32,94.92c-.06-.03-1.19.07-1.28.09-1.23.26-1.59,1.39-1.81,2.51l-.47-.24c.53,1.15-.54,1.47-.83,1.93-.13.22-.05.98-.25,1.32-.22.38-.88.51-.86,1.17.67.15.66.93.79,1.05.16.14.64.02.89.18.71.43.58,1.02,1.81.59l.13.72.24-.48h.48c-.08.9.65.28,1.09.34.38.05.76.72,1.4.62.14-.02.14-.37.23-.4.34-.15.73-.04,1-.33.24-.25.62-1.49.92-1.97.7-1.09.72-1.46,1.18-2.3.21-.39,1.15-.4.82-1.81-.31-1.3-1-1.59-2.21-1.82-.46-.09-1.77,0-2.25-.15-.65-.22-.94-1-1.01-1.03ZM101.55,99.69l.38-1.46-1.26-1.39c-.48.33-1.65-.06-1.73-.01-.12.08-.56,1.37-1.46,1.18-.18.56.47.53.64.79.2.31.42,1.3.73,1.37,1.06.22,1.76-.84,2.71-.49ZM80,98.43c-.14-.08-.17-.54-.41-.67-.24.98-1.11.26-1.69.33-.38.04-.48.65-.72.87s-.68.19-.77.3c-.14.15-1.1,3.3-1.33,3.84-.47,1.14-1.93,2.26-.19,3.21l.73-.38v.72c.66-.26,1.6-.06,2.21.26,1.31.67,1.52.95,2.94,1.3.36.09.62.49,1.09.36-.67-.93,1.3-1.56.98-2.62l.7-.02c-.54-.84.11-.66.17-.84.17-.52.21-1.31.44-1.78.48-.96,1.63-1.35,1.04-2.87l-.69-.02.25-.48c-.96,0-1.97-.67-2.76-1.2l-.35.48c-.03-1.14-1.16-.5-1.64-.77ZM109.45,100.62c.07-1.04-.7-.37-1.27-.46-.52-.08-1.07-.76-1.82-.48.4.64-.42.99-.46,1.55-.05.65.54,1.43.7,2.05.49.08.52,0,.48-.47.06-.05.82.83,1.38.2.04-.04-.13-.34-.05-.44.46-.57,1.33-.51.6-1.82l.43-.12ZM88.54,101.18c-.24-.13-1.32.47-1.84-.03-.09.53-.59.81-.81,1.24-.13.26.11.62-.06.88-.16.24-.83.23-.6.97l-.48-.25.25.83c-.85.26-.52,1.06-.86,1.56-.16.24-.58.29-.71.5-.18.28.34.79-.61,1.08l1.2,1.91,4.06,1.12.03.68.48.11c-.84.83-1.92-.24-2.58-.54-.46-.21-1.25.17-1.26-.78l-.24.72-.24-.72c-1.08.2-2.1.02-2.81,1.03-.13.19-.02.56-.14.81-.34.68-.75,1.28-1.15,1.92-.22.35-.12.91-.36,1.27-.13.19-.5.2-.56.28-.13.18.23.57.22.79,0,.15-.39.12-.43.2-.11.18.18.48.06.67-.1.16-.57.14-.62.39-.08.38.26,1.06.29,1.49,1.1-.32,1.28.62,1.59.74.37.14,1.14.04,1.59.23l.16.73c.59-.76,1.76-.03,1.92.72l.81-.46c1.98,2.05,2.34-1.2,3.46-2.35-.5-1.21,2.31-3.8,2.4-4.29.07-.37-.34-1.24-.2-1.76-1-.03-1.42-.08-1.66-1.1.47-.77.98.38,1.51.33.17-.02,1.45-.71,1.83-.8l-.47-.6c.67.05.58-.87.89-1.38.82-1.35,2.36-3.25,2.71-4.75.14-.6-.26-.2-.47-.11l.23-.7c-1.28-.42-2.43-2-3.83-1.22v-.96c-.71.46-1.16-.03-1.84-.16-.21-.04-.5.18-.66.16-.17-.02-.14-.39-.2-.42ZM66.7,103.82c-.18-.09-2.86-.21-2.73.43l-.58-.25.14.73-.86.23.24.96-.48-.12c.47.75-.23.62-.47,1.04-.3.52-.25,1.19-.39,1.46-.32.62-1.6,2.1-1.49,2.71.16.91.68,1.14,1.39,1.46.33.15,1.37.36,1.8.53.76.29,2.87,1.36,3.6,1.35.62-.01.91-.7,1.55-.27v-1.44c.35.52,1.03.26,1.2.35.51.28-.49.82-.43,1.41.11,1.09,1.24,1.17,1.86,1.5.18.09.2.46.29.52s.81-.21,1.06-.1c.27.13.24.52.53.63.42.16,1.41.06,1.82.24.3.13.02.59.31.74s1.78.18,2.09-.03c.29-.19,1-1.42,1.13-1.78.24-.69.2-.87.44-1.51.32-.85.61-2.62,1.7-2.46l-.48-.24v-.48s.49-.14.49-.14l-.25-.58h.72c.28-1.33-1.02-1.46-1.8-1.92-.56-.33-.95-1.53-1.2,0-.8-.56-.95-1.23-2.05-1.07v-.6s-.47,0-.47,0l-.12.47-.12-.72c-.36-.18-2.88.26-3.12.48-.03.02.21.36.13.71-.17.68-.74,1.19-.77,1.26-.06.15.15.46-.01.82-.49,1.08-1.09,2.89-2.46,2.48.22-.56.3-1.47.5-1.96.28-.67,1.7-2,2.01-2.85.06-.16.02-1.26-.04-1.43-.3-.91-2.46-1.82-3.37-2.06-.26-.07-.6.13-.97,0-.27-.1-.29-.47-.36-.5ZM39.61,106.19l-4.9-1.9-.35,1.4-.72-.24c.23,1-.63,2.36-1.2,3.24.72.53,1.18.14.96,1.32,1.23-.55,1,.02,1.27.18.19.11.46-.12.65-.03.46.21,1.32,1.02,1.81,1.05.1,0,.07-.41.26-.47.16-.04.73.21,1.05-.02l-.48-.59c.72-.43.61-1.19.88-1.8.17-.38,1.41-1.38.77-2.13ZM99.23,105.13c-.6-.36.15-.29-1.11-.5-.19-.03-.36-.26-.52-.27-.83-.01-1.48.65-1.91,1.34-.07.12-.56,1-.7,1.26-.36.66-2.29,5-2.28,5.34,0,.07.97.41.7,1.07l.72-.25v.71c.91-.23,1.71.37,2.39.62.36.13.77.03,1.03.11.34.11.33.82.81.9.23.04.57-.21.88-.14.61.13.97.87,2.17.58s1.18-.75,1.69-1.5c.62-.91.26-.39.56-1.22.11-.32.36-1.09.42-1.25.15-.36.96-.77,1.2-1.23s.22-1.01.39-1.49c.2-.53.83.25-.09-1.39-.07-.12.07-.4.02-.43-.25-.18-.96,0-.92-.76-.14-.11-.81,1.19-.99-.44-1.04-.35-3.66-.6-4.45-1.08ZM23.13,107.8c-.12-.09-.06-.66-.54-1.04s-.93-.14-1.2-.26c-.57-.26-.69-1.08-1.73-1-2.31.16-1.33,1.27-2.24,2.36-.2.24-.53-.02-.56.02-.25.3.05,1.39-.75,1.53.23.49.88.46,1.13.68.35.31.34,1.58,1.63,1.12l-.12.48,1.2-.24-.48.72,1.13-.18,2.1-1.49.53.59-.41,2.04c.4.06.91-.1,1.27,0,.11.03,1.34,1.13,1.66,1.28.26.12,1.17.37,1.4.28.07-.03,1.17-.93,1.2-1,.22-.38.14-1.11.28-1.24.11-.11.53.08.68-.19s.12-.96.25-1.34c.07-.2.45-.19.47-.34.08-.61-.46-1.62-1.11-1.75l-.46.47-.61-.96c-1.03,1.02-1.15-.25-1.47-.44-.05-.03-.5.19-.78.19-.25,0-.53-.22-.72-.22-.13,0-.14.32-.24.38-.58.35-.67-.11-.74,1.05l-.84-.84.71-.6c-.2-.02-.52.07-.67-.05ZM43.64,107.43c-.23-.1-.54.1-.84.02-1.34-.36-.84-.9-2.07.08-.14.11-.49.04-.57.13-.09.11-.23,1.21-.41,1.64-.29.67-1.29,1.25-.53,2.1.09.1.43.04.55.14.34.31.62.76,1.06.95.06.03,1.29.34,1.36.34.29.03,1.23-.44,1.42-.65.39-.43.23-.82.43-1.13,1.23-1.95,2.27-1.98-.13-3.23-.17-.09-.21-.36-.27-.39ZM33.09,110.57c-.36-.09-1.35-.37-1.61-.21-.77.46-.49,1.13-.6,1.32-.14.25-1.15.8-1.32.97-.27.26.76.15.47.59l-.93.95c.31,1.43.42,1.37,1.47,2.06.84.55.65.24,1.49.54.15.05.12.41.26.42.62.06,2.44-1.06,2.75-1.63s.04-.94.18-1.43c.17-.57.97-1.3.97-1.38,0-1.29-.45-.89-.68-1.01-.58-.3-2.03-1.08-2.47-1.19ZM131.73,111.5c-.68-.35-1.27.03-1.74-.78-2.37,2.21-.4,1.99,1.56,2.88v-.7s.96-.02.96-.02l-.78-1.37ZM17.61,113.08c-.14-.08-.39-.84-.9-.92-.36,1.11-2.02.18-2.28,1.33l.46.13.02.46c-1.21-.18-.43,3.16.23,2.63l.13-.46,1.48,1.41c1.32-1.13,2.94-1.5,2.95-3.56-.86.09-1.13-.92-1.42-1.1-.19-.11-.52.17-.67.08ZM65.32,114.8c-.41-.23-2.05-.18-2.46-.3-1.31-.38-3.81-3.31-4.27-.18l-.47-.24c0,.48.04,1.14-.26,1.55-.33.45-.86.32-.94.39s.2.46.1.71c-.39,1.03-.38,1.02-.63,1.97-.11.42-.81,1.16-.9,1.74l.95.36-.25.47c.89-.44.66.09.8.15,1.35.54,2.88.66,3.98,1.2.54.27,1.27,1.16,1.8,1.07,1.02-.76.93-1.73,1.42-2.71.89-1.77,2.06-3.09,2.21-5.1.02-.32-.19-.73-.12-1.09-.04-.06-1.6,1.2-.96,0ZM40.89,114.27c-.13-.08-.12-.51-.45-.63s-.75,0-1.11-.1c-.8-.22-1.18-.76-2.17-.19-.09.05-1.34,1.5-1.35,1.6-.02.15.2.43.14.64-.22.81-1.09,1.96-.1,2.74.31.24.7.17.94.32.27.16.32.65.83.66.29,0,.47-.29.68-.31.29-.03.61.18.92.13.13-.02.32-.74.89-.49-.74-1.07.51-1.13.94-1.88.16-.27.7-1.79.73-2.09.07-.67-.52-.16-.9-.41ZM95.26,114.98c-.5.41-1.71-.81-2.02-.85-.23-.04-1.89.63-2.02.82-.2.29-.07,1.11-.93,2.15s-.34.42-.83,1.55l-1.57,3.59h.73c-.55.56.71.96,1.24,1.24.8.41.8.36,1.97.22.36,1.23,1.05.84,1.98,1.13.61.19.85.58,1.23.71,1.87.64,2.58.03,2.94-1.86l.48.24c-.03-1.45,1.11-2.69,1.69-3.96.15-.32.89-2.27.87-2.41,0-.06-.63-1-.68-1.03-.06-.04-.51.18-.85.04s-.37-.57-.54-.67c-.3-.17-1.27.29-1.21-.62l-.83.47-1.09-1.19-.46.03c-.03.12,0,.34-.08.4ZM25.67,116.05c-.36-.22-2.05-.27-2.59-1,.07.64-1.23.27-1.8.96-.08.1-.57,1.48-.57,1.56.02.21.54.28.7.52.21.3-.15.75.47,1.14.34.21,2.25.59,2.64.52,1.35-.25.87-.9,1.1-1.59.07-.2.47-.38.54-.65.07-.25-.38-1.39-.5-1.47ZM69.11,116.54c-.19-.1-1.09.28-1.23.41-.22.19-.11.48-.23.65-.24.33-.93.2-.4,1.04l-.67.04c.03,1.43-3.54,5.41-1.26,6.3.34.13,1.91.07,2.46.4l2.47,1.9c.63-1.32.3-.07.83.24-.11-.74,1.3-.26,1.92-.72l-.48-.6c.49-.31.75-.39.77-1.03l.67-.05v-.48s-.48,0-.48,0c-.08-.36.49-.25.74-.58.13-.17,1.58-3.22,1.6-3.41.03-.25-.26-.64-.18-.81l.48-.11c-.35-.16-1.73-1.53-1.85-1.56-1.79-.36-3.15-.81-4.95-1.21-.18-.04-.16-.4-.21-.42ZM31.48,118.16l-3.21-.71-1.81,2.37c.77-.05.31.73.58,1.22.35.61,2.51,1.33,3.17,1.02,1.2-.56.97-1.96,1.75-2.82-.66-.36-.76-.31-.48-1.08ZM35.95,120.66c-.72-.46-1.34-.82-2.01-.03-.44.51.01,1.15-1.27.89.81.7-.03.89.02,1.28.06.48,2.37,1.79,1.66.64h.48s1.09,1.2,1.09,1.2c.74-.86,1.85-.99,1.81-2.53,0-.3-.67-1.21-.79-1.26-.43-.19-.25.29-.99-.18ZM78.04,120.08c-.52-.41-.49,1.04-1.08.97-.04.97-1.54,2.57-1.89,3.4-.32.75.18,1.68-1.1,1.65.31.52-.31,1.17-.28,1.51.01.17.44.19.6.4.4.56-.21.63,1.06.75-.21,1.25,1,.06,1.61.64.28.27.34.62.35.99l.23-.55c.66-.71.9.47,1.2.65.15.09.46-.07.57-.02,2.76,1.46,1.98.53,4.24-1.05l-.72-.36c.9-.69.89-.91.76-1.99l1.83-1.78c-.17-.52-.02-1.49-.21-1.91-.53-1.2-1.56-.54-2.47-.98-1.71-.83-2.1-1.88-4.62-1.89-.7,0,.02-.36-.1-.45ZM56.02,122.41c-.17-.11-.25-.62-.42-.64-.05,0-.2.26-.36.29-.29.06-1.06.04-1.17.22-.11.17.04.58-.04.73-.39.67-1.07,2.21-1.35,2.59-.19.26-.91.88-1.27.97l.46.58c-.05.49-.98,1.23-1.03,1.34-.05.09-.41,1.9-.39,1.99.02.07.89.99.96,1.02.25.13.58-.13.95,0,1.13.37,1.28,1.01,2.74,1.08.18,0,.12.44.31.48.45.11.95-.21,1.37-.17,1.14.09,1.53,1.03,2.17-.78.09-.24.37-1.57.42-1.66.03-.06.74-.27,1.01-.75s-.08-1.63,1.11-1.69l-.48-.36c.55-.44,1.57-2.49.9-2.95-1.46-.27-2.7-1.23-4.05-1.82-.4-.18-1.4-.2-1.82-.46ZM127.89,122.31c-.12-.08-1.32-.36-1.37-.31v.72c1.13-.59.87.95,1.92.96.16-.17-.34-1.24-.55-1.37ZM125.08,122.48h-1.92s0,1.44,0,1.44c.73-.05,1.02.24.96.96.45.19.88-.4,1.08-.4.24,0,.41.55.83.4l-.1-1.22c-.29-.36-1.18.14-.86-1.18ZM90.93,125.2c-.38-.12-.77-.07-1.14-.19-1.48-.51-2.43-1.68-3.71.12-.88,1.24-1.7,4.01-2.53,5.59-.08.15-.39.16-.42.21-.41.79.82,2.34,1.85,1.63v.72c.92-.34,1.43.24,2.29.5.66.2,2.5.74,2.95,1,.12.07.1.46.4.58.8.33,1.95-.89,2.77-.87-.6-1.2.37-.95.74-1.77s0-1.3.12-1.84c.22-1.01,2.44-1.86,1.48-3.66-.51-.96-2.31-.5-2.83-1.5l-.6.37-.39-.7c-1.03.5-.9-.15-1-.18ZM67.41,126.87c-.11-.09-2.59-.97-2.75-1-1.5-.3-1.31.45-1.64,1.15-.36.78-.29,1.07-.46,1.44-.28.62-1.63,1.15-1.36,2.39l-.69.03.46.8-.72,1.1-.7-.22,1.24,2.85c.93-.2,2.13.03,2.94.54.28.18.34.61.42.66.11.07.65-.18,1.1-.06.57.16.85.7,1.38.81,1.21.25.65-.39.89-.66.08-.09.86-.09,1.15-.9l-.48-.24c1.09-1.02.27-2.69,1.92-3.12l-.47-.46c.53-1.33,2.17-1.92,1.33-3.44-.19-.35-1.93-1.1-2.29-1.15-.32-.05-.49.32-.61.32-.31,0-.47-.68-.67-.84ZM75.39,129.93l-3.11-.25c.47,1.03-.76,1.73-1.06,2.41-.26.59-.33,2.18-.93,2.56-.21.13-.61.03-.64.06-.06.05.23.61.14.97-.11.44-.69,1.12-1.11,1.33.52,1.6,1.46,2.31,3.13,2.27l-.48.47c1.26-.56,1.33.21,1.74.43.27.14,2.19.54,2.65.63.67.13,1,.8,1.85-.21l-.48-.6.72-.14v-1.06s.72.48.72.48c.04-.51-.34-1-.2-1.5.07-.26,1.37-1.9,1.4-2.03.09-.42-.12-.87.13-1.28.1-.17.57-.16.62-.39.11-.54-.56-1.33-.02-2l-.84.48c-.6-.69-1.04-1.14-2.04-.96l.24-.72c-.77.33-1.77.16-2.41-.37-.25-.21.03-.56,0-.58ZM82.6,133.52c-.08-.08.19-.58-.24-.48.15.67-.63.41-.72.48-.1.09.16.69.1.98-.18.94-1.62,2.36-1.93,3.45-.04.14.22.53.14.6h-.96c.78,1.38-1.15,1.86-.51,3.26.23.49,1.34,1.05,1.89,1.26.47.18,1.14.04,1.2.09.18.12.67,1.02,1.14,1.16l.47-.48c.37.54.89.67,1.39.97.15.09.17.38.22.4.25.12,1.87-.2,2.35.55-.22-.71.6-.89.68-1.08.57-1.42.94-1.76,1.59-3.01.19-.37.35-1.81.42-1.87.2-.15.72-.02.91-.4l-.48-.6.71-.12c-.37-1.05.42-1.39-.79-2.2-.43-.29-2.59-1.56-2.98-1.75-1.14-.55-3.24.05-3.18-1.45l-.72.48.24-.72c-.59-.34-.44.95-.96.48Z"/>
        <path d="M40.56,9.63l.27-.43.11.45.46-.21.28.49c1.15-.79,1.61.22,1.71.24,3.76.74,7.63,1.52,11.52,2.31.42.08.9-.52.81.33l.35-.48c.37.29.86.5,1.31.61.87.21,2.27.27,3.08.5.43.12,1.88.98,2.1.96.25-.03.45-.48.59-.39.02.01-.07.39.18.47,1.14.37,2.81.45,4.02.47l.13.74c.81-.6,1.12.07,1.62.18.44.1.88.02,1.32.12s.73.97,1.01-.06c2.27,1.02,5.06,1.04,7.21,2.4.35-1.05.58-.35.96.24l.47-.49c.47.16.83.51,1.32.63,1.04.27,2.37.1,3.48.4.17.05.1.4.28.43.24.03.55-.22.81-.12s.55.76.83.78c.21.01.52-.38.72-.37.18.01.42.47.76.59s.97-.16,1.16-.12c.13.03.1.37.3.41,1.91.39,4.59.75,6.43,1.34,1.19.38,1.61.77,3.11.96.69.09,1.23-.64,1.09.59.85-.33,1.57.08,2.26.2.22.04.51-.17.85-.08.62.15,1.39.59,1.8,1.09l.24-.48.5.73c1.05-.55,2.15.41,3.33.48l.25-.49.81.52-.21.44c.13.08,1.5-.27,1.8-.18.17.05.07.39.57.53.52.15,1.06-.03,1.47-.34l-.24.72c1-.48,1.21.08,1.98.33.53.18,1.09-.32,1.15.63.97-1.14,1.78.34,2.3.43s.93-.63,1.18.31c1.32-.86,2.01.41,3.47.23l-.48.48c1.27-.56,1.98.13,3.01.34.9.18,1.76.52,2.19.62.87.2,2.86-.14,2.72,1.21l.72-.48.04.69.68.05-.23,1.67.69.14c-.45.7.24.53.28.73.05.3-.35,1.59-.25,1.77.02.03.54-.32.71.12,0,.59-1.56.74-.22,1.21l-.27.7.5.25c-.79.57-.28,1.49-.96,1.68.85.76.15,1.13.06,1.74-.25,1.7-.25,3.09-.3,4.74-.03.81-.8,2.29.24,2.64-.47.61-.4,1.02-.8,1.8-.15.29.44.6-.64.48.09.23.24.44.13.7-.42,1.03-3.31,4.09-4.22,5.17-.15.18-.05.52-.13.61-.28.3-.81.26-1.09.58-.2.23.04.61-.09.85-.19.34-.76.49-1.05.88-.36.48-.49,1.1-.86,1.54-.73.87-2.31,1.15-2.29,2.87l-.71-.25c-.06.94-.89,1.41-1.44,2.04-.37.42-.17,1.23-1.19,1.09l.23.46c-1.06-.05-.93,1.18-2.13,1.01l-.03.68-.61-.21-.24.47c-.82-.32-1.25-.62-2.03-.02l.24-.72c-1.34.47-2.6-.89-3.83-1.09-.3-.05-.47.32-.74.27-.69-.15-2.23-1.41-2.87-1.71-.11-.05-1.23.52-2.26-.13-.27-.17-.32-.67-.54-.71-.29-.05-.65.19-.92.15s-.44-.49-.83-.37l-.24.48c-.1-1.14-1.77-.6-2.65-.96l.24-.72c-.57-.03-.59.47-1.25.44-1.62-.08-3.65-1.13-5.21-1.54-3.73-.98-7.22-1.73-10.57-2.84-1.21-.4-2.89-.26-4.21-.86l-.26.48c-.43-.32-1.11.07-1.39-.02-.34-.11-.33-.61-.42-.66-.1-.06-1.86-.01-2.19-.08-.36-.08-.69-.6-1.06-.64-.48-.04-.88,1.06-1.16-.03-.55.86-1.08-.18-1.93-.47-.79-.27-1.23-.04-1.67-.12-.17-.03-2.93-.92-3.18-1.02-.46-.19-.1-.85-1.5-.31v-.72c-1.24.58-1.05-.08-1.39-.23-.45-.2-2.01-.4-2.5-.56-.39-.13-.7-.48-1.16-.41l.24-.72c-.27.09-1.8.24-1.88.18-.12-.08-.1-.51-.44-.63-.24-.09-.7.17-1.17,0-.54-.19-.72-.66-1.09-.85-.9-.44-1.76-.54-2.62-.79-.39-.11-.9-.58-1.31-.57-.25,0,.03.61-.37.5v-.72c-.6-.11-.39.1-.59.48-.24-.17-.55-.33-.83-.38-2.63-.42-4.42-.67-6.42,1.42-.16.17-.11.61-.42.89-.27.25-2.27,1.52-2.5,1.24l-.18.43-.54-.19-.17.44c-1.31-.4-2.96-.58-4.25-.98-.21-.06-.18-.43-.34-.47-.89-.2-1.16.74-1.64-.48l-.24.5c-.65.04-.86-.71-.98-.73-.31-.05-.94.32-1.47.06-.65-.31-1.29-.73-2.15-.94-.34-.09-.85.16-1.32-.09-.28-.15-.39-.71-.55-.71-.07,0-.25.42-.61.37-1.24-.17-3.88-1.55-5.22-2-.38-.13-.99-.17-1.73-.41-1.84-.6-2.67-.25-3.11-2.43-.21-1.04-.12-3.1-.08-3.99.02-.31-.28-.74-.18-1.13l.72.24c0-.28,0-1.78.04-1.87.02-.05.38-.06.51-.35.25-.54.51-1.65.87-2s.91-.3.97-.35c.05-.04-.33-.61.05-1.26.16-.28,1.46-1.33,1.58-1.65.04-.12-.23-.59-.08-1.16s.81-1.27,1.1-1.8l-.48-.26c.45-.7-.18-1.39-.22-1.91,0-.09.35-.08.44-.29.18-.48.48-1.38-.18-1.29l.62-1.04c-.6-.61-.4-.72.05-1.32l-.5-.13c.83-1.11-.2-1.74.5-2.5l-.72-.37.71-.6-.72-.12c.64-.56.23-1.4.5-2.33.05-.18.35-.15.43-.35.04-.09-.21-.43-.11-.57.2-.29.75-.14,1.02-.31.22-.14.61-.82.89-1.03,1.39-1.03,1.97-1.17,3.02-2.38.47-.55,1.24-.96,1.93-.59v-.96c1.12.62,1.02-.17,1.53-.65.45-.43.12.16.66-.75.02-.04.68.1.93-.28l.24.48c-.12-.99,1.01-1.26,1.5-1.68.93-.8,1.31-1.31,2.56-1.78.34-.13.93.36.99-.62,1.44,1.01,3.36,1.07,5,1.63ZM28.36,35.36c.16-1.73-.35-2.3.51-4.12.39-.83,1.22-2.11,1.74-3,.34-.57,1-.5,1.11-.57.07-.05-.5-1.31.49-1.58l-.24-.57h.95c-.12-.94,1.02-2.45,1.93-1.92-.19-.69-.11-.96.24-1.55-.09-.48-2.42-.78-2.93-.92-.28-.08-.47-.4-.79-.42-.19-.01-.09.39-.28.5-.29.15-.95.19-1.01.26-.1.13.02.67-.1.97-.84,2.27-2.82,4.7-3.93,6.19-.41.55-.91.91-1.29,1.56-.19.31-.1.81-.2.94-.21.28-.6.08-.74.16-.03.02.16.41.07.65-.12.32-.82.34-.59,1.24l-.65.04c.27.63-1.31,1.98-1.43,2.18-.18.32.09.93-.09,1.12-.07.08-.47.03-.65.19-.98.83-.47,1-.64,1.3-.08.14-.47.15-.59.41-.48,1.03-.85,1.94-.23,2.93h4.06c-.33,1.48,1.06.15,1.37-.31.15-.22.07-.67.29-1.02.38-.58,1.76-.97,1.22-2.26h.96s0-1.44,0-1.44l.72.24-.23-.7c.38-.04.64-.36.95-.5-.13,1.43-.14.77-.81,1.92-.09.16.08.52-.03.72-.26.47-1.34.69-1.08,1.93l-.48-.24c.04.71.15,1.36-.71,1.46l.5,1.17.92-.22-.24.72c1.16-.52,1.66.26,2.4.58.32.14.64-.41.84.38.77-.8,1.9.13,3.01,0l-.24-.48c.33.01.51.29.83.01.5-.43,1.4-2.72,1.84-3.42.62-.99,1.29-1.05,1.63-1.42.03-.03-.2-.29-.14-.39.16-.28.94-.96,1.07-1.19.72-1.34-.16-2.22.19-3.2.18-.51,1.47-1.59,1.51-1.7.05-.15-.29-.51-.19-.66.07-.1.48-.1.59-.26s-.14-.56,0-.96c.31-.92,1.36-1.18,1.82-1.82.22-.3.03-.73.46-1.21.37-.42,1.12-.84,1.69-.84l-.24-.72.72.24c.03-.37.26-.71.26-1.09,0-.42-1.21-1.74-1.32-1.75-.2-.02-.68.39-1.02.39-.77,0-.22-.29-1.68-.02-.52.1-1.25-.47-2-.04-.06.03-.88.84-.92.89-.11.17.28.72-.16,1.14-.27.25-.78.23-.96.49-.17.23-.1.7-.26.94-.83,1.24-3.27,5.27-4.26,5.94-.2.14-.58.01-.69.08-.64.43-1.19,1.37-2.12,1.19l-.03,1.41c-.2.12-.56-.03-.68.03ZM52.08,25.34c-.84-.18-1.83-.32-2.67,0-.71.27-.67,1.48-1.85,1.15l.48.71c-.91-.03-1.44,1.11-1.48,1.9-1.03-.09-.54.42-.79.99-.33.73-1.03,1.21-.85,2.16l-.72-.24-.03.68-.69.04.47.6-1.43.96.48.6c-.74-.27-1.4.87-1.5.91-.16.07-1.72.28-1.81.33-.12.07-1.36,1.82-1.73,2.24-1.12,1.28-1.66,1.86-2.56,3.43-.25.43-.63.08-.43,1.03l-.84.35c.29.8,1.19.6.72,1.56.84-.64,1.25.17,1.82.25.42.06.86-.25,1.16-.19.44.08,1.87,1.39,2.87,1.08.49-.16.56-.83,1.35-.41l.12-1.2c.46.41.11.93.41,1.5.5.95,1.52.63,2.41.92.26.08.2.83,1.38.22v.72c.37-.16.66-.29,1.08-.27.24.01,2.51.51,2.28.98.55.33,2.25-3.09,2.39-3.26.19-.23.64-.29.7-.38.07-.12-.23-1.23.4-1.87.29-.3.74-.19.82-.26.07-.07-.17-.46-.09-.7.3-.83.88-1.51,1.45-2.15l-.26-1.69-1.08-.35c.7-1.09,1.64-1.67,1.96-2.98l.55.16c.46-.14.14-.56.26-.88.33-.82,1.79-2.9,2.37-3.64.27-.35,1-.68,1.04-.76.24-.44-.27-1.38.77-1.39v-.23c-.67.11-.5-.44-.48-.96-1.81,1.15-3.49-1.03-5.28,1.1-.4.48-.02,2.23-1.44,2.03.57,1.19-.23.45-.5.86-.31.46-.68,1.79-1.01,2.31-.29.46-.93,1.41-1.25,1.86-.48.67-1.6,1.04-1.07,1.93-.99-.41-1.31.82-2.39.24l-.38.94-.82-.22c.66,1.01-.31,1.11-.6,1.69-.14.27-.35,1.31-.67,1.61-.13.12-.48.02-.59.11-.23.2-1.02,2.95-2.23,2.83-.09-.1.18-.81.27-1.01.24-.59,1.35-1.37,1.66-1.98.44-.85.9-2.03,1.33-2.78.09-.17.5-.17.66-.53.54-1.16-.06-2.19.61-3.5.16-.31.34-1.03.59-1.19.21-.13.6-.02.65-.06.03-.02-.26-.41-.13-.71.15-.35,2.38-3.07,2.87-3.75.22-.31.86-.66,1.02-.9.23-.34.09-1.17.79-1.49l-.51-1.02ZM66.99,29.12c-1.24-1.05-2.45.21-3.6.48.54.86-.11.63-.22.91-.32.81-.25,1.8-1.11,1.71-.45,1.21-1.47,2.56-2.27,3.73-.19.28-1.45,1.6-1.45,1.71,0,.24.3.52.24.82l-.69-.23c-.22.65-1.49,1.9-2.18,1.67.4,1.43.15.88-.33,1.46-1.07,1.29-2.45,3.3-2.91,4.9-.28.97-.56,2.42.84,2.28l-.24.72c.47.14.63-.5,1.03-.44.46.08,2.01.99,2.44.93l.24-.49.5.73c.75-.15,1.22-.81,2-.5.49-1.48,1.1-2.74,1.8-4.09.28-.53-.27-1.33,1.34-1.18-.48-.98.28-1.82.74-2.69.11-.2.47-.22.47-.33,0-.48-.6-.86-.64-1.19-.06-.62.56-.97.74-1.34.88-1.78,1.8-3.99,2.6-5.67l1.92-2.54c.35-.93-.94-1.03-1.04-1.86l-.24.48ZM74.36,30.66c-.89-.72-1.55.55-2.55.15l-.75,2.15-.46-.23c.55,1.22-1.19,1.7-.73,2.86l-.94.29c.21.5-.15,1.4-.44,1.82-.37.55-.9.66-1.12,1.04-.2.35-.15.9-.39,1.29-.16.26-2.19,1.4-2.72,1.73-.21.14-.56.06-.61.1-.07.06.17.47.09.71-.12.36-.58.73-.71,1.2-.09.31.17.7.14.72-.07.06-.54-.13-.74.14-.35.47.02,1.07-.05,1.25-.07.2-1.02,1.23-1.14,1.43-.51.83-1.03,1.54-.87,2.55.14.91.47.58.82.74.06.03.03.34.21.36.15.01.39-.18.66-.15.42.05.56.63,1.36-.08l-.24.72c1.12-.5.73.1,1.48.33.69.21,1.82-.03,2.58.13.72-1.74,1.97-2.98,2.45-4.87l1.17-.99-.48-.24c.39-.48,1.16-1.48,1.29-2.04.17-.76-.47-1.23-.52-1.61-.06-.48.62-.78.05-1.51,1.45-.72,1-1.55,1.47-2.62.25-.56,1.35-1.5,1.55-1.87.37-.68.97-2.94,1.31-3.65.11-.24.44-.39.6-.62v-.34c-.59-.06-.75-.42-.73-.97h-.59s-.35.47-.35.47c0-.11,0-.32-.08-.38ZM84.21,33.03c-.11-.07-2.18-.79-2.29-.75l-1,1.06.24.82-.86.23c.49,1.34-.27,1.13-.59,1.63-.48.76-.78,2.66-2.15,2.23.54.65-1.9,4.28-2.15,4.45-.34.23-1.17.04-1.71.21-.11.03-1.33.82-1.38.89-.08.13.33,1.68-1.25,1.65-.13.62.15.36.48.6-.73.32-.56,1.15-.79,1.5-.11.16-.56.18-.62.44-.05.23.27.62.19.92-.07.26-.54.28-.69.58-.21.4-1.18,2.72-.97,2.93l3.85.83v.85s.95-.48.95-.48v.72c1.06-.16,1.91-.68,2.88,0l.19-.89,1.13-1.99.07,1.98-.42,1.14c1.18-.36,1.18.46,1.48.66.39.26,4.04.75,4.65.83.45.05,1.07.47,1.64.42.71-.45.79-1.25,1.1-1.74.13-.21.51-.24.61-.41.19-.31-.35-.87.58-.98l-.22-.7h.7s.03-1.2.03-1.2l.72.24c-.13-.54.18-2.28.55-2.59.17-.14.59,0,.65-.06.2-.18-1.71-4.75.73-4.56-.64-1.11.11-.81.31-1.25.15-.34.28-1.5.44-1.6l.93-.03-.21-.61c.75-.2.22-.52.35-.84.04-.09,1.05-1.56,1.13-1.63.17-.14.59,0,.66-.05.03-.02-.21-.38-.16-.55.06-.24.94-1.98.88-2.08-.74-.37-1.53-.87-2.32-1.13-.19-.06-.48.17-.65.16-.3-.02.26-.66-1.72-.12-.16.04-.49-.16-.56-.11-.11.08-.12.78-.27,1.01-.91,1.37-1.98,2.96-2.64,3.96-.4.61-.39,1.12-1.44,1.27l.48.36c-1.25.37-.95,1.44-1,1.53-.05.08-.5.13-.69.39-.86,1.17-1.06,2.65-3.11,2.29l-.12.96-.84-.26c.59-1.62-1.13-.74-.69-1.98.17-.48.67-.48.84-.72.8-1.16,1.04-3.08,2.21-3.8l-.21-.92h.72s-.23-.69-.23-.69c1.23-.13.89-1.19,1.07-1.45.15-.22.54-.28.7-.49.23-.3.08-1.56,1.1-1.8-.42-.17-1.07-1.13-1.27-1.25ZM101.99,36.38c-.27-.06-1.47.33-2,.3-.23-.01-.49-.41-.94-.38-.07,0-.35.75-1.09.5l.24,1.2-.72-.24c.28.85-.32.88-.46,1.15-.85,1.57-1.68,3.27-2.64,4.75-.3.47-.8,2.52-1.29,2.93-.14.12-.54,0-.61.08-.11.12.04.74-.17,1.17-.29.62-1.8.72-1.56,1.68l-.46-.23-.37.95c-.15-.46-.88-.49-.84-.12.01.09,1.03.6.96,1.08h-.72s.02,1.3.02,1.3c-1.28.21-.41.51-.62.87-.12.21-.66.33-.87.58-.25.31-.02.64-.12.85-.42.91-1.88.88-.34,2.51,1.14-.03,2.34.17,3.45.4.19.04.14.39.32.43.09.02,1.71,0,1.83-.02.39-.11.68-.67,1.01-.91.83.48.28,1.16.63,1.89.82.11,1.72-.33,1.93.73l.66-.2c.34,1.35.84.29,1.38.26.35-.02.82.69,1.52.2l-.23-.69,1.43-.51c.13-.64-.15-.35-.48-.59l1.55-2.28c1.9.89.84.61.44,1.26-.18.3-.14.7-.34.99-.53.75-1.95,1.15-.34,2.31.98.71,1.56.21,2.16.36,1.65.4,3.7,1.48,5.49,1.06l.15.49h.47s.11-.45.11-.45l.61.22v-1.2s.48.24.48.24v-1.44s.48.24.48.24c-.54-.99.81-1.49,1.13-1.99.13-.21.72-2.01.8-2.09l.72.24c-.59-1.49.24-.67.49-1.11.21-.37.2-1.31.23-1.77l.72.24-.21-.58.7-.52-.25-.57h.72c-.6-.99.17-.58.6-1.21.26-.38.13-.87.23-1.08.82-1.62,2-3.25,3-4.58l-.24-.57.86-.23c-.08-.61.15-1.65.35-2.25.11-.32.57,0,.47-.41l-1.57-.48-.23.48c-.4-.17-1.87-.85-2.22-.92-.51-.11-1.35.27-1.98-.04l.48-.72c-.5-.05-.86.36-1.35.4-.35.03-1.06-.3-1.29-.16-.02.01.18.3.09.47-.23.4-1.18,1.4-1.22,1.49-.13.29.47,1.38-.79,1.16l.48.36c-.88.94-1.17,2.2-1.91,3.3-.19.28-.63.38-.93.81-.5.72-.91,2.95-1.46,3.34-.29.2-.75.11-1.09.11.06,1.34-.4,0-.47,0-.33.02-.83.35-.97.68-.75-.48-.99.17-.12.39-1.12,1.24-1.47,3.05-2.76,3.96l-.61-.62c0-.61,1.03-1.04.49-1.78l.72.24-.12-.72,1.08.48c-.39-.82.05-1.46.22-2.23-.11-.47-.78-.52-.9-.7-.06-.08.11-1.52.2-1.68.17-.3.6-.33.83-.67.36-.55.32-1.38.84-2.04,1.13-1.44.64-.92,1.39-2.45.35-.72,1.54-.87,1.29-1.96l.69-.02c-.51-1.1.04-.81.21-1.16.49-1.01.52-1.3.27-2.44l-.35.47-2.61-.97c-.99.8-.56,1.81-1.18,2.72s-.99,1.63-1.53,2.42c-.75,1.1-1.07,2.2-1.81,3.6-.58,1.1-.67,1.03-1.34,1.67-.22.21-.33,1.08-1.15,1.37-.6-1.47-1.22,1.19-2.04,1.56l.48.47-.37.62-.83-.02-.25,1.55c-.58-.21-1.11,1-.72,1.57h-1.2s.11-1,.17-1.14c.08-.18.94-1.02.97-1.09.36-1.03.03-.52.71-1.68.15-.26-.02-.72.1-.86.07-.08.8.13.92-.63.09-.59-.38-.3-.72-.36l.48-.6-.95-.12-.22-1.06c.09-.4.72-.28.89-.41.11-.09.92-2.07,1.24-2.49.58-.78,1.84-.71,1.21-2.03l.72.24c-.47-.86.68-1.72,1.06-2.42.23-.41.35-1.4.54-1.66.17-.25.73-.37.76-.59.02-.17-.29-.53-.31-.81-.02-.3.17-1.29-.41-1.41Z"/>
      </g>
    </g>
  </g>
</svg>