<?xml version="1.0" encoding="UTF-8"?>
<svg id="Capa_2" data-name="Capa 2" xmlns="http://www.w3.org/2000/svg" viewBox="0 0 130.25 117.04">
  <defs>
    <style>
      .cls-1 {
        fill: #fff;
      }
    </style>
  </defs>
  <g id="STICKERS">
    <g id="_04_copia" data-name="04 copia">
      <g>
        <path class="cls-1" d="M129.31,21.7c0-.18-.01-.36-.03-.54-.11-1.32-.52-2.54-1.19-3.61-.03-.17-.07-.35-.11-.53-.18-.76-.44-1.42-.71-1.95-.09-.66-.27-1.32-.53-1.94-.05-.17-.1-.34-.16-.52-.47-1.38-1.21-2.43-1.91-3.2-.47-1.34-1.3-2.54-2.46-3.48-.11-.11-.21-.22-.31-.33-1.06-1.14-3.49-3.76-7.73-3.93-.39-.09-.78-.16-1.17-.19-.51-.14-1.04-.24-1.58-.27-.09,0-.17-.01-.26-.01-.68-.17-1.37-.26-2.05-.26-.01,0-.02,0-.03,0-.51-.1-1.08-.16-1.6-.16-.47,0-.91.04-1.3.1-.65-.17-1.41-.31-2.28-.31-.05,0-.09,0-.14,0-.61.01-1.21.08-1.79.22-.09,0-.18,0-.27,0-.56,0-1.07.04-1.53.09-.45-.07-.92-.11-1.35-.11-.55,0-1.79.1-2.75.21-.05-.01-.1-.02-.14-.04-.62-.15-1.24-.22-1.86-.22-.69,0-1.38.09-2.04.26-.19,0-.38.02-.56.03-1.04.09-1.91.21-2.69.32-.37-.05-.81-.09-1.31-.09-.29,0-.59.01-.88.04-.09,0-.19,0-.28,0s-.18,0-.27,0c-.73-.22-1.5-.33-2.28-.33h-.07c-.42,0-.84.04-1.25.11-.56-.11-1.19-.18-1.89-.18-.33,0-.67.02-.99.05-1.35-.22-2.6-.22-3.53-.23h-.63c-.35-.01-.73-.02-1.11-.02-.96,0-1.98.03-3.04.16-.41-.06-.82-.09-1.25-.09-1,0-1.88.17-2.58.35-.94-.02-1.67-.04-2.25-.05-.92-.36-1.93-.56-2.98-.56,0,0-.12,0-.18,0-.66.02-1.25.1-1.74.2-.51-.1-1.11-.17-1.76-.17-.86,0-1.71.12-2.51.37l-.37-.07c-.47-.08-.94-.12-1.41-.12-.36,0-.71.02-1.06.07-.35-.05-.71-.07-1.06-.07-.75,0-1.49.1-2.2.31-.38-.06-.77-.08-1.15-.08-.25,0-.51.01-.76.04-.48-.1-1.02-.17-1.66-.17-.08,0-.16,0-.23,0-.78-.16-1.59-.23-2.46-.23-.18,0-.35,0-.52,0-.32-.1-.65-.17-.98-.23-.44-.07-.88-.11-1.31-.11-.41,0-.82.03-1.23.09-.48-.08-1.03-.14-1.64-.14-.22,0-.44,0-.66.02-.12,0-.24,0-.36,0-.29,0-.59.02-.88.05-.4-.05-.89-.1-1.46-.1-.45,0-.9.03-1.33.09-.12,0-.41,0-.43,0-.64-.17-1.31-.25-1.98-.25-.36,0-.72.02-1.08.07-.54.08-1.08.2-1.58.38-.12.03-.24.06-.36.09l-2.52.71c-.89.25-1.71.65-2.45,1.17-.22.14-.44.3-.65.46-.4.18-.83.41-1.27.7-.28.18-.55.38-.8.6-1.43.83-2.55,2.07-3.24,3.53-.75.87-1.31,1.9-1.64,3.02-.15.52-.24,1.05-.29,1.58-.34.69-.67,1.54-.86,2.56-.03.17-.05.33-.07.49-.68,1.46-1.17,3.63-1.48,6.47-.36.68-.58,1.33-.72,1.89-.29,1.17-.29,2.22-.17,3.11-.22.74-.34,1.44-.4,2.1-.42.83-.71,1.73-.83,2.69-.07.58-.08,1.15-.03,1.72-.01.08-.02.17-.03.25-.49,1.08-.75,2.27-.72,3.49-.63,1.39-.86,2.93-.64,4.43-.03.11-.06.23-.09.35-.19.43-.35.88-.46,1.33-.16.64-.22,1.23-.24,1.78-.25.75-.38,1.51-.52,2.48-.39.79-.64,1.55-.79,2.28-.37,1.15-.47,2.39-.29,3.61.01.09.03.18.04.27-.01.04-.02.08-.04.12-.1.35-.19.72-.27,1.09-.49,1.02-.75,2.14-.78,3.26-.22,1.13-.22,2.06-.21,2.6-.36,2.14-.93,4.7-1.49,7.16-.17.75-.28,1.57-.39,2.38-.38.65-.73,1.45-.96,2.4-.19.79-.3,1.79-.16,2.92-.14.51-.26,1.11-.32,1.77-.01.14-.02.28-.03.42-.4,1.04-.58,2.15-.52,3.28-.1.72-.12,1.34-.13,1.77,0,.03,0,.06,0,.09-.36,1.56-.43,2.61-.49,3.47-.02.23-.03.48-.06.77-.34,1-.83,2.49-.77,4.28.02.51.08,1.02.19,1.5.02,1.12.17,2.12.34,2.91.36,1.72,2.38,6.75,3.27,8.14.3.47.63.89.96,1.27.34,1.28.97,2.73,2.22,4.27.85,1.06,1.89,1.89,3.04,2.47.22.17.45.34.69.49.06.04.12.07.18.11,1.23.92,2.7,1.48,4.26,1.58.11.03.23.06.34.09.56.15,1.33.35,2.21.46.57.07,1.14.11,1.76.11h.1c.94.37,1.94.56,2.96.56.39,0,.78-.03,1.17-.09.11,0,.22,0,.33,0s.22,0,.33,0c.43.07.86.1,1.29.1.4,0,.8-.03,1.19-.09.16,0,.31.01.47.01.7.2,1.44.3,2.19.3h.06c.68,0,1.35-.1,1.99-.27.28.03.56.04.84.04.47,0,.93-.03,1.57-.09.64.16,1.46.31,2.41.31.21,0,.5-.01.7-.03.19-.02.38-.04.57-.06.48.09,1,.14,1.56.14.3,0,.6-.02.9-.05.25.02.51.03.77.03.48,0,.92-.03,1.3-.07.69.19,1.39.28,2.1.28.08,0,.17,0,.25,0,.47.08.99.14,1.54.14,0,0,.12,0,.17,0,.64-.01,1.27-.1,1.88-.26.46.02.92.04,1.38.05.22.06.44.12.66.16.52.1,1.05.16,1.57.16.4,0,.8-.03,1.19-.09.4.06.8.09,1.21.09.34,0,.69-.02,1.03-.07.34.04.68.07,1.02.07.79,0,1.59-.12,2.35-.35,0,0,1.31,0,1.31,0,1.21-.01,2.4-.02,3.58-.02,3.02,0,5.47.06,7.69.19.37.02.78.03,1.22.03.11,0,.23,0,.34,0,.19.07.4.14.61.2.08.03.15.07.23.1.95.38,1.95.56,2.95.56.19,0,.39,0,.58-.02.16,0,.32.01.48.01.62,0,1.25-.07,1.87-.22.04,0,.13,0,.14,0,.4,0,.97.05,1.57.1.87.07,1.85.16,2.92.16.25,0,.49,0,.72-.01.63.16,1.27.23,1.92.23.87,0,1.74-.14,2.57-.42.02,0,.1,0,.12,0,.38,0,.75.02,1.13.04.63.03,1.26.06,1.91.07.33,0,.65-.02.97-.06.5.08,1.07.14,1.67.14.44,0,.88-.03,1.3-.09.34.03.68.05,1.03.05,1.04,0,1.95-.14,2.66-.28.33.04.69.07,1.07.08h.08c1.13,0,2.24-.24,3.26-.69,3.59-.78,8.95-3.92,10.8-7.73,1.55-2.12,2.26-4.37,2.73-6.05.59-1.03.95-2.19,1.03-3.4.04-.22.08-.45.1-.68.11-.31.21-.61.3-.91.4-.81.66-1.68.77-2.6.09-.75.07-1.49-.05-2.22.58-1.19.87-2.52.81-3.88,0-.05,0-.1,0-.15.27-.99.35-2.03.23-3.06.03-.12.05-.25.07-.38.3-1.69.54-3.36.77-4.98.09-.66.19-1.31.29-1.97.25-.51.45-1.05.58-1.6.13-.38.22-.74.29-1.08.09-.44.18-1.12.15-1.94.01-.08.03-.15.04-.23.08-.52.18-1.04.28-1.57.18-.94.38-2,.51-3.1.58-1.32.82-2.77.67-4.25.15-.58.25-1.17.3-1.78.26-.79.39-1.61.39-2.45.16-.83.18-1.59.15-2.22.16-.54.32-1.17.42-1.87.05-.32.09-.65.13-.98.69-1.47.86-2.93.85-4.17.05-.17.09-.35.13-.52.19-.59.33-1.23.39-1.9.52-1.7.53-3.27.54-4.45v-.3c.02-.06.04-.13.06-.19.25-.81.57-1.81.67-2.96.04-.47.05-.93.03-1.38.29-1.03.38-1.8.37-2.54.05-.3.08-.61.09-.92,0-.18,0-.36,0-.55.31-1.71.41-3.38.5-4.88.02-.28.03-.56.05-.84.18-.72.45-1.79.4-3.12-.03-.85-.21-1.91-.73-3.03-.03-.45-.1-.9-.21-1.33Z"/>
        <path d="M31.34,8.7l1.54-.44.43.45c1.18-1.14,2.28,0,3.6-.47l.39.5c.28-1.37,2.48.56,3.5-.47l.24.48c1.12.03,2.62-.36,3.77,0,.24.08.12.52.53.49.47-.03.81-.42.97-.42s1.63.6,2.18.61l.23-.47c.96.33,2.56.48,3.35-.23.25.75,1.63.57,2.12,0l1.36.24-.12.48c.49-.48,2.19-.2,2.4-.28s.16-.47.47-.59c.37-.15,1.33.31,1.79.32.76.02,1.57-.38,2.08-.39.11,0,.07.4.25.45.3.08,5.23.17,6.01.19.4,0,1.94-.89,2.11.06,1.33-.59,3.51-.51,5.06-.49,1.14.01,3.43-.07,4.07.73.75-1.64,3.35,1.03,4.08-.48l.36.72.24-.48h.48c.12,1.26,1.67-.7,1.8.48.53-.83,1.59-.19,2.17-.27,1.12-.15,2.12-.32,3.37-.43.72-.06,1.14.4,1.89-.27.53,1.35,1.41.45,2.43.26.13-.02,2.26-.24,2.39-.21.15.03.1.45.22.43.95-.12,1.69-.48,2.93-.41.36.02.62.41.87.37.29-.04.6-.59,1-.6.26,0,1.6.55,1.95.56.51,0,1.46-.38,1.68-.34.25.05.25.51.38.6.05.03.89-.14,1.16.05-.67-1.08,1.13-.13,1.32.24l.47-.48c.41.55.88.6,1.46.26l.24.47c2.45-.92,2.97.87,4.56,2.16-.07.43.62,1.66.91,2.09.15.23.82.49,1,1.02.12.35-.51.5-.37.95h.69c-.41,1.21.69,2.06.84,2.68.25,1.06,0,1.39.65,2.65.1.2.46.22.47.34.06.76-.94.76.23,1.78l-.72.36c1.12.49.44.6.61,1.3.15.63.82,1.05.83,1.12.01.36-.31,1.23-.35,1.78-.15,2.03-.19,4.09-.59,5.89-.08.35,0,.72-.01,1.07l-.48-.24c-.28.6.36,1.27.38,1.56.02.27-.71,2.06-.86,2.4-.07.16.58-.08.5.71-.06.6-.6,1.92-.7,2.64-.16,1.1.06,2.81-.3,3.79-.07.18-.41.16-.42.29-.03.54.55,1.43-.28,1.71.52.73-.23.52-.26.72-.05.38.31,2.29.01,2.74l-.48-.24c-.03,1.08-.14,2.28-.3,3.42-.09.62-.49,1.68-.58,2.26-.08.54.49,1.95-.56,2.01l.42.27.06.68h-.72c.56,1.04.6,3.02-.72,3.36l.72.24-.48,1.31.48-.12c.32.8-.67.85-.71,1.11-.03.19.22.83.18,1.23-.16,1.57-.56,3.24-.8,4.81-.06.41-.5.99-.49,1.13.01.45,1.02.59-.33,1.2l.48.24c-.24.19-.42.41-.47.73-.45,2.78-.78,5.59-1.27,8.33-.19,1.07-.95,1.51-.14,2.72-1.05.82.5,1.57-.99,2.15l.72.48c-.83.67-.73,2.38-.84,3.47-.05.5-.55.74.13,1.33l-.48.26c.5.62-.68,2.46-.68,2.61,0,.64.42.83-.52,1.45l.48.24c-.19.14-.33.3-.4.53-.48,1.63-.89,3.7-2.12,5.11-.14.16-.49.19-.55.28-.04.06.17.39.07.66-.4,1.01-4.12,3.29-5.25,3.36-.5.03-.75-.62-.98.26l-.6-.48v.72c-.37,0-.7-.28-1.07-.24-1.3.12-2.9.95-4.32-.01-.21,1.05-2.1.14-2.65.1-.22-.02-.49.32-.74.32-1.91,0-3.92-.39-5.73.31l-.12-.72c-.5-.04-.93.39-1.38.44-2.45.29-5.27-.58-7.64.03l-.22-.48-.84.48-.14-.48c-.79.53-1.37-.29-1.9-.36-.57-.07-1.96.02-2.84-.04-3.91-.23-7.79-.23-11.82-.19-1.06.01-1.51-.06-2.62.08-.46.06-.74-.64-.97.26l-1.92-.72-.12.72-2.01-.5-.39.49-.14-.49c-1.49.36-3.25.07-4.8.06-.3,0-.53.32-.72.33-.59.01-1.98-1.14-1.8-.14-1.41-1.19-3.45.6-4.68-.71l-.11.48c-.64.23-1.14-.43-1.58-.48-.56-.06-.94.44-1.43.48-.57.04-1.15-.36-1.71-.38-.39-.01-2.38.22-2.49.15l.12-.48c-.91.9-2.24-.59-2.88.72l-.37-.72c-.86.51-2.53.59-3.35,0l-.14.49c-.61-.43-1.26-.02-1.81-.11-.65-.12-.42-1.49-1.31.1-1.27-.94-2.4-.44-3.83-.62-.88-.11-2.03-.58-3-.59l.24-.72-.96.24-.24-1.2c-.08-.08-.72.99-1.54-.02-1.13-1.39-.62-2.09-1.01-3.04-.1-.24-1.32-1.26-1.63-1.76-.36-.56-2.02-4.66-2.19-5.49-.15-.7-.33-2.4.13-2.88l-.49-.14c-.02-.65.57-1.91.64-2.44.27-1.96.1-2.48.55-4.33.29-1.2-.12-2.63.74-3.54l-.48-.24c.15-.14.38-.31.42-.52.11-.64.05-1.37.11-2.07.07-.84.83-1.59.67-2.68-.05-.32-.44-.6-.38-.87.1-.41.67-.7.78-1.1.19-.62.35-2.77.58-3.74.58-2.55,1.24-5.5,1.64-7.99.17-1.04-.26-2.26.74-3.12l-.48-.24c.45-.58.52-1.55.74-2.34.05-.17.36-.17.4-.3.23-.73-.06-2.66-.18-3.48h.72c.11-.4-.44-.12-.49-.39-.17-.83.59-1.25.67-1.69.07-.42.26-2.25.4-2.61.12-.3.51-.26.59-.47.08-.2-.25-1.62-.19-1.89.03-.12.2,0,.36-.87.23-1.26.98-2.56.35-3.84l.72.24-.25-.83.49-.37-.49-.14c-.01-.76,1.52-1.84.26-2.38.97-.6.52-1.76.72-2.76l.48.24v-1.52s-.48-.28-.48-.28c1.25-.34.04-1.7,1.2-2.16-.99-.84.34-2.23.41-3.16.04-.52-.46-1.32-.38-1.63.07-.28.67-.1.8-1.71.08-.99.42-4.23.9-5.22.19-.39.62-.32.8-.88.17-.51-.2-1.1-.12-1.55.17-.94,1.71-2.03.96-3.35l1.18-.64v-1.19c.93.78,1.06-.75,1.19-.83.63-.41,1.48-.08,1.82-1.09.3.95.86.52.36-.24l2.52-.71.47.71.37-.96.51.69ZM39.16,15.03c-.46-.24-1.33,0-1.86-.78.64,1.52-.77.53-1.27.54-1.95.04-3.78,2.07-4.16,2.11-.27.03-.72-.28-.78-.24-.3.2-.29,1.17-.4,1.4-.42.85-1.21,1.34-1.3,2.3-.22,2.29.74,3.3,1.19,5.29,1.09,0,1.75.99,2.94,1.38.67.22,2.28-.04,2.48.67.57-.66,1.96-.17,2.03-.25.05-.07-.1-.5.04-.67.1-.12,1.34-.38,1.64-.54l-.48-.47c1.01-.2,1.4-1.23,1.91-1.98.14-.21.52-.27.61-.42.25-.44.11-2.05.11-2.5,0-.15.39-.11.44-.25.37-.97-.83-1.56-.84-1.66-.03-.22.26-.59.15-.95-.09-.28-.56-.31-.63-.46-.22-.42-.11-.97-.58-1.47-.1-.11-1.16-1-1.23-1.04ZM55.28,16.14c-.51-.26-.94-.52-1.55-.49-.43.02-.31.41-.47.45-.4.11-1.14-.37-1.47.54l-.57-.24.24.96-.96-.24.24.72-.72-.24c.24.94-.68.81-1.05,1.19s.11.81-1.25.96c.24.9-.43,1.93-.48,2.64-.02.32.29.48.31.67.05.64.09,1.34.07,1.98l.72-.24-.24.96c1.06-.49.55.09,1.06.49,1.77,1.38,2.71,1.18,4.61,1.87.36.13.36.52.45.53.8.11.73-.6,1.23-.96.26-.19.65-.02.75-.1,1.42-1.09,2.54-3.28,2.94-4.78.04-.17,1.01-.46.25-1.51l.46-.21c-.6-.99-.51-2.03-1.44-2.89.36-.23.61.03.48-.6-1.28.61-1.23-.96-1.46-1.19-.08-.08-1.64.21-2.02-.73l-.14.46ZM74.42,16.96c-.37-.21-1.26-.29-1.72-.32-.73-.05-3.14-.19-3.67-.1-1.47.24-1.19.81-1.73,1.35-.31.31-1.01.8-1.2,1.08-.52.74-1.48,3.62-1.32,4.5.08.44.54,1.07.7,1.58.11.33-.1.66-.08.69.06.08.59.08.77.24.43.36.77,1.26,1.38,1.57.41.2,1.01-.1,1.3,0,.36.12.51.56.98.62.37.05.78-.22.97-.19.31.04.12.96,1.12.61.14-.05,2.39-1.58,2.51-1.7.22-.22.14-.64.38-.84.11-.09.45,0,.57-.11.23-.22.61-1.29.32-1.62l.72.24-.25-.83.5-.25-.49-.26c.35-.66.03-1.3.04-1.91,0-.3.31-.54.32-.71.01-.35-.07-1.36-.16-1.66-.13-.45-.6-.11-.79-.38-.29-.4-.59-1.28-1.18-1.61ZM105.22,17.36c-.74-.63-1.48.03-1.79-.96l-.27.5c-1.09-.42-2.49.36-3.58.18-.14-.02-.11-.46-.22-.44-.87.86-1.65.03-2.37.07-.81.04-2.75,1.08-2.91,1.08-.1,0-.66-.48-1.07-.56-.49-.09-1.2.22-1.79-.12l-.15.5c-.1.07-1.02-.95-1.1-.95-.39-.02-1.23.35-1.67.45,0-.58-1.12-.46-1.61-.36-.95.19-1.8.99-2.72,1.34l.11.61-.68.12.5.37c-.89,1.58-.52,3.29-.73,5.02-.08.63-.44,1.07-.5,1.68-.09.89.31,1.63.07,2.48.64.1.41.86.78,1.25.25.26.92.12.85.71.67-.75,1.36-.1,1.92-.12,1.2-.05,2.47-.35,3.69-.35l.38.48c.1-1.17,1.01-.33,1.84-.26s1.58-.35,2.02-.34c.94.02,1.88.81,2.74-.12.26,1.29,4.04.32,4.2.48l.12.72c.61-.34,1.23-.48,1.92-.61.13-.02.36.28.47.26.71-.13,2.49-.9,2.93-1.43.11-.14.04-.48.14-.57.18-.16.6,0,.67-.06.08-.06-.2-.56-.17-.8.11-.82.97-1.67.44-2.69l.42-.21c-.27-.68-.55-1.48.26-1.7l-.02-.35c-1.05-.03-.11-.75-.08-1.09.03-.3-.31-.7-.3-1.15,0-.54.39-1.22.37-1.74-.04-1.1-1.74-1.91-2.71-2.03l-.38.72ZM114.87,21.86c-.13-.08.11-.52-.28-.42-.61,1.63-.45,3.38-.78,5.1-.1.51-.64,1.47-.66,1.75,0,.07.66.2.46,1.05l-.71.02c.12.79.22,2.03.17,2.8-.06,1.04-.56,3.08-.57,4.03,0,.18.45.42.37.91-.1.58-.95,1.05-.46,2.09h-.72s.48,3.12.48,3.12l-.72.12.49.49-.49,3.23-.72-.24-.24.61.5.24c-.3.7-.58,1.03-.25,1.8l-.48-.24c-.24.72.3,1.92.19,2.46-.09.42-.68,1.79-.91,2.22.68.11.34,1.7.23,2.35-.03.19-.4.14-.42.28-.08.58.27,1.75.19,2.38s-.98,1.78-1.11,2.94c-.14,1.3.46,2.45.39,3.07-.04.34-.4.6-.46.99-.23,1.41-.22,3.1-.98,4.3l.48.24c-1.24.43-.46,1.31-.75,2.13-.12.33-.57.32-.64.43-.03.04.16.69.07,1.04-.53,2.08-.2,2.44-.38,4.31-.08.81-.96,1.89-.22,2.64-.15.02-.89,1.79-.94,1.97-.08.34.26,2.04.21,2.56-.01.16-.69.24-.68.8,0,.34.37.53.38.87.02.73-.82,1.85-.82,1.97,0,.15.35.36.35.68,0,.22-1.27,3.9-1.38,4.09-.15.26-.56.08-.68.2-.07.07-.67,1.19-.83,1.34-.23.22-.59-.27-.76.78-.19.15-1.78.36-2.12.48-.2.07-1.16.62-1.49.73-.78.27-2.63.32-3.32.3-.95-.03-1.7.14-2.57-.33v.72c-.76-.27-1.38-.25-2.05.24-.18-.83-.94,0-1.67-.73l-.46.48c-.68-.11-.58-.68-.63-.7-.11-.07-2.12,1.46-2.16,0h-.23c-.05.08.1.4-.15.47-.27.08-2.86-.21-3.29-.32-.27-.07-.52-.45-.64-.39-.02,0,.05.27-.08.38-.83.7-.54-.09-.79-.15-.76-.19-1.39.65-2.55.23-.23-.08-.12-.47-.53-.49-.66-.03-1.02.36-1.45.4-.61.05-.21-.45-1.35.06-.43.19-.85-.55-1.34-.64-.42-.07-2.59.28-2.71.2l.24-.48c-.88-.28-.88.32-1.15.46-.17.09-1.58.05-1.81.02-.19-.03-.15-.46-.32-.49-.64-.12-1.29.64-2-.23l-.15.49c-1.14-.52-1.97.29-3.07.19-1.83-.16-3.27-.6-5.1-.6-1.28,0-2.61.41-3.8-.33l-.24.72-.6-.72c.17.91-1.61.2-2.06.13-.52-.08-1.04.22-1.43-.37-.31,1.08-.87.08-1.2.09-.51.01-2.24.76-2.96.33-.1-.06.11-.64-.52-.41v.72c-.62.24-.41-.41-.59-.43-.86-.1-2.35-.25-2.89.43l-.25-.49c-1.5.52-3.11-.84-4.54.26-.24-.92-.89-.22-1.68-.23-.91,0-1.71-.4-2.64-.02.11-1.35-.45-.02-.52-.01-.54.12-1.5-.4-1.93-.42-1.23-.05-3.35.22-4.73.16-1.06-.04-1.72-.75-2.66.03-.17-.81-1.22-.48-1.68,0l-.12-.48c-.08-.07-.63.82-1.2,0l.24.72-.6-.48c-.22.92-1.88.59-2.17-.25l-1.07.73c.48-.04,1.57,1.42,1.68.79-.11-.71.12-.58.72-.55l-.24.72,1.56.48c-.29-1.91,1.34.24,1.46.24.5.02,1.49-.47,2.15-.49,1.05-.03,4.69.14,5.63.4.19.05.36.47.59.5.15.02,2.29-.56,2.85-.4.18.05.15.46.29.48.46.06.84-.47,1.42-.52,1.71-.12,4.68.09,6.24.51.23-.88,1.38-.32,2.23-.32s2.04-.2,2.82-.18c.12,0,1.28.78,2.13.74.15,0,.1-.4.25-.44,1.45-.36,4.27.74,5.75.18l.25.49c1.76-.67,5.27-.2,7.2.25.24-.67,3.21-.55,3.97-.34.2.05.4.51.59.52.12,0,.63-.5,1.05-.55.45-.06.86.3,1.35.32.7.02,3.37.06,3.81-.01.3-.05.43-.55.87-.42v.72c1.18-.31,2.39.23,3.69-.26l.27.5h.35c-.05-.94,1.13.08,1.81-.73l.73.75c1.44-.84,3.35-.1,5-.11,1.05-.01,2.44-.89,2.55.34,1.11-.88,2.73-.13,4.01-.07.29.02.5-.32.66-.32,1.32,0,4.19,1.02,5.73.55.36-.11.55-.57.75-.59s.51.41.92.37c.49-.04,1.74-.55,1.94-1.08l1.33.16v-.71s.73.24.73.24l-.24-.72,1.44-.48-.24-.72c1.31.22.77-.3,1.03-.64.53-.71,2.14-3.14,2.49-3.98.07-.15.26-1.69.34-1.95.06-.2.47-.16.46-.26-.02-.2-.42-.59-.38-.97.03-.29.67-.87.76-1.31.13-.63-.57-1.33.58-1.45l-.51-.59c.03-1.57.84-3.34.99-4.81.09-.89-.3-2.42-.16-3.08.87-4.06,1.94-8.26,2.68-12.4.22-1.24-.21-3.34.83-4.21-1.24-.66-.41-.4-.3-.99.09-.48.49-2.06.49-2.17,0-.29-.33-.51-.33-.67,0-.19.49-1.27.86-1.09l-.48-.36c.66-.69.06-1.01.13-1.31s.52-.65.54-1.13c.03-.67-.26-1.72-.11-2.81.08-.56.79-.88-.07-1.47l.72-.48-.72-.84.72-.13c-.54-.81.33-1.33.44-1.98.12-.75-.14-1.05.12-2.23.21-.98.08-1.01.13-2.03.04-.83.68-1.17.27-1.91l.48.12c-.69-1.68-.81-1.91.24-3.49l-.48-.47.72-.73-.48-.47c.94-1.03.51-2.76.76-3.8.08-.34.63-.57.62-.77-.05-1-.44.25.19-1.1.15-.32-.04-.59,0-.82.04-.22.28-.41.29-.53.03-.47-.54-.78-.66-1.16-.03-.11,0-.24,0-.36l.7-.13v-.83s-.71.24-.71.24c.42-.82-.33-1.42.48-2.16-.3-.02-.65.1-.92-.06ZM31.54,37.04c-.3-.97-2.69-1.41-3.44-1.17-.07.02-1.06,1.02-1.1,1.08-.19.29-.03.54-.11.75-.02.05-.39.05-.4.19,0,.09.5,1.66.55,1.73.07.1,2.02,1.05,2.2,1.03.2-.02.21-.47.37-.59.19-.15.72.02,1.02-.14.74-.39.9-2.08.45-2.78l.46-.1ZM41.32,36.15c-.7-.39-2.53.53-3.29.41.28.81-.39,1.7-.65,2.52.35.81,1.57.85,1.37,1.8l.61-.47c.44-.16.23.98,1.38.24.43-.27,1.9-3,1.79-3.25-.07-.15-.43-.09-.43-.26l.25-.58c-.85.3-.92-.36-1.02-.41ZM52.59,37.35c-.17-.23-2.18-1.24-2.46-1.27-.1,0-.07.42-.27.47-.3.08-.69-.1-.98.05-.31.16-1.31,2.25-1,2.58l.73.15v1.04s1.18.26,1.18.26l-.24.48,1.07.02c.08-1.3,1.48-.51,2.29-1.34l-.72-.12c.01-.52.63-.75.63-1.35,0-.32-.03-.72-.22-.97ZM73.11,36.76l-.15-.43-2.14.71c0,.73-.6.84-.78,1.44-.28.94.43,1.34.14,2.17,1-.25,1.47.5,2.29.96l.12-.72.6.48c.2-.73.66-.47,1.32-.48.08-.64.02-.61-.48-.84.95-.34.54-1.09.96-1.93.16-.59-.4-.19-.66-.41-.05-.04-.35-1.03-.58-1.09-.2-.05-.41.26-.63.14ZM63.86,37.6c-.14-.21-.84-.66-1.03-1.02-1.46.08-2.49,1.23-3.68,1.9l.48.36c.24.66-.8-.19-.48.47.07.14,1.17,1.47,1.25,1.52.31.18,1.66-.47,1.63.52h.47c-.02-.72.97-1.75,1.68-1.92l-.48-.24c-.19-.24.71-.75.16-1.6ZM85.25,38.05c-.05-.09-1.19-.79-1.27-1.48-.52.82-1.48-.24-1.57.96l-.71-.72c.48,1.1-.29.7-.74,1.13-.27.26-.72,1.74-.7,2.09,0,.05.67.7.71.72.31.15.94-.35.97.62h.23c-.12-.84.74-.35,1.27-.47.13-.03,1.29-1.5,1.85-1.21l-.72-.6c0-.14,1.28.03.67-1.03ZM93.28,40.47c.16-.16.63-.07.79-.3.07-.09.55-2.08.49-2.17-1.05-1-1.75-.75-3.01-.72v.72s-.73-.24-.73-.24c.54.83-.44,1.43-.39,2.04.01.17,1.07,1.47,1.16,1.5.3.11,1.22-.04,1.47-.17s.09-.53.21-.66ZM104.74,38.24c-.71.32-.94-.59-1.82-.71-2.78-.39-2.59,1.61-1.76,3.58.95-.36,1.66.48,2.47-.02.93-.56.96-1.82,1.11-2.85ZM28.05,46.31c-.18-.36-.32-.7-.35-1.11l-1.2.24c-.06.05.16.43.11.58-.28,1.01-.59,1.63-.83,2.61-.05.21-.44.15-.44.27,0,.69.26,1.67.22,2.41l-.73.13c.98,1.19-.14,2.53-.41,3.79-.72,3.37-.91,6.74-1.97,9.59-.05.14-.49,2.67-.5,2.83-.05.6.56,1.14.48,1.78.92-.3,2.08-.12,2.15-1.33.02-.32-.25-.73-.2-.93.03-.12.75-.44.86-1.28.19-1.46-.65-2.45.11-3.98.15-.31.56-.34.63-.51.16-.41-.16-2.23-.19-2.76l.48.24c-.04-.34-.16-.6-.13-.96.18-1.87.82-3.47,1.27-5.21.19-.73-.21-1.57.53-2.12l-.47-.47c1.16-.31.4-1.48.55-2.18.08-.37.99,0,.38-1.35-.09-.21-.32-.23-.35-.29ZM61.29,45.93l-1.92.35c-.05.89-.61,1.62-.81,2.41-.08.32.08.77.02,1.14-.32,1.77-1.19,2.64.93,4-.03-.97.66-.58.86-.86.41-.55.13-2.01.27-2.36s.66-.31.67-.52c.04-.53.06-1,.12-1.56.04-.41.09-2.44-.14-2.61ZM39.22,46.89l-.72-.73-.26.46-.7-.23.24.82c-1.73,1.23-1.7,4.19-1.93,6.14l-.72-.24c.31,1.02.19,3.07,1.56,3.29.79.13.82-1.17.92-1.32s.63-.23.64-.41c0-.05-.5-.3-.44-.9.07-.73.77-1.35.88-1.81.16-.68-.17-2.92-.14-3.72.02-.4.16-.95.64-.91v-.46ZM49.83,49.24c.25-1.38.73-3.12-1.24-3.08v.72s-.72-.24-.72-.24l.24,1.31c-1.1.46-.49-.07-.61.88-.08.6-.54.75.13,1.4-1.38.18.14,1.53-.96,2.4l.48.12c-.23.44-.84,1.04-.92,1.49-.09.59-.08,1.55-.2,2.39-.08.53.57,1.15-.56,1.29.68,1.02,0,1.16-.14,2.14-.14,1.06.11,2.15-.26,3.35-.24.76-.25.23-.43,1.35-.04.27-.32.36-.37.48-.03.06.92.4.72,1.08l2.15-1.2-.48-.24c-.2-.64.32-.38.49-.64.24-.35-.08-.84.03-.98.1-.13.48-.11.62-.44.1-.22-.12-1.54.09-1.76l.69-.02-.71-1.56c1.22-.64.65-.72.77-1.61.12-.81.5-1.51-.03-2.24l.65-.39-.18-1.06c1.29-.4-.85-1.46.46-1.94-.12-1.18-.26-1.98.72-2.84l-.43-.16ZM82.13,46.47c-.4-.21-1.24.35-1.49.67-.44.54-.13.96-.27,1.19s-.63.13-.72.94c-.06.57.48,1.43.38,1.78-.05.18-.46.14-.45.26.03.58.39,1.13-.04,1.91l.48.25-.22.86-.48.12.48.6h-.72c.48.6-.25.35-.27.83-.01.41.2.8.25,1.2l-.7.38c.74.8.18,1.68,1.07,2.39,1.27-.44,2.46-2.51,1.55-3.7l.74-.74c-.94-.25-.26-.46-.09-1.01.44-1.42.28-2.88.62-4.52.03-.12.35-.08.37-.23.06-.42-.05-1.24-.19-1.67l.48-.14-.48-.36.37-.16.12-.44c-.61.23-.71-.38-.78-.42ZM92.5,46.4l-1.88.29c-.22.94-.99,1.47-.5,2.44l-.5.26c1.1,1.43-.26,3.02.26,4.67l1.29.26c.11-.59.62-.27.75-.47s-.05-.51.03-.73c.32-.92,1.06-2.14.31-3,.73-.67.25-1.14.16-2.25-.04-.5-.02-.97.08-1.46ZM71.62,47.6s.49-.72-.13-.95c-1.17.07-1.49,1.16-1.88,2.07-.06.14-.7-.02-.14.9l-.5.27.25,2.62-.72.25c.44.94.11,1.63.4,2.64l-.88.36c.92,1.64-.25,3.51-.67,5.21-.13.53.47,1.03-.5,1.62l.45.6h-.72c.59.54.21,1.27-.02,1.98-.07.21-.43.18-.43.29.03.8.62,2.79,1.53,3.01.01-.63.9-.78,1.06-.99.1-.13-.29-.85-.23-1.28.07-.48.54-.64.66-1.01s-.06-1.15.33-1.63l-.5-.25c.91-.55-.16-1.24.74-1.47l-.26-1.3h.72s-.48-.96-.48-.96c.81.1.4-.9.5-1.54.22-1.36,0-2.38.96-3.38l.7-6.67.47-.17c.08-.47-.59-.13-.72-.24ZM101.87,47.36l-.24-.36c-.88.66-.84,1.71-1.69,2.18l.27.92c-.83,1.47-1.05,4.45-1.3,5.98-.31,1.89.23,1.39.31,2.45,0,.1-.39.06-.45.26-.24.73-.04,2.15-.16,2.75-.12.66-.73,1.86-1.07,2.5,1.24.47.15.55.07.64-.72.84,1.34,1.86,2.1,1.63-.36-.63.61-.72.72-1.56l-.72-.24c1.3-.73-.48-2.15.96-2.53-.79-.72.24-.98-.24-1.92l.47.24c.48-.79.02-1.62.08-2.25.13-1.34.86-2.01.86-3.59,0-1.44.15-.61.26-1.04.2-.8-.26-2.55.96-2.72l-.51-.59c.23-1.11-.21-1.71.27-2.77l-.6-.48-.36.48ZM61.29,55.26c-1.16-.54-2.31-.41-3.46-.53-1.59-.17-1.36-.99-2.67.54-.14.17-.5.23-.54.3-.09.16.18.5.12.76-.1.43-.6,1.13-.62,1.49-.08,1.2.25,2.53.52,3.67.68-.11,1.13.97,1.28,1,.24.05.5-.35.71-.37.36-.05,1.88.37,2.46.08.06-.03.09-.36.36-.5.37-.19,1.37-.42,1.52-.63.11-.15-.2-.64-.1-1.03.07-.26.44-.42.45-.78,0-.14-.43-.08-.49-.28-.24-.9.75-1.59,1.2-2.36-.93-.34-.59-1.02-.48-1.8l-.25.46ZM88.9,55.52l-.24-.72c.17.93-.91,1.22-1.68,1.2l.25.58-.5.25c.63.69-.1,2.77-.72,3.37l.72.24-.96,2.16c1.13,1.39,2.98.89,4.44,1.48.24,0,1.98-1.6,2.01-1.73.05-.24-.24-.63-.19-.93.14-1.07,1.26-2.38.49-3.63l.48-.24c-.52-1.02.14-.73.2-.97.05-.16-.18-.73.01-1.05-.82.29-1.25-.09-2.02-.26l-.28.51c-.79-.12-1.19-.67-2.02-.25ZM35.38,57.2l-2.6,1.23c.38,1.21-.63,2.22-.71,3.03-.1.98-.03,1.12.15,1.92.1.44-.37,1.54.04,2.23l.68-.22c.56,1.73,4.31.81,4.83-.62-.85-.17-.24-1.02.48-.84l-.49-1.54.51-.28-.26-.82h.72s-.24-1.44-.24-1.44l.72.24c-.43-1.47-1.42-2.97-3.12-1.92l.24-.72-.96.48v-.72ZM81.45,61.79c-.13-.18-1.93-.82-2.31-.9-.26-.05-.57.14-.87.1-.65-.08-1.52-.82-2.44.04-.53.5-.82,5.15-1.58,6.13l.7.14c-.31,1.6,1.33.88,1.47,1.9.58.26.39-.4.63-.47.32-.09,1.34.24,1.66.19.53-.08,1.05-.7,1.79-.45-.51-.75.11-1.14.23-1.81.18-.98-.19-1.3.69-2.18l-.42-.89.7-.75-.5-.25.24-.8ZM57.53,64.81c-.12-.17-.06-.44-.07-.65l-.37.49-.82-.26c0,1.1-.67,2.23-.86,3.12-.16.73.47,1.88-.58,1.92.8.79.01,1.79-.13,2.87-.11.83-.02,2.43-.17,3.19-.12.58-.82.92-.85,1.02-.31,1.03-.05,3.23-.77,4.08l.46.43c-.18.53-.27,1.12-.94,1.14,1.17,1.65-.69,4.46-.48,6.11.04.28.1.46.38.57l1.52-.24c.2-1.57,1.05-2.57,1.18-4.18.07-.85.03-1.24.18-2.06.04-.22.21-.41.35-.58l-.48-.23c1.21-.79.34-1.05.33-1.44,0-.15.36-.43.38-.73.05-.71-.05-1.42.04-2.12l.69-.15c-.3-.95.32-1.83.49-2.76-.21-.36-.84.54-.71-.22.11-.66.71-2.34.95-3.09.07-.22.49-.15.48-.29-.02-.35-.41-.56-.42-.72,0-.19.54-.6.61-1.02.07-.39-.17-.76-.14-.95.12-.73.55-1.83.36-2.66-.12-.52-.47-.4-.61-.6ZM88.74,66.97c-.18-.25-.31-.92-.43-.89-.93.38-.94,1.35-1.56,2.04.9.26.24.2.13.72s.14,1.18.05,1.62c-.27,1.44-.66,2.94-.92,4.36-.1.53-.39,2.16-.93,2.07v.47s.47.12.47.12c-.65,1.52-.61,3.7-.79,5.45s-.67,3.59-.28,5.47c.14.67-.39.58.71,1.2l-.36-.96c.23-.02.58.09.75-.14.08-.11.76-2.3.85-2.66.08-.32.07-1.24.14-1.57.12-.55.25-1.92.9-1.87l-.73-.6c.62-.7.21-1.98,1.21-2.04l-.45-.27-.03-1.17h.72c-.74-1.05.45-1.91.45-2.03,0-.38-.27-.73-.19-1.44s.94-1.4.46-2.15l.48-.14c.11-.4-.46-.1-.5-.38-.07-.51.38-1.34-.21-2.12,1.25-.68.36-.47.28-1.25-.05-.48.48-1.05.4-1.39-.06-.26-.52-.31-.62-.44ZM33.99,67.95c-.17-.1-.17-.68-.53-.67,0,.41.01.82-.1,1.22-.72,2.43-2.09,6.44-2.48,8.78-.06.37.1,1.97.18,2.48h-.72c.05.35.21.64.18,1.02-.13,1.64-.74,3.76-.87,5.37-.07.77.29,1.66-.03,2.49.41.11.1-.46.38-.48.54-.05,1.28.52,1.68-.7.27-.83.2-2.28.36-3,.36-1.68,1-3.36,1.34-5.1.06-.31-.16-1.04-.11-1.16.06-.15.78-.46.92-1.21-1.24-.42-.04-.59,0-.75.23-.91.9-5.48.85-6.4-.02-.32-.07-1.78-.14-1.85-.07-.07-.64.11-.91-.05ZM96.34,67.28c-.63-.18-.52.45-.88.9-.73.91-.88.92-.92,2.35,0,.17.35.4.31.66-.04.25-.61,1.1-.75,1.67-.18.74.06,2.93,1.04,2.58l-.24.48c.84-.19,1.62.6,2.27.13,1.74.46,2.07-.42,2.8-1.61.14-.22.42-.25.53-.5.28-.69-.24-1.41-.19-1.88.11-1.16,1.05-2.55.81-3.92l-.33-.3c-.77.49-.58-.41-.97-.52-1.05.46-2.89-.73-3.35.45l-.12-.48ZM45.9,68.05l-3.07-.18c-.13.08-1.36,2.44-1.39,2.72-.08.73.26,2,.2,2.54-.02.17-.44.13-.49.31-.12.5-.2,2.62.29,2.91,1.18-.03,2.1.13,2.95,1.01.32-.68,1.3-.49,1.94-1.18s.4-1.31.59-2.01c.06-.21.46-.18.45-.28-.02-.29-.39-.79-.36-1.22.03-.38.43-.6.49-.96s.46-2.42.37-2.51c-.13-.12-1.33-.04-1.2-1.2l-.6.48-.17-.43ZM68.79,76.84c-.11-.14.29-1.18.34-1.56.11-.93.34-1.39.44-1.97.07-.41.34-2.77.27-2.9-.8-1.56-4.45.45-5.41-.96.26.99-.6.63-.87.95l.15.73h-.73s.22.61.22.61l-.46.22.48.98-.5.25.28,1.16-.5.26c.78.45.14,1.02.28,1.62.02.07.65,1.31.71,1.36.16.12,3.43-.25,4.05.26l-.48-.48h2.16c.21-.65-.33-.4-.43-.53ZM77.73,71.01c-.19-.23-.37-.7-.71-.61-.67.39-.73,1.3-.97,1.67-.18.28-.7.3-.81.65s-.07,4.24-.07,4.95c0,.46-.68.67.06,1.49-.64.47-.48,1.59-.84,2.53-.14.38-.57.66-.62,1.08l.5.49-.97,2.15c1.12.32.1,1.06.09,1.45,0,.12,0,1.07,0,1.19,0,.21.38.35.4.72,0,.18-.8,0-.49.6h1.68c.08-.65.27-1.36.5-1.98,1.28-3.42,1.42-7.95,1.95-11.58.19-1.3.77-1.69.41-2.85.86-.24.3-1.45-.12-1.94ZM24.5,76.35c.25-1.02.44-3.07.27-4.09-.06-.35-.21-.74-.42-1.03-.4-.32-.69.38-1.09.37-.31,0-.58-.42-.97-.48-.42-.06-1.26.29-1.86-.01-1.54,1.33-1.71,2.56-2.09,4.46-.16.82.27,1.57-.61,1.77l.61,2.17c1.05-.48.55.05,1.06.49.67.58,1.85.39,2.42-.25l.11.47h.48s.23-.61.23-.61l.74.13c-.27-.62.35-1.1.54-1.69.13-.41.55-1.62.57-1.72ZM97.54,78.32c-.43.34-1.39-.31-1.63-.18-.41.24-1.12,1.44-1.03,1.95l.5.26c-1.19,1.49-.8,3.25-.93,4.81-.04.51-.4.77-.49,1.22-.1.5.26,1.32.16,1.84-.08.44-.63,1.14-.58,1.51.03.25.84.74.64,1.31.83-.41,2.21-1.63,2.32-2.56.04-.36-.21-.76-.19-1.16.12-2.07.98-5.29,1.18-7.49.05-.51-.33-.97.05-1.51ZM44.5,78.8h-2.16s0,.78,0,.78c-1.06.62.08,3.17-1.43,3.31.73.63.08.84.1,1.08.02.29.28.48.27.86-.07,1.46-.96,2.8-.12,4.06.57-.49,1.54-.78,1.44-1.68l.72.24c.15-.41-.35-.54-.38-.84-.04-.44.69-1.51.76-1.79s-.33-.48-.32-.61c.02-.24.51-.4.56-.71.03-.21-.19-.59-.13-.93.21-1.24.54-2.5.71-3.76ZM66.11,82.4c-.51-1.05.34-1.85-.72-2.77-.98.02-1.39,1.18-1.59,1.98-.18.72.35,1.77-.81,1.52l.72.95c-1.33.12-.56,1.54-.47,2.5l-.72.5.02.34.48.15-.5,1.31.61-.21.45.48,1.34-.26c-.66-1.01.48-1.48.48-1.58,0-.25-.26-.6-.25-.95.01-1.04.14-2.7.97-3.35v-.36s-.72-.24-.72-.24h.72ZM21.71,82.17c-.53.01-.98-.25-1.5,0-1.15.53,0,2.2-1.38,2.41l.48.35c-.1.34-.64,1.01-.67,1.26-.05.39.36.66.34.91-.01.19-.41.41-.37.69.07.49,1.14,1.06,1.65.87l-.24-.72.72.24c.09-.12.08-2.41.25-2.94.06-.2.38-.18.41-.22.12-.15-.64-1.04.29-.43l-.48-.6.48-1.8Z"/>
      </g>
    </g>
  </g>
</svg>