<?xml version="1.0" encoding="UTF-8"?>
<svg id="Capa_2" data-name="Capa 2" xmlns="http://www.w3.org/2000/svg" viewBox="0 0 191.46 116.09">
  <defs>
    <style>
      .cls-1 {
        fill: #fff;
      }
    </style>
  </defs>
  <g id="STICKERS">
    <g id="_04_copia" data-name="04 copia">
      <g>
        <path class="cls-1" d="M189.37,62.31c-.14-.31-.29-.6-.45-.88-.29-.89-.74-1.73-1.33-2.48-.29-.6-.67-1.22-1.18-1.83-.14-.16-.28-.32-.43-.47-.14-.22-.3-.43-.47-.64-.28-.35-.58-.67-.91-.96-.32-.38-.7-.77-1.14-1.13-.32-.39-.69-.76-1.09-1.09-.43-.36-.87-.65-1.29-.89-.56-.73-1.37-1.65-2.48-2.45-.24-.26-.51-.5-.79-.72-.7-.92-1.6-1.68-2.62-2.22-.15-.13-.31-.26-.47-.39-.33-.26-.67-.48-.98-.66-.16-.18-.34-.39-.54-.6-.56-1.01-1.32-1.87-2.21-2.53-.71-.7-1.46-1.22-2.11-1.61-.18-.25-.39-.53-.63-.83.02-.15.03-.3.04-.45.46-.91,1.05-2.04,1.4-2.67.04-.04.08-.08.12-.13.77-.79,1.95-1.97,2.79-3.6.28-.53.5-1.08.66-1.65.49-.83.82-1.73,1-2.68.2-1.05.18-2.07.05-3.17.16-.84.19-1.72.08-2.59-.27-1.99-1.27-3.77-2.75-5.03-.45-.87-1.07-1.66-1.81-2.31-.19-.22-.4-.43-.61-.62-1.36-1.24-3.13-1.98-4.96-2.09-.85-.37-1.84-.71-3.15-.75-.13,0-.27,0-.42,0-.07,0-6.79.12-10.52,1.99-.83.3-1.61.73-2.31,1.27-1.4.57-2.62,1.53-3.51,2.78-.65.42-1.23.93-1.75,1.52-.5.57-.86,1.12-1.12,1.56-.19.19-.38.38-.55.59-.2-.14-.4-.27-.6-.39-.71-.53-1.51-.95-2.38-1.23-.16-.09-.48-.31-.72-.48-1.22-.85-3.19-2.22-6.06-2.86-1-.64-2.52-1.49-4.38-1.99-.32-.16-.66-.29-1-.41-.5-.16-1.01-.28-1.51-.34-.43-.12-.84-.19-1.2-.24-.14-.06-.29-.12-.44-.18-.56-.21-1.14-.37-1.73-.47-.07-.03-.14-.05-.21-.08-.41-.15-.83-.27-1.25-.36-.19-.06-.39-.12-.58-.17-.13-.03-.26-.06-.39-.09-.78-.46-1.65-.8-2.59-.97-.77-.14-1.55-.22-2.33-.22-.96,0-1.82.11-2.52.25-.81-.68-1.56-1.12-2.01-1.39-.04-.02-.08-.04-.11-.07-1.48-1.35-3.4-2.1-5.4-2.1-.2,0-.41,0-.61.02-.2,0-.41-.04-.62-.05-.62-.06-1.4-.13-2.25-.13-1.21,0-2.3.15-3.34.45l-.67.19c-1.04.29-2.32.66-3.5,1.09-.39.14-.75.3-1.07.46-.42.06-.84.15-1.23.26-.43.13-1.06.36-1.76.76-1.35.21-2.51.48-3.65,1.03-.06.03-.12.06-.19.09-.74.14-1.62.41-2.52.92-.91.16-1.99.43-3.11.95-.19.09-.38.19-.57.29-.1.03-.19.05-.29.08-.6.19-1.41.52-2.25,1.09-.54,0-1.08.05-1.62.15-.62.12-1.21.29-1.77.52-1.19.23-2.08.69-2.73,1.02-.06.03-.12.06-.17.09-.31.09-1.71.49-2.1.6,0-.22-.01-.51-.02-.72-.02-.92-.04-2.11-.28-3.4.18-3.43-1.11-6.83-2.36-8.65-.22-.33-.45-.62-.69-.87-.54-.88-1.25-1.67-2.11-2.3-1.43-1.05-3.15-1.63-5.11-1.72-.13-.04-.25-.07-.38-.11-.65-.16-1.3-.24-1.95-.24-1.21,0-2.41.28-3.5.81-.54.12-1.06.27-1.56.44-.38.04-.76.11-1.14.21-.18,0-.36.03-.54.05-1.5.18-2.88.78-4.01,1.69-.39.22-.77.43-1.13.63-2.57,1.41-5.47,3.01-8.34,6.66-1.79,1.68-2.71,3.5-3.02,5.26-.22.62-.4,1.3-.53,2.05-.07.39-.11.76-.12,1.12-.12.42-.2.85-.25,1.29-.39,1.44-.36,2.93.04,4.31.06.41.16.86.32,1.36.03.09.06.17.09.26.04,1.38.44,2.7,1.13,3.86.07.18.15.37.25.57-.19.11-.41.22-.78.41-1.27.63-2.21,1.45-2.91,2.22-.56.3-1.17.7-1.76,1.21-.57.5-1.03,1.02-1.4,1.52-.63.36-1.3.83-1.94,1.46-.17.1-.34.21-.51.33-.73.49-1.33,1.06-1.87,1.64-.42.22-.86.5-1.29.85-1.41,1.12-2.03,2.32-2.6,3.49-.27.28-.54.6-.83.98-.44.42-.83.86-1.17,1.33-.18.17-.35.35-.51.54-.32.2-.63.43-.95.7-.66.55-1.21,1.15-1.69,1.77-.5.35-.96.76-1.38,1.22-.26.28-.49.57-.69.85-.19.17-.37.35-.54.54-.46.51-.85,1.08-1.17,1.67-.97,1.14-1.6,2.29-2.01,3.03-.08.15-.16.3-.2.37l-.36.54c-.59.88-1.16,1.72-1.76,2.84-.63.71-1.04,1.42-1.29,1.96-.18.39-.34.79-.45,1.2l-.34.64c-.57,1.06-.89,2.23-.95,3.41-.05.26-.09.53-.12.81-.02.06-.04.11-.07.16-1.12,2.94-.9,9.33.08,11.95.49,1.29,1.17,2.26,1.79,2.94.31.51.67.98,1.09,1.41.93.97,2.67,2.76,8.83,2.76.44,0,.96-.04,1.4-.11,1.2-.2,2.08-.6,3.4-1.24,1.4-.26,2.71-.89,3.78-1.82,1.03-.56,1.93-1.34,2.64-2.31.23-.32.44-.65.62-.99.27-.29.51-.56.72-.83.25-.31.47-.62.66-.9.62-.51,1.16-1.11,1.6-1.79.5-.62.89-1.3,1.19-2.02.31-.32.6-.67.86-1.04.17-.24.32-.48.45-.73.2-.21.38-.42.55-.63,0,.19,0,.39,0,.59-.42,1.64-.28,3.22-.06,4.4-.17.56-.35,1.26-.46,2.06-.38,1.11-.52,2.3-.39,3.49-.13.58-.24,1.29-.27,2.09-.01.4,0,.79.05,1.18,0,.16,0,.3,0,.44-.05.36-.08.72-.08,1.08-.46,2.1-.31,4.07-.17,5.48-.45,1.62-.32,3.05-.14,3.96.04.22.1.43.16.64-.2,1.1-.34,2.56-.11,4.25.16,1.19.54,2.23,1,3.23,0,.28.01.56.04.85-.07.54-.07,1.07-.04,1.57.26,3.25,2.39,5.96,5.57,7.08.91.32,3.32.82,4.64.82.3,0,.62-.02.91-.05,1.87-.21,3.54-1.03,4.82-2.31.07-.05.14-.1.21-.16,1.76-.88,3.08-2.21,3.87-3.81.11-.13.21-.27.32-.41,1.33-1.12,2.26-2.34,2.83-3.76.76-1.22,1.08-2.44,1.17-3.52.7-1.74,1.06-3.7,1.44-6.05.38-.66.82-1.52,1.11-2.55.2-.72.29-1.39.34-1.94.23-.62.38-1.26.45-1.93.06-.21.11-.42.15-.65.28-.68.47-1.4.56-2.16.05-.17.11-.33.16-.45.05-.15.11-.31.17-.49.87,2.23,1.93,4.31,3.28,6.49.09.14.18.28.28.42.52,1.21,1.35,2.3,2.46,3.15.08.1.17.19.26.29.69,1.05,1.6,1.93,2.68,2.59,1.1.94,2.35,1.45,4.76,2.35.79.54,1.67.95,2.63,1.21,1.28.35,2.97.43,3.46.43.15,0,.37,0,.52-.01,2.4-.14,5.1-1.34,7.06-3.07,1.17-.74,2.12-1.77,2.77-2.96,1-1.07,1.71-2.4,2.01-3.87.11-.27.21-.54.3-.82.18-.35.33-.73.45-1.11.15-.47.26-.95.32-1.43.25-1.03.4-2.55-.1-4.24.04-.55.09-1.2.08-1.89,0-.05,0-.1,0-.14.09-.57.11-1.16.07-1.75-.07-1-.32-1.95-.72-2.83-.54-2.66-1.72-5.7-2.83-7.95.11-.03.21-.06.32-.09.05-.01.12-.03.2-.04.25.08.51.15.78.2.1.02.2.04.3.06,1.34.58,2.56.69,3.27.69h0c.43,0,.88-.04,1.33-.11.79.13,1.47.18,1.96.19.87.3,1.91.52,3.08.52.16,0,.38,0,.53-.02.02,0,.04,0,.06,0-.15.24-.29.49-.42.74-1.16,1.22-2.13,2.67-2.7,4.21-.51,1.09-.77,2.27-.76,3.45-.06.32-.11.66-.13,1.03-.1,1.6.55,4.91,2.27,6.92,1.72,2,4.09,3.11,6.66,3.11.29,0,.56-.01.81-.04.34.02.66.04.97.04,1.98,0,3.32-.5,4.04-.77.07-.03.15-.06.27-.1.13-.03.29-.05.46-.08,1.44-.26,2.81-.51,4.15-1.19,1.28-.29,2.28-.79,2.98-1.17.73-.17,1.43-.44,2.08-.8.32-.12.63-.27.93-.43l.03-.02c-.01.1-.03.21-.04.32-.11,1.13,0,2.12.16,2.94-.06.28-.1.57-.13.88-.06.66-.05,1.23-.03,1.65-.21,1.46,0,2.95.57,4.29.07.39.18.78.32,1.19.26.75.67,1.63,1.33,2.51.49,1.11,1.22,2.11,2.17,2.94.69.61,1.46,1.08,2.29,1.42,1.87,1.53,3.91,1.84,5.03,1.88.57.12,1.15.18,1.71.18h0c1.72,0,3.32-.51,4.79-1.53.89-.28,1.91-.75,2.89-1.56.94-.78,1.58-1.61,2.94-3.44.08-.1.15-.2.22-.29,1-.9,1.73-1.87,2.22-2.88.02-.03.04-.06.06-.09.73-1.09,1.17-2.32,1.31-3.59.13-.39.25-.85.33-1.37.19-1.13.2-2.2.19-3.02.01-.04.02-.07.03-.1.18-.38.34-.77.46-1.16.19-.33.37-.7.53-1.11.41-.8.69-1.65.82-2.52.16-.52.26-1.07.31-1.63.01-.14.09-.54.15-.84.08-.39.15-.77.2-1.11l.05-.16c.1-.32.26-.85.37-1.52.23-1.37.14-2.57.05-3.49.6-1.43.79-3.01.5-4.56.05-.3.09-.6.11-.91.05-.76,0-1.51-.17-2.23.05-.52.06-1,.05-1.4.16-.5.27-1.03.33-1.55.34.42.73.81,1.16,1.15.16.13.33.25.5.37.25.22.51.42.79.61.11.11.23.22.35.34.39.39.83.81,1.18,1.18.42.76.89,1.44,1.41,2.04.7,1.2,1.72,2.23,2.98,2.94.04.04.09.08.13.12.18.31.38.62.61.91.81,1.05,1.75,1.76,2.77,2.35.96,1.25,2.25,2.18,3.71,2.69,1.09.85,2.39,1.4,3.76,1.59,1.01.38,2.07.59,3.12.59.33,0,.67-.02.99-.06.36.03.74.05,1.12.05.4,0,.75-.02,1.01-.05,1.8-.19,3.42-.94,4.69-2.13,2.27-1.29,3.44-2.64,4.6-4.57.53-.49.99-1.06,1.38-1.69,2.45-4,.42-8.93.18-9.48-.24-.54-.58-1.16-1.07-1.78Z"/>
        <path d="M54.77,8.43c.1.09,2.01-.32,2.57.09-.07.86.71.93.92,1.24.64.94,1.33,3.59.77,4.61.73,1.36.29,3.6.66,5.42.19.96.83,2.15.98,3.01.05.3-.29.76-.14,1.01.05.09.53.16.72.39.17.2-.03.56,0,.59.12.07.48-.05.62.07.17.15.08.81.54,1.05s.88-.09,1.23-.01c1.2.27,1.21.84,3.14.54,1.56-.25,3.86-.99,5.52-1.44.43-.12,1.64-.82,1.74-.82.18,0,.54.54.82.38.06-.03.17-.76.91-.9.59-.11,1.06.39,1.39.35.21-.02.46-.47.77-.59.51-.19,1.95-.46,2.16-.6.15-.1.17-.55.46-.63.36-.11.84.23,1.06.11.19-.11.21-.59.8-.87.94-.44,2.44-.41,3.33-.7.19-.06.34-1.22.76,0,.91-.18,1.29-1.05,1.8-1.29.78-.37,3.65-.56,3.81-.68.11-.08.11-.56.42-.65.25-.07.62.19.89.15.49-.09,1.3-.81,1.84-1.01,1.17-.42,2.65-.82,3.7-1.12,1.28-.37,3.23.18,4.59.03,1.11,1.19,3.08,1.44,3.23,3.13l.59-.48c.35.31.58.7,1.02.9,2.41,1.05,3.64-.62,6.04-.17l.04.67c.24.26,2.02.18,2.44.29.23.06.03.78.99.26.43,1.15,1.13.24,1.9.53.43.17.57.6.89.75.28.14.83-.14,1.07.37.65-1.43.54.94,1.55-.24l.03.42c1.41-.22,2.98.7,4.14,1.52.29.2.34.57.45.64.13.09.8-.12,1.12-.07,2.8.44,3.94,2.47,6.49,3.24l-.48.24c.14.82,1.08.13,1.2.24l-.24.72,1.11.23.09.73c.54-.06,1.38.07,1.76.47.22.23.12.61.2.68.12.1,2.76.57,3.08.53l.24.48.04-.67c1.52,0,2.66-1.19,3.56-2.34.47-.6.43-1.77,1.44-1.56l-.12-.44-.36-.16c.81-.42,1.17-1.58,1.57-2.04.22-.25.6-.19.74-.32.52-.46.66-1.16,1.76-1.12l-.24-.72c.33-.03,1.78-.42,1.88-.54.28-.33-.42-.93.72-.44.08-.17.13-.46.29-.56.94-.59,5.77-1.17,7.07-1.13.13,0,1.78.84,2.19.92.26.05.71-.25.8-.17l-.24.96.96-.24c.12.81,1.08,2.07,1.92,2.4l-.49.37c.13.59.52,2.39.44,2.84-.07.36-.65.57-.79.88-.15.32.17.71-.12,1.25-.47.9-1.68,1.86-2.25,2.61-.51.66-2.94,5.4-3.04,5.89-.12.61.62,1.51-.7,1.78.61.85.43,2.17.71,2.92.15.4,1.25.41.47,1.62,1.31-.1,2.06,2.13,2.75,2.66.37.28,1.51.74,1.99,1.26.18.2-.22.88.77.65l-.48.47c1.4.42,2.12,1.86,3.2,2.8.19.16.59.19.9.42.5.39.48,1.14,1.63,1.14l.05.89,1.3.5-.13.73c1.73-.44,2.4,2.08,3.44,2.79.33.23.81.18,1.14.45.2.17-.01.51.03.56.33.37,1.73.27,1.14,1.48h.84c-.27,1.25.78.97,1.02,1.26.39.46-.01,2.01,1.02,1.63l-.21.69c1.04.27,1.12,1.61,1.48,2.36.06.13.45.18.51.32.08.18.39,2.01.33,2.1-.06.1-.49.15-.65.43-1.29,2.18-1.13,2.51-3.57,3.62-.3.14-.26.54-.45.56-.4.04-1.67-.08-1.88-.49l-.27.48c-.53.16-1.61-.69-1.77-1.2l-.35.72c-.6-.77-1.28-1.14-2.26-1.23-.13-.17.1-.72-.06-.9-.12-.13-2.45-1.12-2.72-1.47l.6-.36c-1.53-.63-2.38-2.11-3.73-2.75l.11-.69c-1.3-.19-1.42-1.49-1.98-2.12-.84-.96-2.04-2.08-2.91-2.96-.45-.45-1.03-.23-.61-1.2l-.72.24c.2-1.75-.77-1.33-1.37-1.75-.57-.4-1.3-1.81-1.56-2.02-.23-.18-.43-.21-.99-.72-.84-.76-1.38-1.02-2.25-1.58-.36-.23-.2-1.01-1.38-.85-.32.04-1.89.61-2,.73-.26.32.38,1.03-.98.44l-1.24,2.61-.7-.23c-.23.38.06,1.04-.03,1.29-.19.52-.99.07-.45,1.12l-.48-.24c-.08.11.16.46.16.66-.07,1.38-.72.9-.88,1.03-.14.12.81,2.84-.48,3.48l.48.24c-1.08,1.08.34,3.14-.96,4.32l.41.15c-.13.47-.14.74.31,1.05l-.49.25c.73.95-.61,2.29.5,2.62-1.32,1.46-.35,3.93-.58,5.3-.06.33-.28.81-.41,1.64-.14.88-.37,1.75-.44,2.64l-.73.15.48.96c-.74-.08-.23.32-.34.74s-.93.7-.73,1.69l-.61-.02c.6,1.01-.19,1.6-.24,2.29-.06.89.06,2.15-.09,3.07-.12.68-.65,1.19-.4,1.83h-.71c.55,1.29-.31,1.34-.86,2.02-.42.52-1.96,2.68-2.32,2.97-.28.23-1.06.16-1.43.32-.47.2-1.25,1.86-1.63.22-1.38,1.12-1.2.19-1.68-.12-.21-.14-.36-.05-1.04-.52-.17-.12-.47-.05-.56-.13-.41-.36-.08-1.04-.12-1.11-.11-.17-.86-.25-1.09-.94-.14-.41.25-1.68.19-1.74h-.72c.21-.65.02-1.46.07-2.01.03-.33.37-.62.39-1.01.04-.8-.48-2.21-.42-2.81.05-.56.57-1.43.55-2.12l.6.03c.12-.44-.34-.57-.44-.9-.25-.86.5-1.15.64-1.68.12-.47-.12-.86-.05-1.26.14-.72.87-1.81,1.14-2.95s1.59-2.94,1.6-3.4c0-.1-1.16-.38-.49-1.57h-.72s.24-.95.24-.95c-.52.07-1.06-.65-1.36-.69s-.7.44-1.08.52-.71-.12-1.13.04c-.85.31-1.32,1.2-2.66.6l.24.72c-1.51-.27-2.2,1.21-3.24,1.92-1.32.9-1.99,1.25-3.17,2.16-.57.45-2.34.23-2.47,1.44l-.95-.48-.02.94c-1.06-.04-2.15,1.05-3.04,1.18-.46.07-1.12-.25-1.22-.18-.1.07-.13.61-.52.83-.41.23-2.38.51-2.93.65-1.7.44-1.51.81-3.41.55-.47-.06-.84.36-1.35-.24-.04-.05-.36-1.15-.36-1.21.02-.33.64-.79.14-1.56l.47.24.25-.6-.5-.24c-.04-.47,1.99-2.68,2.64-2.77l-.23-.7c1.16.16.86-.89,1.32-1.44.27-.32,1.21-.56,1.46-1.05.22-.41.28-1.31.56-1.49.2-.13.75.49,1.09-.58l.6.48c-.15-.9.24-1.39.72-2.05.29-.39,1.27-1.19,1.54-1.57.56-.77,1.36-2.35.45-3.12-1.26-1.06-2.42.82-2.72-.71l-.6.48-.22-.46c-.67.38-1.26.36-1.34-.5l-.59.72c-.43-.73-.75-.08-.95-.1-.78-.08-1.15-.62-1.22-.62-2.26-.06-4.77.31-6.96-.72l-.43.46c-.74.04-1.61-.73-2.04-.84-.26-.07-.48.32-.8.32-.39,0-2.74-.27-2.58-.89h-.47c-.58,1.73-1,.19-1.23.02-.05-.04-.77.32-1.25.22-.19-.04-.07-.5-.51-.51-1.22-.03-3.2.15-4.34.5l-.14-.41c-.57.18-.91.25-1.29-.3l-.48.71c-.97-.75-2.65-.31-3.84-.25-.31.02-.63-.18-.92-.16-.52.04-.99.58-1.59.16.32,1.29-.78.97-1.04,1.51s.19,1.49-.16,2.09l.72.24-.72.48c1.25-.16,1.02,1.53,1.45,2.45.12.27.51.26.61.54.07.21-.1.83.09,1.18.15.28.58.05.76.3.17.23-.03.89.13,1.23s.55.37.74.72c1.08,1.96,2.39,5.28,2.69,7.4.09.65-.68.66.48,1.19-.74.47-.1.92-.09,1.48.01,1-.23,2.41-.11,3.33.09.65.94.79-.27,1.08l.48.59c-.73.21-1.5.84-.48,1.2l-.67.4.15.4-.43.27h.48s0,.47,0,.47c-.46.15-1.16,1.12-1.21,1.68l-.46-.23c.15.9-2,2.03-2.79,2.08-.25.01-1.19-.08-1.41-.15-.46-.13-.34-.38-.54-.47-.53-.21-3.64-1.33-3.82-1.53-.27-.29-.27-2.09-.9-.66-.57-.23-.09-.91-.13-.95-.05-.04-.62-.03-.98-.35-.39-.35-.38-.94-.52-1.06-.17-.15-.59,0-.66-.05-.03-.02.27-.45.14-.71-.17-.33-.78-.42-.97-.74-1.8-2.9-2.91-5.47-3.83-8.87-.13-.49-.65-1.08-1.09-1.34.05-1.95-2.26-7.17-3.23-9.46-.09-.2.05-.52-.04-.72-.21-.46-1.22-1.69-1.22-1.8,0-.22.59-.42.42-.84l-.71.14c-.5-1.02-1.2-1.51-2.04-2.25l-2.28.91c.38.77-.49,1.92-.96,2.71-.21.35-.88-.14,0,1.01-.65.4-.94.72-1.19,1.45l.48.23c-.92.43-.48,3.23-.72,3.48-.49.51-.39-.61-.72-.48-.34.75.42,1.57.43,2,0,.39-1.39,1.29-.46,2.53l-.69.39c.65.45.21,1.9-.24,2.4l.72.12c-.7.94-.29,2.38-.27,3.49,0,.16-.64,1.63-.69,2.6,0,.17-.45.12-.49.3-.14.69.51,1.39-.71,2.12l.48.47c-.64.61-.31,1.73-.55,2.58-.16.58-.98,1.61-1.06,2.02-.29,1.51-.65,4.48-1.28,5.9-.13.3-.57.27-.66.57-.08.26.28,1.42.19,1.54l-.48-.24c.05,1.92-.3,1.64-1.45,2.75-.56.54-.66,1.43-1.66,1.34.42,1.39-.2,1.03-.94,1.58-.63.47-.43.4-1.28.82-.19.09-.18.46-.34.47-.18.02-1.76-.28-2.01-.36-.75-.26.42-.36.25-.7l-.49-1.24.46-.45c-.88-.83-.42-.88-.56-1.6-.03-.13-.88-1.63-.97-2.27-.22-1.62.41-2.76.49-3.84.01-.2-.58-.88.1-1.55h-.72c-.1-.48.41-.57.42-1.03.04-1.94-.91-4.81.54-6.54l-.5-.27c.4-.87-.46-2.16.73-2.25v-.48s-.72.24-.72.24c.04-1.19.85-2.06.23-3.22l.49-.27c-.6-1.46.64-2.92.64-4.36,0-.37-.71-2.15-.39-2.45h.71c-.45-.52-.52-1.8-.48-2.51.05-.81-.03-1.14,0-1.67.04-.82,1.25-2.28.25-2.9l.69-.39-.24-1.03.5-.14-.72-.35c.27-.55.65-1.06.72-1.68.16-1.35-.61-3.77-.9-5.09-.07-.33.14-.7.08-1.05-.09-.47-.5-.45-.71-.7-.08-.1.09-.42.05-.45-.09-.07-.45.05-.69-.18-.34-.32-.42-1.24-.47-1.29-.03-.03-.52.28-.83.25s-.55-.39-.73-.39c-.72-.02-2.53.75-3.28,1.13-.3.15-.09.75-.91.21v1.2c-1.85-.67-.88.89-.96.96-.05.04-.38-.05-.54.06-1.07.74-1.66,1.32-1.62,2.82l-.44-.21c-.05.67-.77.75-1.01,1.09-.46.65-.16,1.26-.24,1.6-.06.23-.8,0-.23.87l-1.43.26c.45.55-.22.42-.22.57,0,.22.28.41.1.84-.11.25-1.6,1.93-2.06,1.69l.25.72-.7.02c.1,1.13-1.19,1.27-1.01,2.6l-.93.03.48.6c-1.12.39-1.07,1.15-1.79,2.04-.44.55-1.13,1.24-1.79,1.46l.21.67c-.31,0-.62.41-.83.42-.19,0-1.14-1.02-.59.56-.25,0-.55-.03-.77.06-.44.19-2.21,1.1-2.48,1.15-.22.04-3.05-.2-3.16-.32-.06-.85-.88-.89-1.15-1.61-.35-.94-.45-5.36-.09-6.3.06-.17.39-.16.44-.34.24-.83-.33-2.29.74-2.84l-.48-.24.84-1.56.36.72c.15-.41-.32-1.14-.2-1.39.02-.05.38-.07.44-.2.78-1.8,1.33-2.52,2.38-4.1.75-1.12,1.52-3.27,2.89-3.42l-.24-.72c1.08.25.71-.82,1.18-1.34.32-.35.78-.26.93-.38.09-.08.71-1.33,1.37-1.88.45-.37,1.39-.65,1.45-.71.54-.55,0-1.25,1.31-.98-.31-1.22.42-1.17.81-1.74.7-1.04.8-.89,1.33-1.52.17-.2.94-1.9,1.02-1.97.2-.16.73,0,1.06-.27.19-.15,1.07-1.5,1.61-1.87.44-.3,1.12-.61,1.6-.32-.61-1.38,1.33-1.32,1.91-1.81.31-.26.61-1.34,1.11-1.77.47-.41,1.49-.59,1.72-.82.24-.24.52-1.11,1.27-1.49,1.8-.9,1.95-1.08,3.69-2.41.42-.32,1.96-.98,2.04-1.07.12-.12-.21-.67-.1-.97.1-.28,1.15-1.12,1.31-1.79-.66-.26-.62-1.39-.24-2.03-1.22-.07-.75-1.16-1.01-1.63-.06-.11-.86-.45-1.15-.89s-.21-1.1-.71-1.45l.48-.24c-.8-.46-.39-1.47-.5-1.89-.04-.17-.38-.13-.44-.34-.11-.34.06-.83-.25-1.14l.72-.12-.49-1.08c1.18-.39.25-1.6.3-1.87.08-.42.32-1.48.69-1.51-.55-.86.53-1.29,1.07-2.01,2.32-3.09,4.47-3.9,7.6-5.69.1-.06.45.36.78-.56l.48.71.94-.24.14-.71.71.48c.49-1.35,2.6-.86,3.48-1.68l.15.43ZM101.71,37.53l-3.09.36c-.79,1.14-2.6,2.07-3.35,3.19s-1.59,2.86-2.13,3.94c-.11.22.25,1.03.12,1.28-.19.37-.69.19-.64.58l.72.12c-1.25,1.48.2,1.24.41,1.95.28.95-.43,1.81-.44,2.37,0,.81,1.32,2.4.99,3.48.94-.45.51.07,1.18.39.97.47,2.33.12,3.15-.49.07-.05,1.08-1.07,1.11-1.15.05-.12-.04-1.47.31-1.88l.72.24c-.54-1.16.79-.55.28-1.64.29-.56,1.63-2.51,1.86-3.11s.18-1.44-.22-1.97h.72c-.49-1.03.32-1.75.27-2.52-.03-.51-.4-.75-.46-1.02-.12-.6.09-1.61-.31-2.51-.22-.49-1.36-.79-1.19-1.63ZM85.14,41.64c-.22-.39-2.35-.74-2.85-.66-.42.07-.75.43-1.13.56-1.09.37-.88.35-1.64.71-.16.07-1.02.01-1.3.23-.4.31-.44.76-.89.99-.53.27-1.33.06-1.46.12-.03.02-.14.39-.48.57-1.94,1.04-3.79,2.02-5.32,3.56l.48.24c-.61.32-.3,1.19.03,1.65.37.52.9.45,1.11.7.09.11,0,.45.11.57.17.18,1.06.25,1.26.79l.11-.48h.48c.51,1.06,2.88,1.01,4.02,1.63.71.39.27.73.31.76.32.19,2.36,1.05,2.92,1.29,1.12.46,1.51.21,2.22.27.21.02.42.35.72.36.79.04,1.21-.52,1.66-.86.17-.12.5-.03.64-.23.84-1.19.16-3.78.09-5.07-.06-1.06.2-2.47.11-3.57l-.44-.2c.84-1.42-.44-2.35-.86-3.28-.12-.27.12-.59.08-.67ZM119.43,44.65c-.46.37-.87-.38-1.15-.5-.66-.27-1.87.29-2.52.57l-.24-.49c-.71,1.07-1.83.16-2.64,1.4l-.6-.44c-.03.76-1.63,1.11-2.08,1.52-.3.27-2.42,3.12-2.74,3.63-.28.44-.02,1.2-.7,1.1l.72.36c-.37.49-.04,1.18-.15,1.56-.09.31-.6.75-.71,1.19-.33,1.33.86,1.71.87,1.82.01.21-.32.58-.23.9.08.27.57.39.8.67.13.17.1.47.32.7.71.74,2.76.08,3.06,1.19.84-1.16,1.91-.26,2.36-.28.72-.04,2.53-1.17,3.27-1.28.39-.06,1.13.73,1.59-.35l.57.24v-.72s.96.48.96.48v-.72c.87.19,1.68.19,2.04-.73,1.08,1.01,1.53-.81,2.76-1.07.31-.06.46.3.59.29.19,0,.87-.96,1.55-.67v-.59s1.21-.11,1.21-.11l-.24-.48c1.4.51,1.24-.71,1.44-.96.03-.04,0,.22.68-.21.15-.1.47.01.51-.03.07-.07-.24-.75-.23-1.06.02-.45.33-.81.34-1.37,0-.16-.5-1.49-.57-1.53-.28-.16-.69-.1-.97-.25-.37-.2-.39-.69-.54-.78-.13-.08-2.22-.77-2.59-.92-1.46-.62-.96-.19-1.98-.38s-3.55-1.66-4.62-2.11l-.16.41Z"/>
      </g>
    </g>
  </g>
</svg>