<?xml version="1.0" encoding="UTF-8"?>
<svg id="Capa_2" data-name="Capa 2" xmlns="http://www.w3.org/2000/svg" viewBox="0 0 113.74 144.65">
  <g id="Capa_1-2" data-name="Capa 1">
    <g>
      <path d="M87.62,4.33c.89.53,3.06.73,4.24.69,1.79.48,2.37,1.96,4.14,1.77-2.29.09,6.32,3.31,4.16,3.12.5.56,2.52,1.15,2.5,1.93.55.32,1.05-.24.21.56,3.2-.34,3.55,3.07,4.81,6.12.68.48.94,0,.81,1.16,1.6-.18.84,1.75,2.27,2.45-.46,1.92,1.41,4.6.86,4.42,1.94,1.88.24,5.01,2.08,7.64.4,2.94-1.77,5.92-.63,7.55-.88.15-.49.08-.21.62-.88-.9-1.25,2.2-.63,2.09-.91,1.11-1.27,2.5-1.66,4.16-.57-.65-.89,1.48-.92,1.87-.76,1.04-1.75,1.41-2.2,2.7-1.33-.5-.56.28-.62,1.04-.7-.33-.71-.01-1.01.52.54.92-.62.37-1.07.53.78,1.19-1.61,1.05-1.04,2.29-2.91,1.14-6.51,6.84-10.82,7.29.55.97-3.94,2.38-4.44,1.9-2.27,1.15-2.71.64-4.52.48-3.2,1.15.52,3.97-.41,6.15.87-.09,1.15.19.62,1.25,1.09.48,2.44,3.14,2.28,4.27,1.64.07-.76,1.44.85,1.05,1.52,3.42,3.29,8.64,5.19,10.93.18,3.21,1.36,5.24,2.92,7.29-.5,1.82,1.68,3.81,2.29,5.52-.17.35-.18,1.59.39,1.38.95.98-.09,2.01,1.08,2.38-.34,1.68,1.18,2.75-.21,4.57.86.38.68,1.72-.21,1.97,2.59,1.92,1.2,6.63,2.71,8.64-1.06,1.24.51,2.57-.4,3.8-.02.72.91,2.78-.23,2.34.68,3.01-1.28,7.97-4.58,8.33.48.77-.33.64-.92.6-.14.16,0,.98-.54.5.25-.44-3.28-.29-3.22.14-1.84-1.5-4.18-.72-4.49-3.32-1.43.35-.66-1.33-2.07-.84.28-1.77-1.6-.76-.63-1.77-1.22-.09-2.21-1.67-3.33-1.56-.02-1.82-3.78-3.14-4.38-6.04-.54.31-.77-.21-1.04-.62.44-.63.94-.3-.01-.3-1.06-1.92-1.49-3.94-2.9-4.7,1-1.11-1.07-.09,0-1.46-1.33-.27-3.14-1.99-3.75,1.04-1.1-1.04-.06,1.79-2.08,1.46.14,1.46-1.06,1.91-1.66,2.6,1.09.74-1.32.95,0,1.56-.47-.24-.69.24-.65.59-.8-.19-.52.22.03.25-.11,1.02-1.61,1.15-1.25,2.91-1.1-.45-.03,1.39-1.45,1.77,1.2,1.45-2.21,5.09-2.08,7.06-1.21,1.47-1.14,4.84-3.34,4.49.54.69-.29.69-.83.62.28.73-.71,1.4-1.25,1.04.55,1.03-.96,1.17-1.66.62.55,1.03-.6,1.11-1.04.42-1.31,1.32-4.47-.46-5.52-1.03-.55-.63.77-1.32-.93-1.05.39-2.05-1.69-2.36-1.47-3.74-1.51-1.37-3.51-5.46-2.67-7.61-.2-2.17-2.09-4.01-.65-5.93-1.5-2.14-3.12-5.76-.62-8.02-2.02.65,1.59-5.23.42-6.14,1.35.94.11-.29.21-.83.89.23.51-1.99.94-2.6,1.53-3.9,2.36-3.41,4.85-6.92.6-3.94,1.68-6.37,2.42-11.1.53-.74.01-1.99,1.16-1.87-1.62-.4.94-2.55-.21-3.22,1.21-.88-.2-.54,0-1.56.86.35.75-.14.2-.31.38-3.94.88-5.8,2.09-9.06-3.44-2.1-8.4,2.89-11.31,1.07-5.97,2.04-11.59-1.75-17.09-2.93-1.05.1-3.67-1.98-4.93-1.09-1.66-.92-3.56-.78-4.13-2.17-1.91-1.04-6.25-6.5-8.02-9.66-.24-.41.57-.55-.53-.75.25-.51,0-1.13-.61-.92.56-1.25-.89-.73-.84-1.77,1.53-.41-1.82-.58,0-.73-.67-.28-.12-1.6-1.04-.62.38-.49.22-1.03-.42-.83.98-1.76-2.11-2.84-.42-3.64-.09-.33-1.31-.91-.41-1.35-.2-.28-1.78-.48-.42-.94-1.5-.6-1.41-3.56-1.24-4.58-.9-.81-.25-3.06.19-4.05-.73-.06-.73-1.19,0-1.36-1.11-2.76.46-8.13,1.97-9.05.21-6.61,7.64-12.28,11.13-17.4,5.33-7.77,18.03-2.71,15.41,5.94.67,1.1-2.04,7.33-4.1,8.18-.42,2.23-3.99,2.63-2.98,3.89-.91-.22-1.77.43-2.4,1.46-.53-.54-.58-.27-.52.42-2.95.05-4.36,3.85-5.83,4.58-2.17,6.51-1.48,7.9.62,11.97,2.8,3.5,4.45,6.2,10,8.53.66,3.43,6.26,3.4,8.11,3.44.33.85.22,1.23,1.14.62.43.46,1.12,1.24,1.77.84-.34.73,2.12,1.93,2.6,1.24,5.01,1.35,7.69.55,11.55-.2.06-.96,2.4-3.33,3.95-3.33-.43-.93,4.42-.58,2.71-3.53.9-.61-.5-3.46-1.57-4.59-.57-.48.55-2.91-.52-2.08-.15-.67.27-.68.83-.63-.62-.9.15-.93-.41-1.87,1.02-1.23,1.45-3.67,1.72-4.89,2-.46,2.04-5.27,3.7-4.29,4.19-1.2,6.96-5.62,12.07-1.53.74-.17,3.37-.27,3.34.91,4.61,1.01,4.46,5.53,6.65,7.61-.84-.5-.88,1.09-.21.52.07.93-.66,1.57.21,1.88-.31,1.94-.11,5.02.83,6.24-.4,2.17-1.01,3.36-1.16,4.99,2.12,1.69,4.4-1.78,7.2-.63.66-1.38,3.26-1.98,5.11-3.32-.32-.78.45-1.06,1.13-.84-.27-.83.26-1.25,1.05-1.25-.45-.73.32-1.42.82-1.04.24-1.53,1.34-2,2.51-2.71-1-.7,1.12-2.55,1.68-3.66.32-1-.23-2.86.82-2.79-.79-.8-.51-2.26-.21-3.02.13-1.09-1.13-2.32-.42-3.64-1.76.59.07-.64-1.58-.62-.41-1.04-2-4.76-3.63-5-1.02-1.57-2.34-1.52-4.06-2.29-2.37.41-2.85-.67-5.62-1.44-1.66-.95-2.79-1.39-3.04-2.49-.27-.1-1.52,1.03-1.43-.86-9.71-2.85-3.13-16.9,5.99-16.82Z"/>
      <path d="M62.89.32c2.17-1.18,1.59,1.51,3.54,1.25-.67,1,1.53.82-.12,1.44.14.61-.18,1.75.75.85.24,4.71-1.42,9.31,1.67,11.45-.27-3.82,1.98,1.37.63-2.08.93.61,1.48-1.34,1.25.21.06.08.66-.75.83-.1-.68,1.44-.1,2.75-1.77,4.27-7.41,2.56-3.48-11.65-5.72-12.07-2.58-6.7-2.72,4.3-3.33,7.08,3.34,4.06-4.66,10.46-8.14,4.46-.07-1.15-1.98-6.56-1.85-2.79-1.04,6.44-8.89,8.93-10.2-.31-2.15-2.01.18-2.94-3.54-4.06-1,6-5.78-2.85-.89-3.28,4.61-2.68,8.49,6.09,7.76,8.27,2.53-.52,2.78-4.67,4.99-6.45,4.01-3.1,8.79,9.43,8.33,3.96,1.72-1.72-1.37-14.59,5.82-12.08Z"/>
    </g>
  </g>
</svg>