<?xml version="1.0" encoding="UTF-8"?>
<svg id="Capa_2" data-name="Capa 2" xmlns="http://www.w3.org/2000/svg" viewBox="0 0 129.13 160.25">
  <defs>
    <style>
      .cls-1 {
        fill: #fff;
      }
    </style>
  </defs>
  <g id="STICKERS">
    <g id="_04_copia" data-name="04 copia">
      <g>
        <path class="cls-1" d="M128.83,44.71c.36-1.29.4-2.68.06-4.06-.11-.45-.26-.89-.44-1.31-.07-.27-.14-.55-.24-.84-.09-.27-.2-.57-.34-.87,0-.27,0-.56-.02-.86-.02-.48-.09-.93-.17-1.32.02-1.35-.31-2.71-.98-3.94-.23-.42-.5-.81-.79-1.18-.42-2.42-1.05-5.61-3.55-8.04-.09-.09-.19-.18-.28-.26-.03-.03-.06-.06-.08-.09-.15-.18-.29-.34-.44-.49-.36-1.57-1.01-3.53-2.66-5.22-.05-.05-.1-.11-.16-.16-.25-.35-.5-.65-.73-.88-.99-1.04-2.26-1.79-3.64-2.18-.25-.26-.52-.51-.8-.73-.36-.48-.78-.92-1.25-1.31-.73-.61-1.54-1.07-2.4-1.38-.56-.34-1.15-.6-1.76-.8-.81-.71-1.76-1.25-2.8-1.59-.13-.11-.28-.22-.42-.33-2.12-1.56-4.06-1.59-6.11-1.63-.1,0-.2,0-.3,0-.53-.17-1.27-.4-2.15-.55-.37-.06-.75-.1-1.13-.12-.64-.16-1.3-.25-1.97-.25-.96,0-1.94.18-2.88.54-.59.23-1.15.53-1.67.88-.15.05-.31.1-.47.15-.52.18-1,.4-1.42.63-.18.07-.36.15-.54.23-.63.3-1.21.66-1.73,1.09-1.07.63-1.97,1.5-2.65,2.53-.06-.21-.13-.41-.21-.62-.08-.76-.24-1.62-.62-2.56-.91-2.2-2.45-3.36-3.47-4.13-.01-.01-.02-.01-.03-.02-1.26-1.6-3.11-2.68-5.19-2.96-.36-.05-.72-.07-1.08-.07s-.7.02-1.04.06c-.31-.03-.62-.05-.94-.05-.54,0-1.18.05-1.88.22-1.31.06-2.59.43-3.73,1.06-1.07.61-2.32,1.79-3.31,3.32-.23.22-.45.45-.66.7-.72.88-1.24,1.9-1.54,2.98-.25-.02-.49-.03-.74-.03-1.53,0-2.97.3-4.28.89,0,0,0,.01-.01.01-.77-.73-1.68-1.31-2.68-1.69-.81-.57-1.74-1-2.75-1.25-.62-.15-1.25-.22-1.88-.22-.55,0-1.1.06-1.64.17-1.26.02-2.58.33-3.78.97-1.3.28-2.52.9-3.54,1.79-.01,0-.03,0-.04-.02-.92-.68-1.95-1.15-3.03-1.4-.02-.01-.05-.02-.07-.03-1.06-.4-1.93-.65-6.26-.65-1.44,0-2.79,0-4.37.63-.56.23-1.2.56-1.86,1.04-1.34.51-3.14,1.38-4.62,2.97-1.15.88-2.02,2.04-2.55,3.34-.24.24-.5.52-.76.83l-.2.22c-.35.4-.93,1.04-1.49,1.91-.89.86-1.65,1.91-2.46,3.02-.31.42-.6.84-.83,1.12-1.72,1.8-4.45,5.72-5.37,9.12-.17.63-.28,1.16-.36,1.62-.21.34-.42.73-.61,1.16-.4.59-.67,1.14-.85,1.58C.13,38.05.1,41.12.17,45.17c.01.64.03,1.22.02,1.66-.01.24-.03.41-.04.58-.08.76-.14,1.6-.08,2.76-.1.76-.09,1.51,0,2.24.01.65.1,1.29.26,1.92.07.58.22,1.39.57,2.28.26.63.55,1.15.91,1.7.13,1.13.5,2.28,1.1,3.44.29,1.27.71,2.99,2.02,4.5.1.39.24.78.41,1.16.37.82.86,1.55,1.45,2.19.37,1.07.96,2.06,1.75,2.9.45.68.99,1.27,1.61,1.79.51.73.91,1.21,1.77,2.21.05.08.1.16.15.24.4.68.95,1.61,1.78,2.55.44.5.92.92,1.45,1.28.51.82,1.15,1.54,1.93,2.14,1.38,1.08,5.81,2.81,7.36,2.99.3.04.65.06,1.05.06h.31c.23.08.46.16.7.22.89.59,1.9.99,2.98,1.18.67.2,1.36.32,2.06.34,1.14.65,2.45,1.03,3.84,1.11,2.53.83,3.78,1.09,6.37,1.43.74.26,1.72.5,2.88.49.54,0,1.24-.05,2.04-.24.55-.03,1.13-.1,1.69-.2.27.02.54.02.8.02h.27s0,.03,0,.05c-.25.87-.35,1.78-.29,2.69-.11.41-.22.81-.32,1.21-.38,1.42-.81,3.02-1.01,4.73l-.1.88c-.04.32-.07.61-.1.85-.38.64-.68,1.34-.88,2.08-.16.64-.27,1.24-.34,1.79-.29.28-.57.58-.82.91-.17.21-.34.45-.52.74-.71.74-1.25,1.59-1.64,2.54-.62.71-1.12,1.54-1.46,2.44l-.95,2.54c-.16.44-.29.89-.37,1.34l-.06.12c-.66,1.36-.92,2.86-.76,4.33-.24.6-.49,1.31-.65,2.1-.09.47-.14.92-.17,1.33-.33.79-.54,1.63-.64,2.52-.15,1.39-.02,2.54.07,3.33-.29,1.81.05,3.68.97,5.27-.18,1.84.2,3.44.9,4.79-.1.97-.02,1.95.22,2.88.02.48.08,1,.19,1.55.28,1.31,1.6,4.3,3.08,6.32,1.04,2.19,3.12,5.7,4.67,7.21,2.42,2.34,6.56,3.6,9.22,3.6.51,0,1.01-.03,1.49-.11h.29c2.95,0,6.26-1.73,7.87-3.34.09-.08.17-.17.25-.26.02-.01.04-.03.07-.04,1.15-.48,2.2-1.23,3.03-2.22.16-.19.31-.38.44-.58,1.58-1.75,2.37-3.86,2.73-5.12l.07-.25c.29-.92.48-1.3.85-2.06.29-.6.6-1.25.97-2.12.49-1.15.78-2.39,1.13-3.83.05-.21.1-.46.17-.71.14-.16.27-.32.38-.46.17-.23.33-.46.47-.69l.03-.03c.22.36.47.7.75,1.02.13.16.27.31.42.46.46.68,1.03,1.29,1.69,1.8.4.43.84.82,1.31,1.15.82,1.02,1.87,1.94,3.14,2.76.05.05.11.1.16.14.29.41.61.79.96,1.14.77.89,1.72,1.6,2.8,2.08.1.12.22.25.31.36.3.34.59.66.88.96.89.95,1.97,1.63,3.14,2.04,1.1.69,2.31,1.14,3.56,1.31.35.04.74.07,1.1.07.52,0,1.04-.05,1.54-.15.83.28,1.7.43,2.57.43,1,0,2-.19,2.96-.57.67-.27,1.29-.62,1.85-1.04,1.67-.53,3.1-1.6,4.09-2.99,2-1.71,3.4-4.09,4.06-6.37.11-.37.19-.74.25-1.09.34-.86.52-1.77.55-2.68.06-.32.11-.66.13-1.03.11-.37.19-.77.25-1.19.11-.86.12-1.98-.21-3.21.21-1.82.28-3.94-.72-6.63.01-.23.02-.47.03-.65.07-1.65.13-3.08-.39-4.7-.15-.46-.38-1.04-.75-1.66.02-.05.03-.11.04-.16.15-.82.16-1.54.13-2.12.15-1.3-.01-2.64-.5-3.88-.08-.37-.18-.75-.31-1.14-.31-.93-.74-1.72-1.2-2.46-.06-.52-.17-1.08-.36-1.66-.36-1.14-.89-1.99-1.51-2.84-.12-.54-.29-1.08-.51-1.62-.2-1.16-.64-2.56-1.61-3.9-.17-.24-.36-.47-.55-.68-.11-.2-.24-.41-.39-.65-.01-.13-.03-.26-.04-.39-.4-2.76-1.74-4.89-2.72-6.45-.18-.29-.45-.72-.57-.92-.27-.73-.55-1.42-.83-2.09-.32-.79-.61-1.48-.75-1.98-.55-2.04-1.44-3.77-2.29-5.24.07-.03.15-.05.22-.08.62-.25,1.21-.56,1.75-.95l.9-.39c.78-.34,1.49-.79,2.11-1.34,1.88-.77,3.13-1.61,3.96-2.35,1.23-.77,2.08-1.71,2.63-2.42.57-.4,1.03-.84,1.39-1.24.79-.34,2.26-1.07,3.46-2.68.06-.08.2-.28.39-.58.65-.62,1.23-1.37,1.72-2.29.08-.09.16-.17.24-.26.26-.27.54-.58.84-.94,1.47-.93,2.79-2.45,3.47-4.82.01-.01.01-.02.02-.03.77-1.11,1.72-2.49,2.37-4.12.47-1.16.69-2.34.84-3.46.08-.11.14-.22.21-.32.88-1.52,1.15-3.26,1.09-4.84.61-1.36.72-2.58.73-3.14.01-.29,0-.65-.04-1.05ZM70.55,34.12c-.79.1-1.52.3-2.23.6-.38.15-.72.32-1.05.51-.32.12-.65.25-.96.41-.86.27-1.71.69-2.5,1.28-1.47.48-2.78,1.34-3.81,2.54-.91,1.04-1.3,1.95-1.95,3.46-.04.11-.09.22-.13.32-.66.65-1.81,1.88-2.35,3.9-.15.54-.23,1.09-.27,1.64-.75,1.58-1.25,2.87-1.4,4.32-.08.74-.06,4.76.26,6.16.06.23.13.49.22.78-.92.65-1.63,1.36-2.18,2.02-.71,0-1.6.09-2.56.41-.98-.55-2.08-.9-3.26-1.01-.54-.31-1.09-.54-1.63-.71-.26-.15-.54-.29-.84-.42-1.77-.78-3.33-1.14-4.59-1.42l-.6-.14c-.44-.11-.88-.17-1.33-.2-.11-.13-.23-.26-.36-.38-.57-.58-2.12-1.79-2.14-1.8-.62-.47-1.29-.85-1.99-1.14-.4-.26-.82-.49-1.24-.69-.38-.33-.78-.63-1.22-.9-3.02-3.26-3.11-4.61-3.11-4.76,0-.3-.02-.59-.05-.87.05-.13.26-.64.31-.75.22-.19.45-.4.66-.62.39-.41.73-.85,1.03-1.32.84-.36,1.71-.91,2.53-1.72,1.28-.78,2.43-1.56,3.4-2.62.44-.3.8-.59,1.06-.81.92-.59,1.7-1.35,2.29-2.21.03-.04.07-.07.1-.11.38-.41.72-.87,1-1.35,2.04-2.21,2.91-4.26,3.42-5.86.24.28.5.57.81.84.31.47.7.95,1.19,1.43.85.8,1.86,1.41,2.95,1.78.57.28,1.23.52,1.99.68.74.15,1.51.23,2.29.23,2.15,0,4.32-.58,6.24-1.61.25.13.52.25.79.36.91.35,1.74.5,2.38.56.63.16,1.29.24,1.94.24.77,0,1.55-.11,2.3-.34.1-.03.2-.06.3-.1,1.84-.19,3.48-.85,4.9-1.96.06-.05.12-.1.18-.14.61.25,1.19.41,1.71.52-.99.24-1.83.61-2.5.97ZM100.69,48.17h0c-.08.1-.15.18-.22.27-.61.72-1.07,1.51-1.39,2.36-.08.07-.17.15-.25.23-.43.4-.79.83-1.09,1.25-.34.29-.68.63-1,1.02.05-1,.02-2.13-.32-3.35-.24-.88-.63-1.71-1.13-2.44-.45-1.44-1.01-3.19-1.89-4.77-.27-.47-.56-.89-.85-1.25-.23-.46-.49-.89-.79-1.29.3.11.58.19.85.26.08.02.16.04.25.06.93.5,1.78.74,2.32.86.58.12,1.18.19,1.79.19.1,0,.2,0,.3-.01.18.06.35.12.51.18.33.23.67.44,1.02.62.6,1.35,1.38,2.53,2.14,3.51v.02c.01.08.01.15.02.23-.15.61-.26,1.3-.27,2.05Z"/>
        <path d="M100.2,13.31c.12.09.15.51.4.7.67.51,1.43.91,2.3.81l.26.83c1.38-.27,1.19,1.04,2.6.78.2.18-.38,1.09.61.45l-.12.72.96-.48c-.21.75.72.64.24,1.2,1.52-.19,1.33.77,1.74,1.14.09.08,1.97,1.33,2.09,1.36.32.08.88-.19.97-.09.05.06-.09.48.05.65.1.11.54.09.88.45.64.66.75,2.77,1.12,3.69.28.7,1.21,1.13,1.57,1.57.18.21-.01.52.03.56.14.15.64.14.9.4,1.1,1.07,1.21,4.48,1.7,5.94.1.28.96.43.46,1.38h.73c-.41.65.15,1.26.18,1.86.05.97-.37,2.27.06,3.23.14.3.6.29.69.58.22.67-.91,1.76.5,1.53l-.72.24c-.16.41.38.56.39.83,0,.17-.45.61-.33,1.26.07.37.41.63.41.67,0,.15-.55.26-.71.54-.19.33-.58,1.94-.49,2.3.04.17.39.16.42.2.02.05.06,1.08.03,1.13s-.5.15-.77.5c-.3.4-.33,3.2-.78,4.31-.53,1.31-1.84,2.88-2.5,4.05-.07.12-.08,1.65-.48,1.1-.1-.13.14-.5-.48-.33,0,.23-.03.49-.14.69-.72,1.22-1.71,2.03-2.61,3.16-.46.59-.27,1.41-1.33.94.11.35-.34,1.4-.51,1.63-.1.13-1.96.65-2.7,1.73-.52.75-.13.18-.96.74s-1.05,1.73-1.96,2.01c-.15.05-.52-.18-.58-.11-.05.06.06.44-.07.64-.31.47-2.2,1.22-2.8,1.42-.39.13-.81.09-1.21.1l-.03.93-1.54.67-.48-.4-.36.96-.95-.48c.08.94-.92.25-1.48.36-.27.05-.48.42-.81.48-.7.12-2.02-.43-2.15.36-.82-.98-2.62.3-2.69,1.35s.75,1.71.96,2.49c.29,1.07.25,2.05.82,3.3,1.04,2.26,2.88,4.52,3.56,7.02.44,1.59,1.18,3.07,1.84,4.86s2.56,3.77,2.82,5.6c.06.45-.24.85-.14,1.31.05.22,1.58,2.54,1.75,2.94.63,1.41.5.61.81,1.04.4.56.14,1.51.24,1.86.05.17.35.17.43.35.61,1.37-.58.92-.21,1.48.01.02.31-.03.38.09.36.6,1.55,2.01,1.65,2.33.14.44-.2.82-.09,1.26.15.6,1.48,2.37,1.66,2.93.23.71.22,1-.26,1.56h.72c-.29.43,0,1.32-.04,1.57-.03.15-.37.09-.38.23-.11,1.41.11,3.86.75,5.11.06.11.49.13.59.43.2.61-.25,4.1.12,4.85,1.29,2.63.43,3.53.46,5.98,0,.35.43.58.39.87s-.63.66-.65,1.04c-.02.28.32.48.34.69,0,.12-.48.83-.14,1.32l-.48-.24c.11.67.19,1.34,0,2.02-.33,1.14-1.56,3.15-2.87,3.03l-.03.93c-.98.07-1.37.92-2.38.5v.72c-.88-.91-1.21-.45-2.04-.48-.42-.02-.84-.27-1.2-.24s-.62.48-.92.44c-.43-.06-1.3-.86-1.13-1.4l-.83.48c-1.05-1.11-2.2-2.78-3.73-3.12l.24-.72-.7.23-.75-1.67c-.87.42-.62-.03-.8-.13-1.21-.64-2.52-1.38-2.55-2.87-.78.23-1.6-.24-1.47-1.06l-.66-.03-.02-1.19h-.96s.15-.97.15-.97c-1.03-.09-.93-.88-1.17-1.12-.15-.15-.59-.07-.79-.3-.05-.06-.08-1.02-.37-1.5-.18-.29-.66-.05-.45-.66l.47-.12c-1-.67-1.2-1.45-1.7-2.33-.13-.22-.45-.25-.54-.49-.17-.44.11-.85.08-.88-.07-.06-.54.03-.83-.25-.73-.69.02-1.4-2.05-1.03-1.18.21-.85.84-1.46,1.59-.22.27-1.44,1.75-1.53,1.83-.31.27-.78.21-.83.25-.03.02.25.41.13.7-.15.33-.87.62-.87,1.19l-.7-.22c.6,1.27-.88,1.92-.24,3.12l-.72-.24c.18.41.01,1.17-.24,1.51-.22.29-.57.1-.74.32-.77,1.01-1.38,5.1-1.94,6.41-.84,1.98-1.34,2.57-2.08,4.87-.35,1.1-.6,2.78-1.97,2.74l.24.47-.7-.22c-.1,1.15-1.31,1.05-1.78,1.4-.22.17-.16.59-.4.84-.39.39-1.77,1.04-2.27,1.01-.2-.01-.39-.39-.67-.35-.19.03-.44.37-.78.43-.92.17-3.26-.68-3.94-1.34-.75-.72-2.88-4.41-3.23-5.38-.1-.28.16-.62.1-.73-.02-.02-.34.24-.59.01-.35-.32-1.66-2.85-1.76-3.33-.17-.8.45-1.28-.29-1.96l.5-.14c-.31-.91-.83-1.45-.02-2.26-.77.08-.45-.97-.72-1.5-.24-.47-1-.24-.46-1.68.08-.22.42-.18.46-.34.13-.53-.58-2.63-1.22-2.86l.26-.81h-.72c.41-1.2-.15-2.5-.02-3.73.08-.76.54-.81.67-1.22.09-.28-.08-1.33.03-1.91.17-.86.84-1.89,1.07-2.74.13-.46-.2-1.12.4-1.56l-.72-.24.47-.96.49.12c-.47-.86.74-1.13-.23-1.3l.95-2.54.48.24c-.24-.85.46-1.11.7-1.61.15-.31.08-.78.24-.93.36-.36.93-.31.98-.36.06-.06-.53-1.21.72-1.19l.24.48c-.25-.91.89-1.55,1.14-2.34.31-.97.26-2.47.53-3.51l.73-.16c-.55-.77,0-1.11.12-1.69.22-.95.28-1.86.42-3.05.22-1.85.92-3.85,1.38-5.92.16-.72.93-1.21,0-1.46.83-.72.12-2.78.28-3.61.08-.41.17-.96.27-1.67.16-1.2,1.08-2.73,1.08-2.88s-.43-.39-.39-.68c.03-.22.43-.47.51-.72.26-.79.42-1.76.17-2.56l-.6.48c-.18,0-.32-.98-1.16-.89-.09,0-1.59.35-1.72.4-2.51.85-4.53,2.23-7.45,1.83-.26-.04-.46-.45-.59-.36-.03.02.05.37-.11.43-.36.13-2.09.44-1.93-.19-.89,1.13-1.16.38-1.72.31-3.26-.4-3.82-.5-7.04-1.6-.33-.11-1.12.18-1.4-.22-.13-.18,0-.6-.05-.66-.02-.02-.36.2-.55.16-.99-.24-1.52-.98-2.91-.4l-.14-.71c-.65-.09-.61-.02-.84.48-.45-1.36-3.06-.41-2.52-1.68-.37-.26-2.43.22-2.96.16-.18-.02-3.22-1.23-3.37-1.34-.24-.19-.17-.63-.39-.87-.54-.6-1.41-.8-1.21-2.03l-.71.48c-.63-.72-1.12-1.87-1.69-2.52-1.25-1.43-1.21-1.37-2.22-2.94-.12-.19-.6-.2-.78-.55-.27-.54.23-1.09-.8-.99.12-1.07-1-.99-.28-2.13l-.67-.05-.1-.62-.67-.06c.27-.36-.88-2.96-1.02-3.07s-.5,0-.63-.07c-.1-.06-.43-1.79-.58-2.19-.19-.53-1.28-1.63-.18-1.98-.72-.37-.55-1.01-.79-1.5-.08-.16-1.02-1.46-1.11-1.69-.13-.33-.02-.97-.27-1.36l.49-.25c-.98-.59-.39-.98-.46-1.68-.16-1.63.06-2.03.08-3.36.04-2.13-.29-6.82.43-8.62.13-.32.53-.3.62-.44.05-.07-.18-.56.32-1.23,1.12-1.53.65-1.63,1.18-3.59.46-1.7,2.41-4.68,3.5-5.75.65-.64,2.78-3.89,3.12-3.95.18-.03.55.2.57.18-.1-1.16.91-2.02,1.59-2.84.73-.88,2.08-1.66,2.01-2.92l.72.24c.02-.25-.04-.57.06-.78.46-1.07,2.46-1.48,3.38-1.86.14-.06.16-.43.47-.55.25-.1,4.5-.04,4.8.08.53.2.05,1.01,1.14.35.67.72.96.68,1.68.97l-.24.84.73-.14.24.86,1.18.02c-.39.9.59,1.6.82,2.37.14.46-.18,1.26.14,1.8l-.48.25c.53.68.55,2.07.23,2.82-.08.19-.48.19-.48.33,0,.96.19.53-.14,1.72-.4,1.41-.67,2.53-2.01,3.98-.32.35-1.07.06-.99,1.34l-1.18.03.37.96c-.53.22-1.07.96-1.57,1.09-.33.09-.7-.17-.72-.14-.04.04-.02.77-.31,1.14-.45.58-2.11,1.46-2.79,1.9-.42.27-.23,1.02-1.46.33l-.05.67c-.37.14-1.55.85-1.81,1.07-.34.29-.03,1.15-1.02.9l.24.72c-.95-.28-.87.87-1.28,1.14-.2.13-.58.02-.64.07-.07.06.18.47.09.71-.78,2.12-1.55,3.36-1.78,5.64l.45.22c0,4.21,3.21,8.13,6.04,11.03.58.59,1.5.36,1.19,1.58.35-.44,1.95.35,2.11.54.15.17,0,.57.05.66.04.06.77-.37,1.37.07.12.09,1.22.99,1.28,1.06.48.49.19,1.52,1.19,1.28l-.23.47c.58-.19.71.38.91.47.8.34,2.43.36,2.82.61.44.28.18.79.83.62v-.72c1.36.32,2.53.54,3.82,1.1.28.12.5.51.82.65.73.32.97-.53,1.11,1.02l2.42.11v.96s.48-.96.48-.96c.37-.09.13.32.42.47.76.4,4.71.92,5.42.66.93-.34.44-.99,1.95.08.38-1.07.91-.57,1.64-.73.19-.04.14-.46.26-.45.73.05.95.44,1.74-.36.87-.87,1.11-2.23,2.72-2.92.28-.12.45.39.72.27.18-.08.37-.5.6-.62.85-.46,1.94-1.32,2.76-.96-.61-.83.24-1.13.37-1.65.1-.41-.31-.79-.32-1.15,0-.31.35-.49.33-.81,0-.12-1.19-1.56-1.36-2.01s0-1-.03-1.05c-.09-.14-.66-.16-.79-.73-.04-.17-.13-3.27-.11-3.5.09-.82,1.67-3.66,1.67-3.87,0-.25-.31-.58-.22-.9.03-.1,1.05-.97,1.38-1.52.3-.51,1.19-2.77,1.36-2.96.36-.41.93-.08,1.28-.29.68-.41.74-.34.98-.47.16-.08.16-.89.75-.67l.12.47.72-.96.23.72c.7-.16.89-1.25,1.24-1.4.48-.2,1.26,0,1.6-.12.63-.22,1.63-1.35,2.68-1.08.15.04.09.43.26.44.19,0,.48-.25.69-.21.28.05.28.55.43.65.09.07.45-.13.81.02.52.21.73.9.97.96.36.1.94-.3,1.59-.18.78.15,1.8,1,2.5,1.32.18.08.66-.09,1.1.12.49.24.76.85,1.37.95-.59.86.74,1.09,1.07,1.67.77,1.37,1.3,3.64,1.84,5.09.08.22.4.17.45.34.25.91-.52,3.82.27,4.99l-.49.37.44.05c-.13.96.58,1.67.65,2.73.05.8-1.27,3.06-1.24,3.59.01.27.69.68.15,1.32,1.07,0,1.43.86,2.28-.23l.6.71c-.35-1.24,1.26-.67,1.4-.77.11-.08.09-.46.39-.58.63-.25,3.78.38,3.52-1.01.67.21,1.05-.55,1.67-.85.45-.22,2.55-.74,2.79-1.39.08-.21-.45-1.22.68-.7l.12-.69.47.48c-.04-.42.49-.7.59-.96s-.17-.65-.1-.71.46.09.66-.07c.07-.05.58-1.3.78-1.5.46-.43,1.04-.25,1.32-1.33.21,1.17.87-.54.95-.86.07-.3-.13-.93,0-1.08.24-.28.12.28.84-.83.43-.67,1.66-2.57,1.69-3.38.02-.53-.44-.78-.44-1.14,0-.41.46-.88.58-1.29.22-.8-.38-1.31-.34-1.59.03-.19.38-.39.38-.53,0-.15-.45-.38-.55-.72-.49-1.5.61-.69-1.08-2.64-.78-.9-1.91-2.46-2.02-3.96-.9-.56-1.81-1.29-2.32-2.11-.03-.04-.63.13-1.01-.27-.23-.24-.1-.61-.31-.75-.38-.27-.88.02-1.14-.05-.79-.22-1.97-.73-2.94-.89-.37-.06-.78.19-1.09.12-.57-.12-.62-.75-.73-.81-.36-.21-1.2.74-1.16-.75l-.36.72c-.55-.14-.76-.83-.9-.91s-.47.16-.66.06c-.68-.35-1.09-1.13-1.6-1.5-.97-.71-2.58-1.28-3.59-2.05-.73-.56-.63-1.45-1.77-.87l.14-.73c-1.61-.32-1.15-2.22-1.59-3.45l.49-.37-.5-.13c.67-1.06.18-2.18.56-3.29.18-.52.92-.65.42-1.38h.73s-.24-.72-.24-.72l.72.24c-.02-.87,1.09-1.54,1.61-2.25.33-.46-.29-.8,1.26-.66v-.7c.58.45.51-.31,1.21-.55.26-.09.6,0,.91-.08.55-.16.87-.74,1.5-.32v-.73c.6.65,1.08.14,1.77.25.76.13,1.52.51,2.24.62.45.07,2.79.04,2.91.13Z"/>
        <path d="M69.49,8.04c.07.03.51.85,1.35.65l.49-.69c.28.77,2.2,1.81,2.37,2.23.14.34.06,1.57.17,2.15.04.19.38.16.4.3.29,1.48-.84,3.49.06,4.56l-.49.25c.5.83-.15,1.53-.14,2.35.02,1.47,1.28.42.66,1.49l.46.25-.25.58,1.56.72.61-1.2c.94.56.66-.55,1.67-.48-.2,2.33-.44,4.53-3.4,4.19-1.66-.19-1.33-1.26-1.81-2.45-.12-.3-.52-.27-.55-.46-.15-.76.28-2.35.24-3.06-.04-.66-1.06-1.39-.02-1.67-.71-.99.03-3.07-.2-3.83-.07-.24-.52-.12-.73-.27-.35-.27-.9-1.36-.49-1.79-.49-.12-1.27-.08-1.21-.72-.25.47-1.37.68-1.43.74-.05.05.14.47.09.72-.4,1.98-.43,4.37-.82,6.05-.05.2-.46.08-.5.52-.08.88.87,2.73.87,3.95,0,.39-.51.72-.12,1.22h-.72s.48.72.48.72l-.7.02v.59c-1.18-.23-.7.47-1.16.83-.91.71-2.25-.11-2.56.69-.41-.29-1.04-.11-1.41-.25s-.38-.55-.64-.77c-.09-.08-.4.1-.45.05-.24-.29-.73-1.62-.78-2.08l-.58-.03c-.04-1.51.02-2.75-1.66-3.13-.15,0-.75,1.67-.77,1.85-.08.72.68,1.17-.56,1.05.37,2.35-3.07,4.14-5.16,3.71-.23-.05-.39-.31-.6-.43-.14-.08-.39.06-.43.02-.17-.16-.21-.75-.51-1.04-.66-.64-.97-.07-1.37-1.71s-.93-3.49-1.68-5.11c-.17-.38-.68-.81-.79-1.34-.89.39-1.32-.38-2.01-.12-.62.42-.07,1.5-.75,1.44-1.59-.14-.95-1.13-2.02-2.06.16-.93.94-1.23.69-2.24l1.65.21c.34-2.14,1.14.02,2.07-1.16l.14.7,1.66.26-.21.44c.33.17.85.32,1.09.6.17.2,2.06,3.55,2.12,3.76.13.44-.48.72-.36,1.2l.48-.12c-.37,1.37.62,1.4.96,2.28h.48s-.24-.71-.24-.71c.27.26,1.58-.93,1.62-1.02.09-.21-.13-.51,0-.83.25-.62,1.58-1.97,1.85-2.71.09-.25-.17-.65-.1-.72.05-.05.44.07.64-.07.17-.12.16-.46.48-.6.87-.39,2.31-.12,3.05.4.28.2.09.68.14.75.02.03.46-.3.71-.14.44.27.84,1.57,1.03,1.75.15.14.56.08.76.31.64.72.1,2.3,2.53,1.92-.49-1.09,1.2-2.62,1.12-3.25-.04-.28-.58-.49-.62-.74s.42-.57.46-.94c.06-.55-.44-1.33-.24-2.11.05-.18.46-.15.49-.31.06-.42-.62-1.89-.49-2.01h.72s-.23-1.67-.23-1.67l.67-.04c-.15-.4.87-1.99,1.05-2.09.32-.18.73.13,1.04.09.25-.03.45-.47.79-.32Z"/>
      </g>
    </g>
  </g>
</svg>