<?xml version="1.0" encoding="UTF-8"?>
<svg id="Capa_2" data-name="Capa 2" xmlns="http://www.w3.org/2000/svg" viewBox="0 0 99.77 127.36">
  <defs>
    <style>
      .cls-1 {
        fill: #fff;
      }
    </style>
  </defs>
  <g id="STICKERS">
    <g id="_04_copia" data-name="04 copia">
      <g>
        <path class="cls-1" d="M99.27,57.44c.03.54,0,1.08-.07,1.62v.1c.09.63.11,1.27.04,1.93-.02.27-.06.53-.12.79.19,2.09.1,4.05,0,5.75.22,1.13.18,2.15.02,3.04v.09c.29,1.32.33,2.56.12,3.74v.04c.37,1.46.32,2.98-.13,4.4.01.4.02.9,0,1.45.21.94.3,2.01.21,3.22.2.96.2,1.83.13,2.55.14.98.17,1.99.05,3,0,.24-.01.47-.02.7.11.68.18,1.53.11,2.52.02.1.04.21.05.32.07.48.09.95.08,1.42v.06c.04.92-.08,1.83-.34,2.68-.02.15-.04.31-.06.47-.04.29-.1.58-.16.85.16,1.08.11,2.25-.14,3.43-.05,1-.28,2.02-.73,2.98-.03.24-.06.67-.08,1-.07.98-.16,2.2-.48,3.59-.21.91-.57,1.76-1.06,2.51-.23.68-1.67,4.64-4.11,7.46-.31.59-.7,1.14-1.16,1.65-.81.88-1.78,1.56-2.86,2.03-.46.38-.98.74-1.59,1.05-.86.45-3.6,1.55-4.12,1.73-2.23.77-4.27.87-6.15.87h-1.12c-.63,0-.9.02-1.01.03-.79.25-1.59.37-2.38.37h-.07c-.8.16-1.56.19-2.24.19-.81,0-1.55-.07-2.22-.19-.16,0-.33,0-.49,0-.66,0-1.26-.05-1.78-.11-.37.11-.75.19-1.14.25s-.79.09-1.18.09c-.33,0-.65-.02-.97-.06-.32.04-.63.05-.95.05-.18,0-.37,0-.56-.02-.05.01-1.3,0-1.3,0-.26.03-.53.04-.81.04-.15,0-.3,0-.45-.01-.63.16-1.28.23-1.92.23-.22,0-.44-.01-.67-.02-.25.02-.51.03-.77.03-.77,0-1.55-.11-2.3-.34-.08-.02-.15-.04-.22-.07-.31,0-.61-.03-.87-.05-.2-.01-.39-.03-.58-.04-.17,0-.35-.02-.52-.04-.76.15-1.55.22-2.4.22-.36,0-.71-.01-1.06-.02l-.32-.02h-.1c-.17.02-.35.02-.52.02-1.01,0-1.84-.18-2.57-.38-.7.13-1.51.21-2.49.21h-.38c-.27,0-.49.01-.71.02-.46.02-.92.04-1.38.04h-.01c-.53,0-1.58,0-2.89-.27h-.11c-.6,0-1.2-.07-1.78-.2-.45.05-.97.1-1.54.1-.11,0-.21,0-.32-.01-.38.06-.76.09-1.15.09-.19,0-.38-.01-.57-.03-.13.04-.26.07-.39.1-.56.12-1.13.18-1.7.18-.65,0-1.31-.08-1.94-.24-.18,0-.36,0-.55,0-.83,0-1.54-.08-2.23-.24-.39-.1-.87-.25-1.39-.48-.47-.06-.92-.15-1.37-.26-.23.01-.45.02-.68.02-.44,0-.88-.03-1.31-.1-.6.11-1.36.22-2.21.23h-.2c-.91,0-1.68-.1-2.29-.21-.34.05-.72.07-1.12.07-.21,0-.48-.01-.69-.02-7.05-.56-9.65-8.37-9.75-11.84-.02-.61.01-1.15.07-1.63-.28-1.18-.29-2.42-.02-3.63.04-.17.09-.34.14-.51.01-.73.04-1.41.07-2.02.02-.47.05-.93.05-1.38,0-.21,0-.82-.07-1.25-.28-.9-.41-1.85-.37-2.79-.05-.74,0-1.49.16-2.24-.01-.17-.03-.35-.04-.53-.04-.55-.09-1.24-.07-2.02v-.09c-.17-.62-.29-1.31-.32-2.08-.04-.87.05-1.66.19-2.34-.27-1.01-.48-2.12-.42-3.37-.12-1.11-.09-2.38.14-3.8,0-.01,0-.02,0-.03-.05-.52-.15-1.36-.23-1.91-.09-.77-.18-1.51-.24-2.09-.07-.77-.06-1.48,0-2.12-.12-.62-.25-1.68-.15-2.92-.02-.31-.02-.61-.01-.92-.15-.55-.31-1.24-.37-2.02-.07-.8-.03-1.54.05-2.17-.11-.53-.17-1.07-.17-1.62,0,0,.01-4.31.01-4.32-.04-.61,0-1.22.1-1.81-.13-.54-.25-1.2-.3-1.96-.11-1.6-.01-3.08.07-4.27l.03-.36c-.43-1.67-.42-3.26.01-4.76-.44-1.4-.48-2.88-.14-4.28-.01-.05-.01-.1-.01-.15-.37-1.48-.31-3.04.17-4.49-.1-.55-.15-1.08-.15-1.57-.2-.75-.28-1.54-.25-2.34.03-.73.16-1.44.38-2.12.03-.21.06-.41.1-.62.02-.24.05-.48.09-.71-.05-1.94.17-3.82.36-5.49.03-.21.05-.42.08-.63-.12-1.06-.06-2,.13-2.84.01-.19.03-.37.06-.55,0-.16.01-.33.03-.5.05-.6.17-1.19.35-1.75.08-.47.19-.94.33-1.42-.04-.89.08-1.79.34-2.66.05-.14.09-.28.15-.42-.02-1.03.16-2.06.55-3.03.19-.5.43-.97.71-1.41.12-.87.39-1.73.8-2.54.25-.5.56-.97.9-1.4.04-.08.08-.17.12-.26.88-1.87,2-3.06,2.85-3.79,1.5-2.25,3.93-3.66,6.87-3.9.17-.01.35-.02.53-.02,1.06-.83,2.26-1.39,3.61-1.7.59-.14,1.13-.26,4.07-.26.97,0,2.07,0,3.24.29.36.04.72.1,1.07.19.38.05.8.13,1.25.26.34.03.64.07.9.12,1.16,0,2.38.05,3.56.1.69.03,1.39.07,2.05.08h.03c.38-.08.77-.15,1.16-.19.28-.03.64-.05.92-.05.15,0,.31.01.46.01.42-.06.84-.1,1.27-.1.6,0,1.2.07,1.8.21.19.04.37.09.55.15.65-.17,1.38-.31,2.17-.33.1-.01.25-.01.35-.01h.29c.58-.13,1.17-.2,1.77-.2s1.24.08,1.86.22h.31c.34,0,.69.02,1.03.06.43-.06.93-.12,1.48-.12h.21c.5-.1,1.12-.19,1.83-.19.12,0,.27.01.38.01.24,0,.47.03.7.06.41-.08.83-.15,1.28-.18.26-.02.53-.03.81-.03,1.35,0,2.56.23,3.44.4h.05s.03-.01.05-.01c1.07-.29,2.69-.73,4.56-.73.29,0,.58.01.87.03.12.01.24.02.36.03.24-.02.48-.03.72-.03.14,0,.29.01.44.01.42.03.88.08,1.38.2.22-.02.45-.03.69-.03.6,0,1.2.07,1.77.19.21-.04.41-.08.62-.11.37-.05.74-.07,1.1-.07.7,0,1.39.09,2.05.26h.26c.64,0,1.27.06,1.86.18.04.01.08.02.12.03.03,0,.07,0,.1-.01.41-.05.8-.07,1.15-.07,1.07,0,1.98.19,2.71.43.44.03.87.1,1.3.19h.3c.87,0,1.84.15,2.8.51,1.08.21,1.97.57,2.65.9.54.11,1.14.29,1.77.58.94.28,1.82.72,2.6,1.3.78.38,1.7.95,2.55,1.85.45.37.87.8,1.24,1.29.91,1.17,1.45,2.53,1.63,3.92.02.09.05.18.08.27.42,1.35.47,2.67.5,4.18.15.34.25.66.33.92.57,2.02.5,4.23.44,6.37-.01.47-.03,1.15-.03,1.51.03.1.06.21.09.32.19.74.47,1.81.56,3.13.28,1.04.35,2.08.24,3.11.09.94,0,1.79-.14,2.48.17,1.34.27,2.85.1,4.53-.02.15-.07.66-.08.68.26.81.38,1.68.35,2.58-.01.37-.04.73-.09,1.06.07.49.11,1.07.07,1.71.04.35.06.71.05,1.06-.02.73-.14,1.45-.34,2.13,0,.02-.01.04-.01.06.27.86.39,1.77.36,2.71-.03.69-.14,1.37-.33,2.03.48,1.65.41,3.41-.17,5Z"/>
        <path d="M24.75,8.06c.07.05.06.42.2.43l.83-.25-.24.47.86.23c.42-1.3.74.25.94.25.04,0,.34-.43.74-.48s.76.17,1.14.16c1.76-.05,4.04.12,6.08.17.56.01,1.06.34,1.42.37.05,0,.13-.53.82-.6s1.05.8,1.81-.09c.24.93.86.29,1.45.35.33.03.6.37.95.36s1.82-.67,2.42-.7c1.06-.04,1.65.98,2.12-.19l1.94.66.22-.45c.46.2.96.14,1.45.14.39,0,.81-.24,1.18-.19.06,0,.62,1.38.51.02.48.12,1.05-.23,1.45-.21s.69.37.99.4c.11.01,1.38-.5,1.88-.53,1.27-.09,2.97.52,4.07.47,1.28-.06,3.04-.93,4.57-.82.38.03.62.44.91.41.26-.02.56-.4.76-.39.23.01.44.62.95.65.4.02,2.26-1.09,1.57,0,.65-.04,1.62-.35,2.24-.24.09.02.17.58.99.48l.26-.72c.5.7,1.9.15,2.59.29.56.11,1.04.75,1.74.63.23-.04-.06-.54.35-.44v.48c.99-1.1,1.12-.3,2.1-.07.34.08.68-.14,1.03-.06s.76.53,1.13.58c.83.12.84-.98,1.17.05,1.13-.44,2.07.46,2.96.8.41.16.61-.42,1.1.59.95-.47.71.08,1.02.24.27.13,1.11.4,1.2.56.31.56-.45,1.22.77.67l-.48.6c.31.32.71.63.85,1.07.2.64.1,3.24.26,4.28.08.54.47.5.51.64.38,1.36.01,4.85.14,6.45.1,1.32.79,2.58.64,4.09-.02.23-.76.01-.48.62h.72c.14.45-.4.6-.45.88-.07.43,1.1,1.05-.04,1.41.32,1.76.64,3.27.47,5.01-.07.69-.38,2.86-.22,3.58.04.18.46.15.45.26-.01.41-.47,1.23-.43,1.71.03.35.39.56.42.75.06.4-.93.81.04,1.39l-.5.27c.46,1.28-.12,2.83-.01,4.06.04.48.52.31.52.47-.01.29-.33.5-.36.72-.17,1.11.15,2.41-.37,3.59l.72.24c-.26.4-.62,1.54-.67,1.97-.08.65.58.92-.29,1.15l.48.12c-.27.84.23,1.49-.48,2.16l.48.24-.49.14c.68,2.56.42,5.31.3,7.91-.03.59.61.94-.29,1.2.7.78.17,1.21.25,1.9.06.55.94,1.92-.24,2.06v.23c.96-.02.19,1.9,0,2.52l.72.24c-.85,1.4.09,3.72-.72,5.05,1.19.35.29,2.65.32,3.12.02.34.95.66-.09.96.42.48.74,2.61.44,2.94-.07.07-.81.06-.42.53.03.04.44-.08.48.15.02.14-.2.43-.16.65.17.93.45,1.55.16,2.57l-.48.12c.6.23.64.72.73,1.32l-.72.24.71.36c-.8.5-.24,1.11-.32,1.65-.09.64-.73,2.38-.65,2.88.03.16.45.12.48.3.08.49-.22,1.4-.71,1.65l.49.25c-1,1.97-.62,4.08-1.09,6.13h-.59c-.09.61-.14,1.35-.32,1.96-.28.95-2.09,4.49-2.94,5.01-.24.15-.37.04-.6-.02v1.08c-.27.3-.74-.14-.93-.08-.09.03-.85,1.22-1.31,1.46-.33.17-2.62,1.11-3.05,1.26-2.55.89-5.5,0-8.04.83-.71-1.4-1.32,0-1.66.16-.1.05-2.14.16-1.95-.41-1.64.69-3.35-.23-5.04-.01-.56.07-.22.47-.46.5l-.48-.72-.34.02-.13.47-.84-.49-.12.72-.48-.48-.22.46h-1.56s-.14-.46-.14-.46l-.27.5-2.11-.26-.26.48-.68-.45-.76.46-.22-.47c-1.06.19-2.28.03-3.36-.02-.15,0-.1-.41-.31-.47-.68-.2-1.75-.05-2.47,0l.72.47c-.64.22-1.33.18-1.99.15-.7-.03-.49-.05-1.25,0-.28.02-2.03-.66-2.63-.62-.89.06-.88.48-2.65.45s-3.46.42-5.04-.7l-.23.48c-1.25-1.03-3.14.59-4.57-.48l-.21.46-2.27-.43-.38.69-.96-.72c.18.51-1.67.52-1.88.46-.19-.05-.16-.5-.62-.61-.56-.14-1.27.14-2.04-.11-.72-.23-2.2-1.33-2.66-.22-.95-.61-2.43.11-3.65.13-.94.02-1.56-.28-2.37-.36-.39-.04-.79.25-1.17.22-1.28-.1-2.36-3-2.39-4.11-.04-1.25.73-2.11-.14-3.22l.49-.24c-.33-1.76-.03-3.7-.04-5.51,0-.92-.05-1.86-.21-2.76l.48-.11-.7-.75.46-.69-.48-.26c.37-1.3.04-2.78.06-4.03,0-.27.39-.56.36-.95-.03-.44-.66-.97-.69-1.73-.03-.8.54-1.28.5-1.9s-.79-2.57-.73-3.13l.49-.25c-1.13-.73-.28-2.62-.31-3.81-.03-1.29-.4-3.53-.52-4.84-.11-1.17.35-2.11.36-2.62,0-.15-.43-.08-.48-.27-.08-.31-.1-1.76.47-1.65l-.49-.25c.53-.93-.32-2.25-.39-3.14-.09-1.02.78-2.76-.09-3.11v-4.28s.49-.26.49-.26l-.5-.26c.73-1.38-.11-2.53-.2-3.84-.12-1.7.14-3.46.17-5.06,0-.55-1.02-1.71.29-2.12l-.45-.14c-.09-.11.36-1.83.34-2.01-.05-.41-.74-.88-.13-1.67l-.47-.23c.73-1.36-.35-2.69.7-3.98h-.72c.32-.58.39-1.2.41-1.84s.02-.69.08-1.41c.05-.64-.68-.99.24-1.19-.89-.18.09-1.18-.72-1.68l.49-.25c-.34-.65-.23-1.13,0-1.79l.47.24c.28-.59-.49-.45-.49-.6-.01-.37.41-.64.4-.95,0-.14-.28-.36-.29-.52-.06-1.9.3-4.16.48-6.05.08-.79-.58-1.41.62-1.23.14-.41-.05-.35-.16-.48-.2-.25-.89-.59.15-.73v-.47s-.47-.24-.47-.24l.5-.15c-.92-1.59,1.21-2.73.21-4.06,1.21-.41-.39-1.51.99-1.94l-.49-.94c1.56-.56.85-.93.96-1.89.01-.09.96-.33.23-1.34h.73s-.24-.58-.24-.58c.72-.26.41-.8.64-1.29.6-1.27,1.23-1.31,1.92-2.04.31-.33.02-.99,1.22-1.09.24-.02,1.95.57,1.74.91h.47c.03-.63,1.02-.72,1.52-1.19.4-.38.58-1.4,1.55-1.62.18-.04,3.45-.1,3.6,0ZM28.38,19.31c-1.2.16-2.21.41-2.97-.75l-.37.95c-.52.19-1-.4-1.35-.43-.39-.03-.93.62-1.44.63-.27,0-.59-.33-1.08-.39-1.03-.13-1.83.83-2.83.44-.27.62.75,1.02.72,1.08-.42.89-.37,1.9-.77,2.83-.17.41-1.03.66-1.03,1.49,0,1.3.53,2.22.26,3.85-.06.38-.46.64-.37,1.07l.48-.12-.21,1.93c.83.21.21.89.2,1.66-.03,1.59-.1,3.24.03,4.78l-.5.27c1.33.7.22,1.18.05,1.73-.04.13-.02,2.35.03,2.55.12.56.77,1.19.57,2.22-.05.28-.59.23-.66.51s.16,2.14.18,2.64c.01.31-.31.53-.31.67,0,.47,1.21,2.73.38,3.36l-.48-.12c.33.7-.09,1.36,0,2.02.16,1.2.11.91.11,1.95,0,.56.35,1.71.09,2.22-.63,1.26-.02,1.21-.19,2.31-.06.37-.43.61-.45.97-.12,1.65,1.08,1.22,1.19,1.94.13.86-.52,1.72-.43,2.44.05.42.43.86.38,1.12-.05.29-.62.53-.67.78-.05.29.46.58.47.93,0,.59-1,1.05.24,2.28l-.73.13c.33.71-.16,1.64.73,1.92-.94.21-.28.87-.36,1.45-.12.9-.68,2.33-.8,2.87-.11.49.57,2.06.63,2.9.09,1.25-.44,3.97-.2,4.97.07.27.71.34.72.53-1.35.34-.24,3.71-.49,3.95-.07.06-.47-.08-.64.07-.12.1-.02.67-.5.77l.2,1.09.48-.24c.06.72.44,1.52-.24,2.04l.72.12-.48.24v.48c.79-.19.38,1.24,0,1.56.77.39.86.65.68,1.54l-.69.02.43,1.88-.9.52.72.48c.09.38-.37.61-.41.87-.06.32.15,4.34.23,4.7.1.45.68.92.64,1.51-.03.42-.62.77-.46,1.31h.72s-.24.72-.24.72c.6.28,1.46.04,1.93.15.52.11,1.38,1,2.39.57l-.24-.48c.71.38,1.25-.02,1.82-.02.45,0,.29.47.49.49.27.03.75-.29,1.15,0l.38-.48c.39,1.74,2.33-.57,3.25.96l.27-.49,2.34.27.27-.49c1.02.91,3.08-.38,3.84.72,1.09-1.28,1.61-.12,1.93-.05.88.21,2.2-.79,2.88.05l.36-.71h.48s-.12.48-.12.48l2.17-.48.35.47c-.02-.16-.05-.45.16-.49.59-.13,2.57.16,3.3.26l.27-.49,1.18.51c.64-1.22.52-.39.98-.35,1.16.11,4.99-.36,6-.1.15.04.11.44.24.44.57,0,2.49-.47,3.36-.45.52.01.93.36,1.42.46l.25-.5.6.48v-.72c.51.33,1.23.71,1.84.71.65,0,.72-.48,1.28-.47v.72c.76-.5,1.52.17,2.05.22,1.04.08,2.53-.13,3.6-.16.34,0,1.44.24,1.64.17.29-.11.28-.65.52-.71.18-.04,2.63,1.04,3.23.48l.24.72.04-.69.67-.04c-.36-.74.43-1.38.48-2.04.08-1.14-1.66-3.84.49-3.23l-.62-5.17c.85-.82.56-.94.13-1.9.96-.27.15-1.86,0-2.63l.51-.27c-.8-1.18.23-1.6.24-1.7.06-.47-.22-1.28-.73-1.41l.51-.26-.27-.82h.72c.12-.68-.41-1.01-.42-1.08-.17-1.13.63-3.75-.31-4.33l.97-1.91-.96-.12.29-1.65.43-.15c-.91-.2-.17-1.53-.49-2.36.87-.33.17-.45.12-1.1-.03-.3.27-.53.28-.86.04-.94.17-2.77-.39-3.36l.72-.48c.14-.5-.42-.27-.48-.51s.11-3.4.13-4.05.26-2.09.27-2.64c0-.18-.45-.47-.41-.96.01-.14.76-.03.49-.6-1.2-.3-.42-.42-.32-.89.32-1.58-.12-3.23-.13-4.53-.04-4.11,0-8.02-.03-11.98,0-.34-.14-.64-.24-.95l.49-.37h-.72c1.54-.92-.61-2.58.71-2.89v-.35c-.86-.24-.27-.56-.32-1.16-.06-.74-.61-1.95.33-2.2-.88-.29-.21-2.16-.29-3.13-.05-.56-.56-2.06-.54-3.22.01-1.01.72-2.5.74-3.71.02-1.1-.73-3.25-.64-3.83.03-.17.48-.12.5-.3,0-.07,0-1.25-.01-1.38-.02-.22-.76-.01-.48-.62l.72.24c.2-.63-.33-.37-.47-.66-.29-.64-.03-1.58-1.2-1.77l.23-.69c-.7.09-1.37.58-1.92-.12l.72-.36c-.87-.21-1.76.21-2.53.25-.43.02-.84-.22-1.19-.2-1.47.08-2.42,1.02-3.6-.42-3.01.11-6.1.8-8.88-.13l-.25.51c-1.06-.57-1.75-.33-2.86-.26-.59.04-.93-.47-1.57.24l-.12-.72c-.22.97-.68.22-1.18.23-.08,0-.36.9-1.34.49l.12.72-1.51-.55c-.1-.88-.31,0-.65,0-.17,0-.34-.42-.6-.3-.17.08-.29.47-.59.52-1.16.2-1.37-.65-1.45-.62-2.24.72-2.04.05-3.65-.2-.31-.05-.71.48-1.19.6-.78.2-1.48-.62-2.22-.19l-.39-.68-.72.66c-1.47-1.07-3.37-.59-5.02-1.14l-.15.47h-.47s-.12-.47-.12-.47c-.56.48-1.1.21-1.69.96l-.22-.46c-.65.31-.99.44-1.24-.26-.62-.1-1.02.08-1.06.72l-.27-.45Z"/>
        <path d="M46.17,52.16c.46-.19,1.05-.63,1.56-.61.67.03,1.94.65,2.52.75.77.13,1.56-.6,1.8.35.93-.87,1.7.09,2.66.23.66.1,1.18-.61,1.31.48.76-.83.9-.15,1.31-.12.29.02.61-.17.95-.13.59.08.59.77,1.34,0l.22.86c1.18-.21,1.42.39,2.42.58l-.24.72c.81-.63,1.71.45,1.68,1.2l1.16-.21.52,1.42c.91-.59,1.76.74,2.25,1.47.83,1.24.16.98,1.55,1.92.06.04.08,1.19.3,1.4.07.07,1.44-.61.95.97l.48-.24c.08.3.1.77.25,1.02.9,1.53,1.36,1.84,2.04,3.77.15.43.85.94.94,1.2.23.68-.05,2.08-.01,2.53.02.26.56.64.63,1.22.09.81-.36,2.08,0,2.98l-.48.12c.96,1.17.13,2.12,0,3.36-.08.77.58-.32.48.48l-.72.48c.85.62-.01,1.88-.17,2.7s-.23,2.57-.5,3.32c-.19.53-.94.61-1,.97-.05.29.49.53.37.81-.25.59-1.58,2.05-1.97,2.73-1,1.73-.55,1.61-2.22,3.18-1.02.96-.67,1.7-.75,1.77-.05.04-.42-.06-.63.08-.35.24-.95.91-.81,1.36l-.24-.48h-.47c-.02.78-.76.89-1.13,1.29-1.12,1.18-1.18.7-1.64,1.09-1.28,1.06-5.39,3.23-7.02,3.84-.65.25-2.18.32-2.93.5l.24.48-2.62.22-.26-.45v.72c-.59.1-.4-.08-.59-.47-.56.24-1.34.53-1.94.49-.43-.02-.72-.36-.96-.37-.63-.04-3.76.08-3.97-.02-.35-.17-.41-.75-.49-.79s-1.77.22-2,.17c-.29-.07-.28-.53-.43-.62-.25-.16-.79-.02-1.16-.16-.69-.27-5.25-2.7-5.7-3.07-.17-.14-.62-1.68-1.7-1.66l.21-.44c-1.14.73-1.39-1.44-1.7-1.66-.04-.03-.37.28-.82,0-.95-.58-2.44-2.89-3.13-3.85-.16-.22-.59-.3-.7-.5-.17-.29-.43-1.83-.48-1.93-.13-.24-.81-.37-.98-.71-.21-.41.16-.84.1-.93-1.15-1.65-1.11-1.7-1.65-3.7-.05-.2-.85-.17-.23-1.37h-.72s.48-.72.48-.72c-.91.02-.94-1.39-.24-1.56-1.47-2.09-.53-4.92-.33-7.24.04-.49-.28-1.06-.15-1.6.04-.17.85-.14.24-1.36l.48.12-.21-.56c.98-.19.42-1.54.73-2.26.18-.42,1.81-2.46,2.19-3.11.13-.23.14-.63.17-.91l.72.24-.24-1.2.72.24c-.19-1.66,1.1-1.57,2.07-2.49.52-.49,1.12-1.61,1.82-2.02.34-.19.93.07,1.12-.09.08-.06.04-.57.25-.82.51-.6,5.1-3.12,6.21-3.64.6-.29,2.1-.21,2.21-1.27l.6.45c.8-1.18,1.4-.43,2.14-.44.16,0,.03-.5.49-.52.94-.03,1.17.77,1.69-.45l1.08.48-.12-.48.72-.24.12.72ZM52.17,73.52c-1.19.5-2.37-1.41-3.13-1.79-.34-.17-.89.03-1.29-.02-.23-.03-.48-.33-.75-.35-.72-.05-.76.43-1.18.73-.25.17-.69.17-.79.29-.14.17,0,.59-.05.65-.11.13-2.31-.82-3,.73-.28.63.12,1.15,0,1.45s-.67.43-.84,1.06.58.02.72.48c-1.02.21.02.53,0,.72-.04.26-1.65.39-.97,1.39.5.74.88-.1.26,1.61.04.05.9-.57,1.2.12.27.64-.82.1-.72.59.69.29.88.21,1.44-.24v1.68s.72-.24.72-.24c-.18,1.26,1.59,1.26,2.52,1.22,1.88-.09,3.99-.94,5.46-2.17,1.07-.9.96-1.27,1.4-2.46.06-.17.38-.17.42-.3.07-.23-.34-1.3-.33-1.68,0-.19.39-.43.35-.68-.05-.28-1.29-1.15-.96-2.05l-.67-.14.21-.6Z"/>
        <path d="M55.35,25.72c.14.09.46-.16.67-.07.1.04,1.62,1.12,1.69,1.19.3.27-.09.6.03.78,1.3,2.04,1.96,1.34,1.91,4.51,0,.14.89,1.87,1.03,2.26.03.07.15,1.47.14,1.55,0,.15-2,1.1-.95,2.41l-.47.23c.29.64.01,2.35-.16,3.03-.04.17-1.46,2.29-1.59,2.36-.16.09-.61-.33-.8.03.31,1.23-1.11,1.08-1.64,1.67-.22.25-.11.63-.19.69-.05.04-1.04.49-1.1.51-.8.22-2.53-.21-2.23.97-.27,0-.52-.22-.8-.17-2.64.48-3.4.99-6.23-.12-.78-.31-.91-.27-1.46-.45-.35-.12-.33-.6-.42-.66-.09-.07-1.28.74-1.17-.76-1.21.71-1.64-.67-2.28-1.2s-1.17-1.23-1.35-1.39c-.17-.14-.62.04-.87-.09-1.1-.61-1.36-3.46-1.7-4.42-.12-.34-.8-.81-.93-1.48-.11-.56-.16-1.56-.09-2.11,0-.06.29-.62.4-1.03.24-.84,1.39-2.55.34-2.79.47-.27,1.31-1.13.96-1.56h.73c-.63-.88.58-.96.83-1.43.15-.29-.28-.71,0-1.22.12-.22.46,0,.55-.06.13-.09.12-.45.44-.59.59-.25,1.2.5,1.3-1.26l.69.21c.44-1.05,1.31-.93,2.19-.44-.19-.66.54-1.12,1.04-.95.23.08.11.76,1.36.23l-.25-.72c1.27-.69,1.3-.11,2.06,0,3.54.5,5.13.34,8.31,2.36ZM48.57,33.45c-1.31-.54-1.46.08-2.24.63-.2.14-.59.04-.63.08-.13.13.11,1.96.96,2.24.39.13.64-.36.84.4l1.32-1.2c-.72-.62-.08-.85-.1-1.07-.03-.28-.54-.6-.14-1.08Z"/>
      </g>
    </g>
  </g>
</svg>