<?xml version="1.0" encoding="UTF-8"?>
<svg id="Capa_2" data-name="Capa 2" xmlns="http://www.w3.org/2000/svg" viewBox="0 0 83.97 112.06">
  <g id="Capa_1-2" data-name="Capa 1">
    <g>
      <path d="M14.52,0c13.07,4.57,70.76-5.5,67.58,8.37,3.67,22.59.61,42.56,1.66,67.31.35,18.07.93,38.21-20.03,35.65.21,1.14-2.59-.25-1.36.73-5.73-1.5-17.02,1.31-20.87-1.2-2.67.63-.27.56,1.07,1.21-2.2-.2-7.08-.64-8.48-.49,1.38.59-2.95.28,0-.25-1.22-1.35-2.35,2.21-1.97-.24-.31-.21-.63.08-.37.37-.38-.43-.59-.18-.49.25,1.12.4-1.67.11-2.51.11-2.31-1.5-6.28.82-8.13-1.1-1.73.7.34.47.68.8-1.01.26-5.88-.1-6.27-.74-5.23-1.85-10.99,2.9-13.1-3.14C3.51,84.17-6.9,6.41,8.83,1.87c1.25,2.85,1.77-.82,3.24.47C11.2,1.17,13.36-.11,14.52,0ZM37.77,11.21c-.71-.19-.68.71-1.35.37.1.71,1.17.31.37.86.3-.11.69-.65.74,0,.37-.5-.12-.73.25-1.23ZM27.81,12.07c-2.24-.75-4.49.95-6.94-.13-.15,1.1-1.56-.29-1.24.75-.93.01-1.11-1.33-2.15-.99-.61,1.44-4.44.17-6.19.73-.56,1.94.29,2.74-.63,3.84-1.97.61.41,3.54-.62,4.79-1.19-1.89.93,5.52.06,6.23.48,1.7-1.19,3.98.23,4.99-.03,1.01-.39.03-1.09.91,1.44,3.02,0,6.18.6,9.13-.41.7.73,3.4-.24,2.14-.13.73-.86,4.78.37,2.71,1,.53-1.87,1.91-.2,2.37.59,1.77-.79.78-.66,2.74.98,1.28-.92,1.65.13,3.14,1.5-.95.5,2.03.49,2.71-.54-.84-1.09.41,0,.18.58,1-.3,1.32-.07,2.48.26.82.02.57-.43,1.36.1.28,1.25,2.46.25,2.15-.33.72,1.16,1.87-.12,1.97.49.41.24,2.89-.06,2.09-.94,2.02.86,6.74-.06,7.58-.14-1.64-.55-1.07-.19.18.09.29.94.91.07.85-.13,2.65.97-1.85.55,2.46-.54-.84-.2-.14-.61,0-.41-.45-.38-1.15-.44,0-1.23-.08.4.37.37.94-.08,1.79.5-.1-.12-.69,1.34-.27.68,6.35.06,1.72-.48,2.21-.65,1.83.56,3.03-.48.95-.73,3.13.24,1.9-.25.97-1.16,17.71.68,15.62,1.03.07,3.08,1.39,3.32.02,10.07,2.13,33.89-1.55,49.05,1.21,4.79-2.36,4.87,2.55,5.62-2.13-.96-1.24-.17-.86-.13-2.16-.69.15-.18-.53-.25-.86-.55.08-.55-.44-.18-.74.57,2.2,1.53-1.99.57-2.11.94-15.8.96-49.15.35-70.85.82.13.67-1.38-.13-1.29.89-.31,1.18-1.77.25-2.8.68-8.05-.76-7.28-8.13-6.98-1.49-1.86-10.26.95-6.88-.62-.33-.19-.19-1.15-.55-.19-.35.1-.44-.59-.45.1-.33.3-.97-.11-.84.52-1.37-.72-8.4-.81-7.63,0-1.75.87-4.62-1.61-3.51.37-2.06-1.04-12.13.22-11.13-1.29-1.01-.2-.77-.12-1.17.19-.27-.57-1.07-.02-.06-.62-.57.09-2.42-.62-.74.37ZM10.46,11.58c-1.1-.09-.94,1.82-.8,2.58-.01-1.08.61-1.84.8-2.58ZM31.74,12.32c-.34-.41-1.14-.41-1.6-.24.43.43,1.06.26,1.6.24ZM39.61,12.81c-.24-1.15-2.72-.59-1.66,0,.11-1.1,1.06-.14,1.66,0ZM75.16,13.55c-1.77-.08.17,2.26.12.86-1.19-.02.04-.37-.12-.86ZM9.85,14.54c-.48.08-1.01,1.3-.43,1.6,0-.62.31-1.03.43-1.6ZM75.26,16.78c-.9-.73-.56,1.43-.39,1.81.6-.12.48-1.27.39-1.81ZM69.5,20.32c-.22-.91.12-2.22-.24-2.95.21.84-.59,2.58.24,2.95ZM8.74,63.42c.23-.93-.3-1.92-.61-.49.41-.08.59.09.61.49ZM8.87,67.86c-.96-.25-1.17,1.4-.37,1.35-.32-.55-.16-1.03.37-1.35ZM35.56,102.95c-.28-.45-1.13-.1-1.6-.24.11.69,1.15.18,1.6.24Z"/>
      <path d="M26.82,47.66c5.83-3.73,12.07-4.59,21.71-2.34,2.75-1.04,10.65,4.14,13.34,9.17,9.11,8.17,7.11,32.64-10.57,39.59-25.74,15.64-58.05-28.81-24.48-46.42ZM42.27,65.56c-3.29-3.91-6.82,3.02-6.84-.11-.88-.51-1.97,3.6-1.11,6.09-3.26-4.58-.05,2.92,1.35,3.45-.05-.25.18-.91-.3-.73-1.93-2.88,1.99.61.18,1.1,5.68,2.42,14.41-3.84,6.72-9.81ZM66.43,69.33c.73.21.06-1.71.12-1.97-.43.35-.1,1.48-.12,1.97Z"/>
      <path d="M39.1,15.31c3.69.79,9.44,1.41,11.86,5.6,1.2,1.48,1.44,4.46,1.7,5.81,1.01,1.54.88,3.13-.62,2.66.51,5.24-1.75,7.15-6.08,10.34-1.01-.25-1.32-.09-2.8,1.05-.78.78-.35-.34.15-.5-1.9.82-3.21,1.28-5.46.59-3.16-1.57-3.59-.83-6.27-3.08-1.05-1.2-4.81-3.62-4.01-6.13-3.27-3.14,0-5.28-.23-8.14.64-1.16,1.06-2.05,1.95-2.45-.19-1.02.32-3.15,2.33-2.35.51-2.41,2.18-1.4,4.52-2.59,2.34.33.02-1.16,2.97-.82ZM40.19,26.4c-1.17-1.15-1.26.24-2.03.73-.8,2.81,3.73,1.86,2.03-.73Z"/>
    </g>
  </g>
</svg>