<?xml version="1.0" encoding="UTF-8"?>
<svg id="Capa_2" data-name="Capa 2" xmlns="http://www.w3.org/2000/svg" viewBox="0 0 206.18 102.11">
  <g id="Capa_1-2" data-name="Capa 1">
    <path d="M103.2,0c-.22,6.56,16.41,1.6,6.15,5.94-2.93,4.58,2.63,3.14,3.39,7.31.75-1.84.4,2.7,1.6.93-.29,1.87,1.17-.43,1,.66,2.18.49,1.86,1.57,3.71,1.88,1.13,1.7-.96,1.64.68,1.91-.73.89.25.97-.93.6.37,2.21-.4,7.38-1.6,10.11,1.93-1.2-.28,2.43.8.53,1.73,14.23,13.97,2.59,18.09.8,1.88.83,3.27-2.02,5.44-.66.13-2.34.8,1.22,1.01-.93.34,1.01,1.26-.58,1.46.66-.22-1.58-.75-.43,1.13-1.06-.99-.44.27-5.88-1.59-6.71,1.36-2.43.34-.25.26-3.52,1.15.79,1.04-.97.82-1.57.3-.87,2.68-.62,1.31-1.28.47-.3,1.61.47.66-.6,7.99-2.58,11.48,6.54,12.23,6.25-.17.31.45,10.43,3.86,9.44.21,1.13.52-.48,1.4.4,1.6-.62,4.29,1.03,6.71.53-.69,1.72,6.57,1.01,4.92,3.19,1.34-.13,4.21,2.5,2.53.8,1.53.05,3.17,2.15,3.33,3.19.72-.36-.51-1.22.8-.66-.76.86.41.32.66.27.08.68.41,1.85,1.2,1.46-.42,1.01-.07.19-.66.27.22.83,2.51-.05,1.33.86,1.39.36.84,1.78,1.99,2.37.66-.65.26,1.37,1.19.76-.35,1.08.85.14.4,1.06,2.66,1.34,9.1,11.8,10.64,13.23-.85,1.2.41-.26.53.27-.64-.15.15,1.73.33.99.46.66.62.18.87.94,1.12-.48-.71.69.4.33.09.27-.22.99.66,1-1.38.16.13.71.53.66.34.51-1.39,1.78.07,1.19,2.02,1.87,1.87,3.38,2.33,4.39.13-.79.7.04.8.33-1.39-.3,1.42,4.98,0,5.65,1.13-.78.22,1.82-.4,1.6-.12,2.68-3.71,3.63-4.86,1.74-10.5-4.45-11.67-22.9-26.39-17.17-4.28,4.7,3.77,15.37,4.8,20.78,1.96,2.4,8.98,22.6.92,19.9.68,3.13-7.56-1.49-10.11-.53.1-.7.44-.36-.2-.8-.23,1.39-3.73-2.24-3.92-1.33-.26-2.07-7.72-2.89-.67-5.52-2.09-9.89-2.46-25.61-14-16.55-6.77,5.81-10.82,26.17-23.77,18.61-3.33-2.1-6.12-3.73-8.75-5.74-2.14-6.06,3.88-3.54,5.9-2.23,2.44-.83,1.86-3.28,2.45-5.14-.92-3.51,3.09-5.29,2.14-7.63,2.77-.5-.04-1.84,2.66-2.39-.45-1.45,1.97-1.05,2.13-3.32,1.62-.98,3.09-1.42,2.93-2.93.19-.21,2.26.26,1.73-.67.89.63.56.22.13-.4.89-.31.81.58,1.13-.66,1.28,1.27.4-2.13,1.24-.69-.34,2,.17-1.07,1.02-1.04.39.62.2-.34-.2-.53,12.98-8.62,2.81-21.76-9.11-11.7-.92-1.15.04,1.08-.93.13.15-.8-1.06.07-.73.66-.48.14-.33-.73-.4-.8-.83,1.46-1.42-.67-1.93.93-11.85,1.01-19.94-12.5-23.87-23.14-.02,1.51-.4.07-.27-.4,1.99-2.07-1.72-9.1,2.06-9.44,1.05-3.55,4.43-1.32,4.19-5.32-2.56-1.68-7.29-5-8.66-3.7-.29-.04-3.87,1.09-5.04,3.04-.52.05-1.14-.91-.93.27,1.11-.23-.39.06-.16.7-.92,1.6.26-.02.42,1.42-.5-.38.05,2.63.58.68,7.94,4.78,1.92,6.74,5.27,12.35-1.09-.25-.06.38,0,.8-.1.08-1.03-.31-1.2.07,1.45.1-2.73,4.11-1.6,4.65-.44.56-1.07-.7-.93,1,1.06-.76-.42.5.13.93-1.1-.9-.65,1.74-1.81,2.72.24.98-.84-.42-.46.6-.8-1.08.51,2.27-.4.8-.18,1.29.11.77-.8.53-.04.22-2.12,6.18-3.72,5.85-2.29,5.05-17.3,6.6-18.49,3.99-1.5.68-.67-.46-1.73-.67-.13,1.25-.49-.16-.67-.66-.54.33.2.92-.73.4,1.09-.26-3.58-1.17-3.39-2.52-.75.02.04.73-.86.66,1.8-.87-4.65-1.07-3.79.8-.7.17-2.03-.24-.4-.4-1.43-.84-.81,1.52-1.99,1.2.49.22.32.87.6.13.62,1.04-.4.37-.46.4-3.11,6.35,1.78,10.51,3.91,12.37-1.7-.41,4.75,4.81,5.79,4.52-.86.94.22.44.34.4-.1,2.35,1.71.27,1.52,2.48,1.15.7,1.62.72,1.94,1.78,11.28,7.56.17,19.21,14.75,15.28,1.92.1-1.81,3.3.87,2.48-1.81,2.48-.64-.12-1.73,1.26,2.02.46-1.22.66-1.33,2-1.16-.95.55.74-.53.53.37-.45-.21-.24-.4-.4.6.68-3.78,2.33-4.52,2.92-.44-1.29-.21.14-.27.4-.25-.56-.94.17-1.93.36-.72-.92-.48,1.75-1.21.57-1.97.47,1.44.03-.91.94-.28-.7-.18.14-.2.27-1-.74.08.88-1.2-.13-1.13,2.16-5.41-1.54-7.05-1.73-2.73-3.96-14.39-29.02-22.61-18.95,2.35-.14-1.5,1.28-.13,2.46-1.85,1.28-.46,4.2-1.86,4.72,1.64.18-1.98,2.9.53,1.26-2.14,2.2-2.36,8.18-.13,9.97,3.01.15-.08.97,1.19,1.13-12.81,9.33-28.18,10.57-19.15-8.7-1.78-.08,1.04-.76-.4-.73.3-1.04.75-.03.53-1.26,1.67.5.15-.68.27-1.33.84-.27.84,1.2.66-.13.92-.38-.29-.09.26-1,1.8-6.41,8.77-15.31,6.39-21.07-3.57-1.33-7.18-1.74-12.37-.93,2.07.97-.08,1.6-1.46,1.46.08.61-.55,2.36-1.2,1.06.46.81-.25,1.63-1.06.93-2.44,9.9-19.05,24.35-16.36,4.92,9.23-15.94,21.97-31.97,35.38-37.36,1.53.71,3.76.07,4.59-.8-.38,1.69,4.71-.78,3.26,1.06,4.13-3.72,2.31-10.51,6.12-12.9-1.27-1.51.52.06-.26-1.06.35-.2,2.15-.56.8-.93,3.07-.43.3-1.31,1.73-.8.84-1.5.09.68,1.2-.13-2.04-1.7,6-.71,6.05,0,1.25-1.26,3.98,6.4,2.06,6.18,2.34,1.32-3.88,9.09,2.99,7.38.62,1.17,3.1.69,2.6,1.06,3.17.72,9.83,2.53,10.51,5.59.75-1.58,1.14,1.36,2.4.59,3.38,4.78,9.01-3.74,8.5-10.03-.07-.59-3.48-7.91-.93-9.04-.6-2.7,6.75-2.35,5.72-4.65.25.44.99-.04.8-.27-1.45.47.56-2.12,1.33-1.46.06-.09-.26-1.44.13-.4,1.97.28-.45-1.07,2.39-1.07-1.45-.32.51-.94-.53-1.33,1.62.14.02-.39.66-1.86-.13.99-1.84.27-.76-.36,1.7-.37-1.22-.35-.77.1-.58-.47-.61-1.84-1.13-.66-2.23-.44-.32-.75-1.17-.82-2.06-2.03,2.61-.49,3.96.02-1.63-1.85.55-.2.54-.79,3.27.45,2.86-3.24,4.75-3.82Z"/>
  </g>
</svg>